<svg viewBox="0 0 538 537" fill="none" xmlns="http://www.w3.org/2000/svg">
    <path d="M443.185 382.392L396.554 411.232C392.881 413.497 390.077 416.932 388.592 420.984C387.106 425.036 387.027 429.47 388.366 433.573L408.808 496.472C408.808 496.472 397.048 501.056 394.179 505.363H429.167L416.93 429.248L450.387 418.174L482.799 519.691C482.799 519.691 467.885 526.015 467.885 528.892H505.734L475.622 385.863L443.185 382.392Z" fill="#0A132C"/>
    <path d="M461.77 403.928L488.28 496.957" stroke="#CFDAE5" strokeWidth="1.28322" stroke-miterlimit="10" stroke-linecap="round"/>
    <path d="M455.022 301.026H440.561V309.703H455.022V301.026Z" fill="white"/>
    <path d="M435.241 262.011L436.154 261.46C439.174 259.637 443.101 260.608 444.924 263.629L448.253 269.144C450.076 272.165 449.105 276.091 446.085 277.914L445.172 278.465C442.151 280.288 438.225 279.318 436.402 276.297L433.073 270.781C431.25 267.761 432.22 263.834 435.241 262.011Z" fill="#0A132C"/>
    <path d="M447.15 269.392L457.78 276.032C458.888 276.727 459.731 277.774 460.171 279.006C460.612 280.238 460.625 281.582 460.208 282.822L455.313 294.862L444.431 290.287L447.15 269.392Z" fill="#0A132C"/>
    <path d="M432.975 297.619L438.635 298.714L439.011 308.732L444.716 307.305L455.309 301.6L455.309 294.858L447.695 291.451L449.091 286.783C450.104 286.995 451.16 286.819 452.049 286.287C452.515 286.054 452.927 285.727 453.26 285.326C453.594 284.926 453.84 284.461 453.985 283.96C454.13 283.46 454.169 282.935 454.101 282.418C454.034 281.902 453.86 281.405 453.59 280.959C453.321 280.513 452.963 280.127 452.537 279.826C452.112 279.526 451.629 279.316 451.119 279.211C450.608 279.106 450.082 279.107 449.572 279.215C449.063 279.324 448.581 279.536 448.157 279.839C447.853 280.018 447.505 280.109 447.153 280.103C447.698 278.594 447.663 276.937 447.053 275.453C446.749 274.648 446.281 273.916 445.678 273.303C445.074 272.69 444.35 272.209 443.55 271.892L443.153 271.726C441.685 271.099 440.032 271.065 438.54 271.629C437.047 272.194 435.831 273.313 435.146 274.754C429.959 284.489 430.241 292.042 430.821 295.409C430.861 295.641 430.928 295.867 431.02 296.083C431.206 296.472 431.48 296.812 431.819 297.079C432.158 297.345 432.553 297.53 432.975 297.619Z" fill="white"/>
    <path d="M432.923 297.649L438.583 298.744L439.011 308.732L444.593 307.387L446.878 298.302C446.945 298.039 446.951 297.764 446.895 297.498C446.839 297.233 446.724 296.983 446.557 296.769C446.39 296.554 446.177 296.381 445.933 296.262C445.689 296.142 445.421 296.08 445.149 296.08L430.896 296.084C431.084 296.488 431.367 296.84 431.719 297.113C432.072 297.385 432.485 297.569 432.923 297.649Z" fill="#0A132C"/>
    <path d="M390.273 325.8H387.328C386.056 325.802 384.836 326.309 383.936 327.208C383.036 328.108 382.53 329.328 382.527 330.601V334.783C382.529 335.841 382.88 336.869 383.526 337.707C384.172 338.545 385.076 339.146 386.099 339.417C386.499 339.528 386.913 339.584 387.328 339.584H390.273C390.365 339.592 390.457 339.592 390.549 339.584C391.771 339.516 392.922 338.982 393.763 338.092C394.605 337.202 395.074 336.024 395.074 334.8V330.618C395.075 329.986 394.952 329.36 394.711 328.777C394.47 328.193 394.117 327.662 393.671 327.214C393.225 326.767 392.696 326.412 392.113 326.169C391.529 325.926 390.904 325.801 390.273 325.8ZM392.565 334.766C392.562 335.331 392.353 335.874 391.977 336.295C391.601 336.716 391.084 336.984 390.524 337.05H387.328C386.974 337.052 386.624 336.969 386.308 336.807C385.926 336.618 385.604 336.326 385.38 335.964C385.155 335.602 385.036 335.184 385.037 334.758V330.576C385.037 329.968 385.278 329.385 385.708 328.955C386.138 328.525 386.721 328.284 387.328 328.284H390.273C390.881 328.284 391.463 328.525 391.893 328.955C392.323 329.385 392.565 329.968 392.565 330.576V334.766Z" fill="#00BABA"/>
    <path d="M390.337 338.624V339.327C390.334 339.613 390.278 339.897 390.17 340.163C390.078 340.171 389.986 340.171 389.894 340.163H386.95C386.534 340.163 386.121 340.107 385.72 339.996C385.65 339.765 385.613 339.526 385.612 339.285V338.582C385.612 338.171 385.721 337.766 385.929 337.411C386.245 337.573 386.595 337.656 386.95 337.654H390.17C390.295 337.961 390.352 338.292 390.337 338.624Z" fill="#0A132C"/>
    <path d="M402.761 323.5C404.164 322.283 405.335 320.82 406.215 319.184C406.645 318.361 406.848 317.438 406.803 316.51C406.757 315.582 406.465 314.683 405.956 313.906C405.294 313.154 404.504 312.525 403.622 312.049C402.738 311.573 401.987 310.883 401.439 310.042C401.176 309.615 401.06 309.114 401.11 308.615C401.16 308.116 401.372 307.648 401.715 307.282C402.215 306.945 402.751 306.664 403.313 306.445C403.924 306.064 404.39 305.488 404.636 304.81C404.882 304.132 404.893 303.392 404.668 302.707C404.416 302.031 403.987 301.436 403.427 300.982C402.866 300.529 402.194 300.235 401.481 300.13C400.767 300.038 400.041 300.09 399.348 300.282C398.654 300.475 398.005 300.804 397.441 301.251C396.661 301.851 396.024 302.618 395.577 303.494C395.13 304.371 394.884 305.336 394.856 306.32C394.856 307.993 395.442 309.716 395.074 311.339C394.706 312.961 393.518 314.182 392.615 315.521C391.085 317.872 390.406 320.676 390.691 323.467C390.693 323.926 390.873 324.366 391.193 324.696C391.563 324.923 391.999 325.02 392.431 324.972L400.201 324.864C400.714 324.894 401.228 324.826 401.715 324.663C401.958 324.579 402.173 324.431 402.337 324.233C402.5 324.035 402.607 323.796 402.643 323.542V323.709" fill="#0A132C"/>
    <path d="M399.917 333.587L388.014 343.624L404.793 359.683L413.676 351.779L399.917 333.587Z" fill="white"/>
    <path d="M402.644 323.048H390.666C389.201 323.048 388.014 324.235 388.014 325.699V345.565C388.014 347.029 389.201 348.216 390.666 348.216H402.644C404.108 348.216 405.295 347.029 405.295 345.565V325.699C405.295 324.235 404.108 323.048 402.644 323.048Z" fill="#00BABA"/>
    <path d="M400.494 330.358C400.494 330.358 392.389 331.429 399.557 342.068C399.557 342.068 396.989 349.596 392.564 348.007L400.444 352.457C400.885 352.706 401.376 352.857 401.882 352.897C402.387 352.938 402.895 352.867 403.371 352.691C404.073 352.434 404.673 351.957 405.083 351.332C405.493 350.707 405.69 349.966 405.646 349.22L404.81 334.164L400.494 330.358Z" fill="#0A132C"/>
    <path d="M413.684 351.771L412.396 349.078C411.358 346.903 410.858 344.51 410.941 342.102L411.242 333.738L399.055 326.419C398.75 327.421 398.716 328.485 398.955 329.505C399.195 330.524 399.7 331.462 400.418 332.224L401.798 333.688L402.928 334.884L401.949 336.598C401.185 337.948 400.85 339.499 400.989 341.044C401.128 342.589 401.734 344.055 402.727 345.247L405.864 349.002" fill="white"/>
    <path d="M405.052 296.591C407.385 296.591 409.276 294.7 409.276 292.368C409.276 290.035 407.385 288.144 405.052 288.144C402.72 288.144 400.828 290.035 400.828 292.368C400.828 294.7 402.72 296.591 405.052 296.591Z" fill="#0A132C"/>
    <path d="M397.65 297.938C398.814 297.938 399.758 296.995 399.758 295.83C399.758 294.666 398.814 293.723 397.65 293.723C396.486 293.723 395.542 294.666 395.542 295.83C395.542 296.995 396.486 297.938 397.65 297.938Z" fill="#0A132C"/>
    <path d="M439.221 364.935L413.676 351.778L404.793 359.683L437.765 394.453L454.544 393.34L444.791 370.171L439.221 364.935Z" fill="white"/>
    <path d="M436.895 363.73C436.895 363.73 440.107 390.496 421.137 376.913L438.2 394.988L451.533 393.591L447.878 372.404L436.895 363.73Z" fill="#0A132C"/>
    <path d="M447.473 304.786C453.124 304.035 467.086 315.147 471.613 318.612L471.613 323.263L478.335 373.841C478.481 374.94 478.184 376.053 477.51 376.934C476.836 377.814 475.84 378.391 474.74 378.537L444.808 382.515C443.709 382.661 442.596 382.365 441.715 381.691C440.834 381.016 440.258 380.02 440.112 378.921L432.808 323.965C432.212 319.478 433.421 314.937 436.171 311.341C438.921 307.745 442.986 305.387 447.473 304.786Z" fill="#00BABA"/>
    <path d="M507.541 398.041L464.355 404.774L450.27 406.966L443.98 363.446L457.263 362.526L460.951 365.906L501.409 361.874L506.428 391.467L507.541 398.041Z" fill="#E9EDF5"/>
    <path d="M507.541 398.033L464.355 404.766L464.431 397.916L492.686 381.898C495.253 393.692 502.505 392.872 506.428 391.459L507.541 398.033Z" fill="#0A132C"/>
    <path d="M495.454 338.546L494.192 386.223H483.942L478.29 349.746L478.207 347.789L475.647 346.451L450.939 333.478C449.618 332.715 448.459 331.699 447.531 330.489C446.602 329.278 445.92 327.897 445.525 326.423C445.13 324.949 445.03 323.412 445.229 321.899C445.428 320.387 445.923 318.928 446.686 317.607C447.449 316.285 448.464 315.127 449.675 314.198C450.885 313.269 452.267 312.588 453.741 312.193C455.214 311.798 456.751 311.697 458.264 311.896C459.777 312.095 461.236 312.59 462.557 313.353L490.377 329.421C491.971 330.339 493.285 331.673 494.18 333.28C495.074 334.888 495.514 336.708 495.454 338.546Z" fill="white"/>
    <path d="M475.647 346.451L478.207 347.789L490.377 329.421L462.557 313.353C461.236 312.59 459.777 312.095 458.264 311.896C456.751 311.697 455.214 311.798 453.741 312.193C452.267 312.588 450.885 313.269 449.675 314.198C448.464 315.127 447.449 316.285 446.686 317.607C445.923 318.928 445.428 320.387 445.229 321.899C445.03 323.412 445.13 324.949 445.525 326.423C445.92 327.897 446.602 329.278 447.531 330.489C448.459 331.699 449.618 332.715 450.939 333.478L475.647 346.451Z" fill="#00BABA"/>
    <path d="M494.545 398.44C494.576 399.958 494.287 401.465 493.696 402.869C493.104 404.272 492.222 405.542 491.104 406.598C489.987 407.654 488.659 408.474 487.202 409.008C485.745 409.541 484.191 409.776 482.637 409.698L478.088 409.471L476.466 409.387C475.024 409.314 473.665 408.704 472.67 407.682C471.675 406.661 471.12 405.307 471.118 403.899C471.118 403.651 471.211 403.413 471.38 403.229C471.549 403.044 471.782 402.927 472.034 402.899C472.451 402.853 472.854 402.723 473.217 402.517C473.58 402.311 473.895 402.034 474.143 401.704C474.392 401.374 474.567 400.997 474.658 400.597C474.75 400.197 474.755 399.783 474.675 399.381C474.594 398.979 474.429 398.598 474.19 398.261C473.951 397.925 473.643 397.64 473.285 397.425C472.928 397.21 472.529 397.069 472.113 397.012C471.697 396.955 471.274 396.983 470.869 397.093L468.339 397.774C468.219 397.803 468.097 397.819 467.974 397.82C467.676 397.815 467.387 397.719 467.149 397.544C466.912 397.369 466.737 397.125 466.65 396.847C466.564 396.569 466.571 396.271 466.669 395.997C466.767 395.723 466.952 395.486 467.198 395.321L484.338 383.684L494.288 386.123L494.451 394.072L494.545 398.44Z" fill="white"/>
    <path d="M112.627 227.443C65.6531 178.47 75.9329 90.394 76.393 86.6719L114.584 91.3977L95.4887 89.039L114.584 91.3726C114.492 92.1087 106.145 165.112 140.388 200.819L112.627 227.443Z" fill="#0A132C"/>
    <path d="M207.069 48.6411L193.627 62.9858L180.244 77.364C173.451 71.2913 165.823 66.2214 157.594 62.3083C156.967 62.0156 156.348 61.7395 155.72 61.4719C148.669 58.4607 141.501 56.8632 135.704 58.5695C134.961 58.7899 134.237 59.0696 133.538 59.4059C133.032 59.6565 132.54 59.9358 132.066 60.2423C122.556 66.0973 117.127 82.3993 114.618 92.2943L76.5101 91.1149C76.5101 91.1149 73.2899 49.4022 111.021 27.262C111.501 26.9776 111.986 26.6988 112.477 26.4255C116.4 24.242 120.492 22.3764 124.714 20.8465C142.764 14.2471 161.191 19.1737 176.054 26.7015C176.89 27.1365 177.777 27.538 178.622 28.0315C188.937 33.6714 198.496 40.5965 207.069 48.6411Z" fill="#00BABA"/>
    <path d="M178.605 27.9803C174.423 28.4487 166.494 30.1885 161.383 36.5202C156.565 42.4923 155.285 51.1577 157.577 62.2906C156.95 61.9978 156.331 61.7218 155.704 61.4542C153.638 50.3548 155.11 41.6225 160.095 35.458C164.762 29.6866 171.412 27.4868 176.037 26.6504C176.907 27.0853 177.76 27.5286 178.605 27.9803Z" fill="#0A132C"/>
    <path d="M133.521 59.3886C133.015 59.6392 132.524 59.9185 132.049 60.225L111.005 27.2446C111.484 26.9602 111.969 26.6814 112.46 26.4082L133.521 59.3886Z" fill="#0A132C"/>
    <path d="M156.858 61.9557C156.858 61.9557 136.006 38.1593 113.807 61.3869C91.6079 84.6146 81.8969 86.3627 77.2129 78.3162L75.9917 91.6071L113.807 95.2623C113.807 95.2623 122.991 46.005 156.858 61.9557Z" fill="#0A132C"/>
    <path d="M90.0519 71.2486C89.8032 71.2481 89.5556 71.2143 89.3159 71.1482C88.5654 70.9533 87.9229 70.4687 87.5293 69.8007C87.1357 69.1327 87.0232 68.3359 87.2164 67.585C89.2215 60.8668 92.3616 54.5413 96.5008 48.8824C105.601 36.336 118.332 29.1093 133.304 27.9299C134.08 27.8689 134.849 28.1188 135.441 28.6247C136.033 29.1306 136.4 29.851 136.461 30.6274C136.522 31.4038 136.272 32.1727 135.767 32.7648C135.261 33.357 134.54 33.7239 133.764 33.7849C101.862 36.2942 93.2471 67.7523 92.8958 69.0822C92.7264 69.706 92.3558 70.2564 91.8416 70.6481C91.3274 71.0398 90.6983 71.2509 90.0519 71.2486Z" fill="white"/>
    <path d="M181.817 47.6449C181.398 47.6447 180.984 47.5541 180.603 47.3795C180.222 47.2048 179.883 46.9502 179.609 46.6328C165.549 30.4647 144.479 32.8652 144.228 32.8903C143.846 32.937 143.459 32.9081 143.088 32.8051C142.718 32.7022 142.371 32.5273 142.068 32.2904C141.766 32.0535 141.512 31.7592 141.323 31.4245C141.134 31.0897 141.012 30.7209 140.966 30.3392C140.919 29.9575 140.948 29.5704 141.051 29.1999C141.154 28.8294 141.329 28.4827 141.566 28.1798C141.803 27.8769 142.097 27.6236 142.432 27.4344C142.766 27.2453 143.135 27.1238 143.517 27.0772C144.504 26.9601 167.941 24.3002 184.025 42.7936C184.395 43.2173 184.634 43.7384 184.715 44.2946C184.797 44.8508 184.716 45.4186 184.483 45.9302C184.25 46.4418 183.875 46.8756 183.402 47.1796C182.929 47.4837 182.379 47.6452 181.817 47.6449Z" fill="white"/>
    <path d="M100.307 172.063C100.097 175.892 100.501 179.729 101.503 183.43C102.007 185.364 102.61 187.271 103.309 189.143C105.885 196.169 109.75 203.304 113.79 210.773L139.435 258.182L100.449 279.277L76.2591 234.578L74.8037 231.885C68.9487 221.011 62.2572 208.649 58.5853 194.521C56.6705 187.199 55.7837 179.647 55.9505 172.08C55.9505 171.52 55.9506 170.959 56.0258 170.407C56.3961 161.289 58.7238 152.358 62.851 144.219C71.8176 126.905 89.6169 114.191 111.607 109.331C112.301 109.181 112.987 109.039 113.681 108.905C114.517 108.729 115.421 108.57 116.291 108.42C131.798 105.785 146.904 106.922 160.387 107.934L157.042 152.14C148 151.462 138.724 150.76 130.184 151.37C129.54 151.412 128.904 151.471 128.269 151.529C125.87 151.748 123.487 152.114 121.134 152.625C112.268 154.582 105.016 159.174 102.205 164.611C101.298 166.429 100.713 168.39 100.474 170.407C100.407 170.934 100.348 171.486 100.307 172.063Z" fill="#00BABA"/>
    <path d="M139.443 258.182L100.457 279.277L76.2593 234.578C95.8402 254.862 101.62 214.119 103.318 189.16C105.894 196.186 109.758 203.321 113.798 210.79L139.443 258.182Z" fill="#0A132C"/>
    <path d="M244.491 50.095V51.7679H225.889V50.095C225.893 48.67 226.461 47.3046 227.469 46.2969C228.476 45.2893 229.842 44.7212 231.267 44.7168H239.154C240.572 44.7322 241.927 45.3051 242.926 46.3115C243.924 47.318 244.487 48.6772 244.491 50.095Z" fill="#0A132C"/>
    <path d="M192.456 89.96C149.012 89.96 113.832 176.831 113.832 284.011C113.832 391.191 149.037 478.063 192.456 478.063H277.965V89.96H192.456Z" fill="#8BA0B8"/>
    <path d="M162.847 120.423C162.847 120.423 153.203 157.318 229.661 103.979C229.661 103.979 199.549 147.113 189.939 206.951C189.939 206.951 169.028 154.95 135.93 190.223C135.93 190.248 147.322 136.022 162.847 120.423Z" fill="#AEC1D8"/>
    <path d="M349.747 283.994C349.763 301.777 348.766 319.546 346.761 337.216C337.368 418.508 307.056 478.029 271.098 478.029C227.662 478.029 192.473 391.157 192.473 283.977C192.473 176.797 227.678 89.9258 271.098 89.9258C276.999 89.9804 282.792 91.5193 287.943 94.4007C323.283 113.455 349.747 191.083 349.747 283.994Z" fill="#00BABA"/>
    <path d="M271.098 478.866C249.727 478.866 229.703 458.499 214.714 421.512C199.817 384.768 191.62 335.929 191.62 283.995C191.62 232.061 199.817 183.222 214.714 146.478C229.703 109.491 249.727 89.124 271.098 89.124C277.139 89.1801 283.07 90.7533 288.345 93.6993C305.785 103.084 321.602 127.073 332.894 161.249C344.302 195.785 350.584 239.38 350.584 283.995C350.6 301.812 349.601 319.615 347.59 337.317C342.981 377.19 333.052 413.123 319.628 438.525C305.659 464.906 288.88 478.866 271.098 478.866ZM271.098 90.7634C228.197 90.7634 193.31 177.434 193.31 283.978C193.31 390.523 228.214 477.193 271.098 477.193C305.634 477.193 336.398 419.597 345.925 337.125C347.929 319.486 348.926 301.747 348.911 283.995C348.911 239.547 342.655 196.17 331.346 161.776C320.188 128.01 304.656 104.355 287.592 95.1714C282.549 92.3514 276.876 90.847 271.098 90.7969V90.7634Z" fill="#0A132C"/>
    <path d="M205.697 478.874C184.184 478.874 164.026 458.373 148.945 421.16C133.948 384.173 125.692 335.008 125.692 282.74C125.692 230.471 133.948 181.306 148.945 144.319C164.001 107.09 184.184 86.6055 205.697 86.6055V88.2783C162.504 88.2783 127.365 175.518 127.365 282.756C127.365 389.995 162.495 477.234 205.697 477.234V478.874Z" fill="#0A132C"/>
    <path d="M271.098 478.866H262.14C240.769 478.866 220.745 458.499 205.756 421.512C190.859 384.768 182.662 335.929 182.662 283.995C182.662 232.061 190.859 183.222 205.756 146.478C220.745 109.491 240.769 89.124 262.14 89.124V90.7969C219.239 90.7969 184.351 177.468 184.351 284.012C184.351 390.556 219.256 477.227 262.14 477.227H271.098V478.866Z" fill="#0A132C"/>
    <path d="M344.127 283.995C344.139 301.242 343.204 318.476 341.325 335.62C332.517 414.461 304.112 472.192 270.412 472.192C229.695 472.192 196.697 387.938 196.697 283.995C196.697 180.052 229.695 95.7988 270.412 95.7988C275.96 95.8561 281.399 97.3519 286.196 100.14C319.318 118.592 344.127 193.895 344.127 283.995Z" fill="#00BABA"/>
    <path d="M270.412 473.028C250.338 473.028 231.56 453.263 217.508 417.38C203.548 381.74 195.861 334.365 195.861 283.995C195.861 233.625 203.548 186.258 217.508 150.618C231.56 114.727 250.346 94.9619 270.412 94.9619C276.102 95.0232 281.68 96.5531 286.605 99.4034C302.958 108.52 317.796 131.79 328.377 164.938C339.075 198.436 344.963 240.718 344.963 283.995C344.977 301.272 344.038 318.537 342.153 335.711C337.837 374.388 328.527 409.242 315.948 433.858C302.849 459.486 287.099 473.028 270.412 473.028ZM270.412 96.6348C230.263 96.6348 197.534 180.687 197.534 283.995C197.534 387.302 230.221 471.355 270.412 471.355C302.749 471.355 331.564 415.498 340.488 335.527C342.367 318.414 343.302 301.211 343.29 283.995C343.29 240.885 337.435 198.788 326.788 165.448C316.332 132.71 301.77 109.775 285.802 100.867C281.123 98.1521 275.821 96.694 270.412 96.6348Z" fill="#0A132C"/>
    <path d="M335.277 283.994C335.29 300.478 334.43 316.95 332.701 333.343C324.613 408.764 298.499 463.985 267.526 463.985C256.903 463.985 246.858 457.494 237.908 445.918C230.38 436.215 223.689 422.933 218.034 406.915C206.709 374.73 199.775 331.495 199.775 283.96C199.775 184.543 230.104 103.944 267.526 103.944C272.651 104.014 277.662 105.459 282.038 108.126C312.476 125.775 335.277 197.775 335.277 283.994Z" fill="#0A132C"/>
    <path d="M247.619 291.849V401.212H267.526V409.911C267.526 409.911 269.642 431.039 255.473 445.952C255.473 445.952 304.396 498.43 332.425 335.912C332.425 335.912 300.139 381.447 277.505 346.593L278.341 322.336L260.182 296.842C260.182 296.842 254.21 298.632 247.619 291.849Z" fill="#7089A6"/>
    <path d="M248.682 141.183H324.579C325.238 141.183 325.877 141.403 326.397 141.807C326.917 142.212 327.287 142.778 327.448 143.416L338.414 186.534C338.525 186.97 338.534 187.426 338.442 187.866C338.351 188.307 338.159 188.72 337.884 189.076C337.608 189.432 337.255 189.72 336.851 189.918C336.447 190.117 336.003 190.221 335.553 190.222H258.886C258.219 190.221 257.573 189.995 257.05 189.581C256.528 189.166 256.161 188.588 256.009 187.939L245.796 144.821C245.694 144.386 245.691 143.934 245.789 143.498C245.886 143.062 246.081 142.654 246.358 142.304C246.636 141.954 246.989 141.671 247.391 141.477C247.794 141.283 248.235 141.182 248.682 141.183Z" fill="#00BABA"/>
    <path d="M229.41 160.411L231.627 157.626C232.434 156.583 233.448 155.718 234.605 155.085C235.762 154.452 237.038 154.065 238.351 153.948C239.665 153.831 240.989 153.987 242.24 154.405C243.49 154.823 244.641 155.496 245.62 156.38L251.601 169.152L260.467 208.096L237.666 206.95L227.587 169.788C227.145 168.19 227.079 166.512 227.396 164.885C227.712 163.258 228.402 161.727 229.41 160.411Z" fill="#CFDAE5"/>
    <path d="M345.231 243.327H348.117C350.057 243.327 351.979 243.709 353.772 244.452C355.566 245.195 357.195 246.284 358.567 247.656C359.94 249.028 361.028 250.658 361.771 252.451C362.514 254.244 362.896 256.166 362.896 258.107C362.896 262.027 361.339 265.786 358.567 268.558C355.796 271.329 352.036 272.887 348.117 272.887H345.231C345.022 272.887 344.822 272.804 344.675 272.656C344.527 272.509 344.445 272.309 344.445 272.1V244.113C344.445 243.905 344.527 243.705 344.675 243.557C344.822 243.41 345.022 243.327 345.231 243.327Z" fill="#0A132C"/>
    <path opacity="0.5" d="M295.279 190.866L287.375 190.874L264.707 140.546L272.603 140.538L295.279 190.866Z" fill="white"/>
    <path opacity="0.5" d="M330.911 190.858L300.423 190.866L277.965 140.546L308.453 140.538L330.911 190.858Z" fill="white"/>
    <path d="M335.553 191.92H258.886C257.844 191.921 256.832 191.57 256.015 190.923C255.198 190.276 254.624 189.372 254.386 188.357L244.173 145.206C244.011 144.526 244.006 143.819 244.156 143.137C244.307 142.455 244.61 141.816 245.043 141.268C245.476 140.72 246.028 140.277 246.656 139.972C247.285 139.668 247.975 139.51 248.673 139.51H324.579C325.609 139.509 326.61 139.852 327.423 140.484C328.236 141.115 328.816 142 329.071 142.998L340.036 186.116C340.211 186.799 340.227 187.514 340.083 188.204C339.94 188.895 339.64 189.544 339.208 190.102C338.776 190.659 338.222 191.11 337.588 191.421C336.955 191.732 336.259 191.894 335.553 191.895V191.92ZM248.673 142.881C248.479 142.88 248.288 142.924 248.113 143.008C247.939 143.093 247.786 143.216 247.666 143.368C247.546 143.52 247.462 143.698 247.42 143.887C247.379 144.077 247.381 144.273 247.427 144.461L257.64 187.579C257.704 187.862 257.862 188.114 258.089 188.295C258.315 188.476 258.596 188.574 258.886 188.575H335.553C335.749 188.574 335.942 188.528 336.118 188.441C336.293 188.354 336.446 188.228 336.565 188.073C336.684 187.918 336.767 187.738 336.808 187.547C336.849 187.356 336.846 187.159 336.8 186.969L325.826 143.851C325.756 143.573 325.596 143.326 325.37 143.151C325.144 142.975 324.866 142.88 324.579 142.881H248.673Z" fill="#0A132C"/>
    <path d="M341.074 199.69H259.346C257.207 199.69 255.473 201.424 255.473 203.563V257.973C255.473 260.112 257.207 261.845 259.346 261.845H341.074C343.213 261.845 344.947 260.112 344.947 257.973V203.563C344.947 201.424 343.213 199.69 341.074 199.69Z" fill="#00BABA"/>
    <path opacity="0.5" d="M295.279 261.845H281.336L264.707 199.69H278.642L295.279 261.845Z" fill="white"/>
    <path opacity="0.5" d="M333.061 261.845H301.552L284.924 199.69H316.432L333.061 261.845Z" fill="white"/>
    <path d="M341.074 263.519H259.346C257.876 263.517 256.467 262.932 255.427 261.892C254.387 260.853 253.803 259.443 253.8 257.973V203.555C253.803 202.085 254.387 200.676 255.427 199.636C256.467 198.597 257.876 198.012 259.346 198.01H341.074C342.544 198.012 343.953 198.597 344.992 199.636C346.032 200.676 346.617 202.085 346.619 203.555V257.998C346.61 259.464 346.022 260.867 344.984 261.901C343.945 262.935 342.539 263.517 341.074 263.519ZM259.346 201.355C258.762 201.355 258.203 201.587 257.79 202C257.378 202.412 257.146 202.972 257.146 203.555V257.998C257.146 258.582 257.378 259.141 257.79 259.554C258.203 259.966 258.762 260.198 259.346 260.198H341.074C341.657 260.198 342.217 259.966 342.629 259.554C343.042 259.141 343.273 258.582 343.273 257.998V203.555C343.273 202.972 343.042 202.412 342.629 202C342.217 201.587 341.657 201.355 341.074 201.355H259.346Z" fill="#0A132C"/>
    <path d="M337.251 273.698L335.579 296.424L333.855 320.229C333.815 320.791 333.563 321.317 333.15 321.7C332.737 322.084 332.194 322.296 331.631 322.295H261.312C261.003 322.296 260.698 322.233 260.415 322.109C260.133 321.986 259.879 321.806 259.67 321.579C259.46 321.353 259.301 321.085 259.2 320.794C259.1 320.502 259.061 320.193 259.087 319.886L263.018 273.347C263.064 272.791 263.318 272.272 263.728 271.894C264.139 271.516 264.676 271.306 265.235 271.306H334.993C335.302 271.302 335.609 271.362 335.894 271.482C336.179 271.603 336.435 271.781 336.648 272.006C336.86 272.231 337.023 272.497 337.127 272.789C337.231 273.08 337.273 273.39 337.251 273.698Z" fill="#00BABA"/>
    <path opacity="0.5" d="M326.679 322.294L296.191 322.302L273.732 271.322L304.22 271.313L326.679 322.294Z" fill="white"/>
    <path opacity="0.5" d="M335.612 296.423L333.889 320.228C333.869 320.538 333.784 320.84 333.64 321.116C333.496 321.391 333.295 321.633 333.052 321.826L310.803 271.322H324.562L335.612 296.423Z" fill="white"/>
    <path d="M331.664 323.967H261.345C260.808 323.969 260.277 323.859 259.785 323.646C259.292 323.433 258.849 323.12 258.483 322.727C258.117 322.334 257.836 321.871 257.658 321.364C257.48 320.858 257.408 320.32 257.447 319.785L261.378 273.246C261.464 272.273 261.911 271.367 262.63 270.706C263.35 270.045 264.291 269.677 265.268 269.675H335.026C335.562 269.676 336.092 269.787 336.583 270.001C337.073 270.216 337.515 270.529 337.88 270.921C338.244 271.313 338.525 271.776 338.703 272.281C338.881 272.786 338.954 273.323 338.916 273.857L335.57 320.387C335.5 321.371 335.06 322.292 334.338 322.964C333.616 323.636 332.667 324.01 331.681 324.009L331.664 323.967ZM265.268 272.945C265.13 272.945 264.996 272.996 264.894 273.089C264.792 273.182 264.728 273.31 264.716 273.447L260.785 319.994C260.779 320.069 260.789 320.143 260.814 320.214C260.838 320.284 260.877 320.349 260.927 320.404C260.98 320.462 261.044 320.509 261.116 320.541C261.188 320.572 261.266 320.589 261.345 320.588H331.664C331.788 320.588 331.908 320.546 332.007 320.471C332.068 320.423 332.119 320.362 332.155 320.293C332.191 320.224 332.212 320.148 332.216 320.07L335.562 273.539C335.566 273.463 335.555 273.388 335.53 273.316C335.504 273.245 335.464 273.18 335.413 273.124C335.361 273.069 335.299 273.024 335.229 272.993C335.16 272.963 335.085 272.946 335.01 272.945H265.268Z" fill="#0A132C"/>
    <path d="M351.613 199.691L390.54 180.972V242.491L351.613 259.052V199.691Z" fill="#00BABA"/>
    <path opacity="0.5" d="M384.108 245.226L368.333 251.934L353.52 198.771L368.986 191.335L384.108 245.226Z" fill="white"/>
    <path d="M388.232 184.225V241.462L353.938 256.049V200.711L388.232 184.225ZM390.072 179.792C389.845 179.789 389.622 179.841 389.419 179.943L351.437 198.194C351.185 198.319 350.974 198.513 350.826 198.752C350.678 198.992 350.6 199.267 350.601 199.549V258.835C350.601 259.234 350.759 259.617 351.042 259.899C351.324 260.182 351.707 260.34 352.106 260.34C352.31 260.338 352.511 260.298 352.7 260.223L390.674 244.063C390.947 243.948 391.18 243.755 391.344 243.508C391.507 243.261 391.594 242.971 391.594 242.675V181.298C391.594 180.898 391.436 180.515 391.153 180.233C390.871 179.951 390.488 179.792 390.089 179.792H390.072Z" fill="#0A132C"/>
    <path d="M390.541 179.867L397.926 183.982V245.209L353.52 264.857V257.111L390.331 241.345L390.541 179.867Z" fill="#0A132C"/>
    <path d="M395.274 187.647C395.274 186.875 394.649 186.25 393.878 186.25C393.106 186.25 392.481 186.875 392.481 187.647V196.471C392.481 197.243 393.106 197.868 393.878 197.868C394.649 197.868 395.274 197.243 395.274 196.471V187.647Z" fill="white"/>
    <path d="M395.274 207.971C395.274 207.2 394.649 206.574 393.878 206.574C393.106 206.574 392.481 207.2 392.481 207.971V222.475C392.481 223.246 393.106 223.872 393.878 223.872C394.649 223.872 395.274 223.246 395.274 222.475V207.971Z" fill="white"/>
    <path d="M535.001 88.7129H440.869V91.2222H535.001V88.7129Z" fill="#0A132C"/>
    <path d="M537.928 95.873H444.599V100.892H537.928V95.873Z" fill="#0A132C"/>
    <path d="M384.008 24.8097C384.008 24.8097 333.119 60.9518 331.613 99.8876H245.084C254.043 70.6377 299.854 0.0012722 384.008 24.8097Z" fill="white"/>
    <path d="M532.282 98.5253C532.282 98.5253 529.848 79.8813 510.535 61.8145C491.222 43.7476 481.854 67.4102 481.854 67.4102C481.854 67.4102 472.252 98.358 460.776 98.5253C449.3 98.6926 532.282 98.5253 532.282 98.5253Z" fill="white"/>
    <path d="M537.928 95.8057H443.094V101.251H537.928V95.8057Z" fill="#0A132C"/>
    <path d="M384.008 24.8097C384.008 24.8097 361.491 40.8106 345.967 62.9759L306.905 29.2595C327.482 19.4482 353.177 15.7177 384.008 24.8097Z" fill="#0A132C"/>
    <path d="M535.009 96.082C467.618 -50.1675 268.304 -13.1722 243.646 98.3822H245.085C281.796 -3.11836 410.841 -13.1555 444.607 96.3915" fill="#00BABA"/>
    <path d="M332.475 102.632H241.304L242.14 100.39C251.492 74.5365 267.384 53.057 288.144 38.2773C307.449 24.5013 330.376 17.2244 352.742 17.7513C396.579 18.8052 431.551 48.0133 446.314 95.8821L443.11 96.8691C428.799 50.439 394.99 22.1092 352.658 21.0887C306.939 19.9846 264.448 51.3256 246.155 99.2864H332.584L332.475 102.632Z" fill="#0A132C"/>
    <path d="M535.511 88.2949H442.466V91.6406H535.511V88.2949Z" fill="#0A132C"/>
    <path d="M429.159 57.147C432.638 61.4965 436.16 65.8877 440.534 69.3338C444.909 72.7799 450.279 75.2474 455.841 75.1888C463.093 75.055 469.885 70.3794 473.297 63.9807C476.71 57.582 476.911 49.7614 474.602 42.8609C472.293 35.9603 467.651 30.0468 462.055 25.4548C456.46 20.8628 449.894 17.5338 443.152 14.8739C433.226 10.9603 422.815 8.41109 412.204 7.29591C407.98 6.8526 403.572 6.66022 399.591 8.13234C395.609 9.60445 392.172 13.268 392.063 17.5171C392.013 20.6035 393.736 23.4975 395.902 25.6555C398.172 27.7689 400.701 29.5846 403.43 31.0588C415.926 38.227 429.159 57.147 429.159 57.147Z" fill="white"/>
    <path d="M382.051 18.5964C385.557 18.5964 388.399 15.7541 388.399 12.2479C388.399 8.74173 385.557 5.89941 382.051 5.89941C378.544 5.89941 375.702 8.74173 375.702 12.2479C375.702 15.7541 378.544 18.5964 382.051 18.5964Z" fill="white"/>
    <path d="M260.417 100.967V139.894L312.468 101.251L260.417 100.967Z" fill="#0A132C"/>
    <path d="M265.778 455.604L265.577 453.931C307.675 448.912 321.284 346.032 321.417 344.961L323.09 345.178C320.526 363.17 316.478 380.918 310.987 398.241C299.269 434.124 284.062 453.421 265.778 455.604Z" fill="#0A132C"/>
    <path d="M250.681 380.117H210.03V378.444H250.681C251.539 378.444 252.379 378.194 253.098 377.725L260.902 372.589C261.701 372.058 262.306 371.281 262.625 370.375C262.943 369.47 262.958 368.485 262.667 367.571L241.179 302.145C240.887 301.265 240.327 300.5 239.576 299.956C238.826 299.413 237.923 299.119 236.996 299.117H200.001V297.444H236.996C238.278 297.444 239.526 297.848 240.564 298.599C241.602 299.35 242.376 300.409 242.776 301.626L264.247 367.027C264.662 368.298 264.648 369.67 264.207 370.932C263.765 372.194 262.921 373.276 261.805 374.011L254.018 379.122C253.026 379.772 251.866 380.118 250.681 380.117Z" fill="#0A132C"/>
    <path d="M222.819 369.987H217.993V371.66H222.819V369.987Z" fill="#CFDAE5"/>
    <path d="M219.08 409.91L284.489 409.074L300.975 392.153L306.688 395.607C307.229 395.933 307.862 396.071 308.49 396C309.118 395.929 309.704 395.652 310.159 395.214L313.505 391.977C314.658 390.849 315.497 389.439 315.937 387.886C316.377 386.334 316.404 384.693 316.014 383.128L312.2 367.595C312.055 366.994 311.713 366.46 311.227 366.077C310.741 365.695 310.141 365.487 309.523 365.487H207.228" fill="white"/>
    <path d="M243.061 379.28C243.061 379.28 241.781 394.185 278.341 389.46L284.514 409.099L219.105 409.935C215.464 399.91 212.433 389.673 210.03 379.28H243.061Z" fill="#0A132C"/>
    <path d="M310.501 364.934L275.427 391.537L276.438 392.87L311.512 366.267L310.501 364.934Z" fill="#0A132C"/>
    <path d="M313.196 373.12L279.847 403.519L280.974 404.755L314.323 374.356L313.196 373.12Z" fill="#0A132C"/>
    <path d="M219.08 410.747V409.074L284.146 408.237L300.875 391.09L307.156 394.88C307.538 395.11 307.985 395.208 308.428 395.158C308.872 395.108 309.286 394.913 309.607 394.603L312.953 391.366C314.008 390.343 314.778 389.061 315.186 387.648C315.594 386.235 315.626 384.741 315.278 383.312L311.464 367.779C311.362 367.361 311.123 366.99 310.785 366.724C310.447 366.458 310.029 366.315 309.599 366.315H207.228V364.643H309.59C310.396 364.644 311.178 364.914 311.811 365.411C312.445 365.909 312.894 366.604 313.087 367.386L316.892 382.919C317.309 384.631 317.272 386.422 316.783 388.115C316.295 389.808 315.372 391.344 314.107 392.571L310.761 395.808C310.174 396.373 309.416 396.73 308.606 396.822C307.796 396.914 306.978 396.737 306.278 396.318L301.134 393.207L284.865 409.935L219.08 410.747Z" fill="#0A132C"/>
    <path d="M299.068 373.71H286.764V375.383H299.068V373.71Z" fill="#0A132C"/>
    <path d="M281.804 373.71H259.99V375.383H281.804V373.71Z" fill="#0A132C"/>
    <path d="M262.574 406.949V424.23C262.568 428.172 261.489 432.039 259.454 435.415C257.42 438.792 254.506 441.552 251.023 443.401C247.897 445.08 244.402 445.957 240.852 445.952H237.908C230.38 436.249 223.689 422.967 218.034 406.949H262.574Z" fill="#0A132C"/>
    <path d="M262.575 406.949V424.23C262.568 428.172 261.489 432.039 259.455 435.415C257.42 438.792 254.506 441.552 251.023 443.401C248.94 442.788 247.111 441.519 245.807 439.783C244.504 438.047 243.796 435.936 243.788 433.765V416.484C243.789 414.369 244.459 412.308 245.701 410.595C246.943 408.883 248.695 407.607 250.706 406.949H262.575Z" fill="#00BABA"/>
    <path d="M243.978 412.113L242.711 413.205L259.541 432.731L260.809 431.639L243.978 412.113Z" fill="#0A132C"/>
    <path d="M260.902 408.622V424.23C260.9 427.748 259.972 431.204 258.21 434.25C256.448 437.295 253.914 439.823 250.865 441.577C249.283 440.97 247.923 439.899 246.96 438.505C245.997 437.111 245.478 435.459 245.47 433.765V416.484C245.47 414.766 246.001 413.089 246.988 411.682C247.976 410.275 249.373 409.207 250.99 408.622H260.902ZM262.575 406.949H250.706C248.695 407.607 246.943 408.883 245.701 410.595C244.459 412.308 243.789 414.369 243.788 416.484V433.765C243.796 435.936 244.504 438.047 245.807 439.783C247.111 441.519 248.94 442.788 251.023 443.401C254.506 441.552 257.42 438.792 259.455 435.415C261.489 432.039 262.568 428.172 262.575 424.23V406.949Z" fill="#0A132C"/>
    <path d="M247.97 213.96C244.382 177.642 229.134 155.644 228.983 155.41L230.347 154.448C230.505 154.666 246.005 176.99 249.643 213.776L247.97 213.96Z" fill="#0A132C"/>
    <path d="M247.745 258.106L234.872 257.504L208.232 256.249C208.232 256.249 207.537 227.551 223.287 203.228C225.517 199.763 228.035 196.492 230.815 193.45L238.276 196.286L247.184 199.682L247.544 240.993L247.745 258.106Z" fill="#00BABA"/>
    <path d="M247.745 258.106L234.872 257.504L223.312 203.228C225.542 199.763 228.06 196.492 230.84 193.45L238.301 196.286L247.569 240.993L247.745 258.106Z" fill="white"/>
    <path d="M249.426 259.855L206.592 257.847V256.292C206.592 255.096 206.065 226.791 221.941 202.317C224.229 198.761 226.812 195.404 229.661 192.28L230.43 191.443L248.924 198.486L249.426 259.855ZM209.879 254.652L246.022 256.325L245.536 200.811L231.317 195.391C228.893 198.128 226.678 201.045 224.693 204.115C211.477 224.541 210.055 248.404 209.879 254.652Z" fill="#0A132C"/>
    <path d="M203.388 225.778H234.897L249.668 287.791H199.775C200.285 263.543 200.77 242.482 203.388 225.778Z" fill="#0A132C"/>
    <path d="M233.416 228.405H221.589C225.771 230.764 227.996 262.598 229.259 268.922C229.878 272.159 233.65 274.334 236.469 274.334C240.35 274.334 241.873 270.151 240.978 265.735L233.416 228.405Z" fill="white"/>
    <path d="M236.04 265.753L234.417 266.157L236.557 274.761L238.18 274.357L236.04 265.753Z" fill="#0A132C"/>
    <path d="M234.465 259.489L232.842 259.893L233.764 263.602L235.387 263.199L234.465 259.489Z" fill="#0A132C"/>
    <path d="M221.188 284.831H200.076V283.158H221.188C221.964 283.164 222.732 282.993 223.433 282.659C224.134 282.324 224.749 281.835 225.233 281.227C225.716 280.619 226.055 279.91 226.224 279.152C226.392 278.394 226.387 277.607 226.206 276.852L217.181 238.853C216.864 237.51 216.102 236.314 215.02 235.459C213.937 234.604 212.597 234.141 211.217 234.144V232.471C212.974 232.466 214.68 233.056 216.057 234.145C217.435 235.234 218.403 236.758 218.804 238.468L227.837 276.459C228.073 277.457 228.08 278.496 227.858 279.497C227.635 280.499 227.189 281.437 226.553 282.241C225.916 283.046 225.106 283.696 224.183 284.143C223.26 284.59 222.247 284.823 221.221 284.823L221.188 284.831Z" fill="#CFDAE5"/>
    <path d="M224.525 265.024H206.508V266.697H224.525V265.024Z" fill="#CFDAE5"/>
    <path d="M209.419 244.666H205.672V246.339H209.419V244.666Z" fill="#CFDAE5"/>
    <path d="M210.03 379.281H250.68C251.701 379.291 252.702 379 253.558 378.444L261.345 373.334C262.308 372.7 263.037 371.767 263.418 370.679C263.799 369.591 263.811 368.407 263.453 367.311L241.965 301.894C241.616 300.84 240.943 299.923 240.042 299.276C239.14 298.628 238.056 298.283 236.946 298.289H199.951C201.063 327.046 204.024 354.372 210.03 379.281Z" fill="white"/>
    <path d="M210.03 379.991H252.244C253.733 378.786 264.272 371.51 263.712 369.419C259.329 371.234 254.996 370.615 250.68 366.909C247.486 364.071 245.218 360.338 244.173 356.195L231.442 308.184C230.907 306.193 229.401 304.838 227.704 304.838H199.984C200.795 331.553 205.521 356.889 210.03 379.991Z" fill="#0A132C"/>
    <path d="M245.125 330.9L243.527 331.395L245.582 338.034L247.18 337.54L245.125 330.9Z" fill="#0A132C"/>
    <path d="M256.301 62.9759V65.9954L254.695 70.7463L248.188 89.9842H208.039L210.548 80.2983L215.224 61.9805L216.571 56.6943C216.929 55.2964 217.743 54.0575 218.883 53.1731C220.023 52.2886 221.426 51.8089 222.869 51.8096H245.143C248.101 51.8184 250.935 52.998 253.026 55.0904C255.117 57.1828 256.295 60.0179 256.301 62.9759Z" fill="#CFDAE5"/>
    <path d="M242.257 327.162L235.942 306.753C235.509 305.285 234.612 303.997 233.384 303.083C232.156 302.169 230.665 301.678 229.134 301.685H200.076V300.012H229.117C231 300.011 232.832 300.62 234.34 301.748C235.848 302.876 236.95 304.462 237.481 306.268L243.797 326.669L242.257 327.162Z" fill="#0A132C"/>
    <path d="M291.013 315.184H304.848C305.406 315.184 305.95 315.362 306.401 315.691C306.852 316.02 307.187 316.484 307.357 317.016L310.904 328.316C311.078 328.866 311.065 329.459 310.869 330.002C310.672 330.544 310.302 331.007 309.816 331.319L284.163 347.663C283.637 347.991 283.012 348.122 282.399 348.031C281.786 347.941 281.226 347.635 280.817 347.169C280.425 346.718 279.89 346.414 279.301 346.309C278.712 346.204 278.104 346.304 277.58 346.592L268.103 351.677C267.719 351.887 267.287 351.996 266.849 351.995H252.73C252.173 351.998 251.63 351.823 251.179 351.497C250.728 351.171 250.392 350.71 250.22 350.18L247.853 342.803C247.673 342.238 247.689 341.63 247.899 341.075C248.108 340.521 248.499 340.054 249.008 339.75L289.616 315.494C290.044 315.263 290.528 315.156 291.013 315.184Z" fill="white"/>
    <path d="M265.1 341.691H247.226V340.018H264.624L306.295 314.474L307.173 315.896L265.1 341.691Z" fill="#0A132C"/>
    <path d="M251.575 352.03H266.196C266.353 352.03 266.509 351.994 266.651 351.926C266.793 351.858 266.917 351.759 267.015 351.636C267.113 351.513 267.182 351.369 267.217 351.216C267.252 351.062 267.252 350.903 267.217 350.75L265.084 341.641C265.034 341.406 264.906 341.196 264.721 341.043C264.535 340.891 264.303 340.807 264.063 340.805H248.69C248.524 340.804 248.361 340.843 248.214 340.918C248.066 340.993 247.939 341.102 247.841 341.236C247.744 341.37 247.68 341.525 247.655 341.689C247.629 341.852 247.643 342.019 247.694 342.176L250.605 351.268C250.666 351.481 250.793 351.669 250.967 351.806C251.141 351.942 251.354 352.021 251.575 352.03Z" fill="#0A132C"/>
    <path d="M303.919 325.247L290.319 333.034V338.412L306.111 329.078L303.919 325.247Z" fill="#0A132C"/>
    <path d="M305.675 328.349L275.215 346.869L276.084 348.299L306.544 329.778L305.675 328.349Z" fill="#0A132C"/>
    <path d="M236.946 371.652H226.909V369.979H236.946C237.416 369.98 237.88 369.872 238.301 369.663C238.722 369.455 239.089 369.151 239.373 368.777C239.657 368.402 239.85 367.967 239.937 367.505C240.024 367.043 240.002 366.567 239.874 366.115L225.429 314.8C225.248 314.16 224.864 313.597 224.334 313.195C223.804 312.793 223.158 312.576 222.493 312.575H208.273V310.902H222.493C223.52 310.905 224.519 311.242 225.339 311.862C226.158 312.482 226.753 313.352 227.035 314.34L241.488 365.655C241.686 366.357 241.718 367.094 241.583 367.81C241.448 368.527 241.148 369.202 240.708 369.783C240.268 370.364 239.7 370.835 239.047 371.159C238.394 371.484 237.675 371.652 236.946 371.652Z" fill="#CFDAE5"/>
    <path d="M230.857 330.182H209.946V331.855H230.857V330.182Z" fill="#CFDAE5"/>
    <path d="M266.849 352.865H252.73C251.996 352.869 251.281 352.638 250.688 352.206C250.095 351.775 249.656 351.164 249.434 350.465L247.067 343.088C246.827 342.344 246.847 341.54 247.123 340.809C247.4 340.078 247.917 339.463 248.589 339.064L289.198 314.808C289.735 314.49 290.347 314.322 290.971 314.323H304.806C305.55 314.309 306.279 314.538 306.882 314.973C307.485 315.409 307.931 316.029 308.152 316.74L311.707 328.04C311.935 328.767 311.918 329.549 311.656 330.265C311.394 330.98 310.903 331.589 310.26 331.997L284.573 348.332C283.872 348.775 283.037 348.954 282.216 348.836C281.396 348.718 280.645 348.311 280.098 347.688C279.83 347.383 279.467 347.177 279.067 347.106C278.667 347.035 278.255 347.101 277.898 347.295L268.505 352.414C268 352.701 267.43 352.857 266.849 352.865ZM290.971 316.063C290.648 316.061 290.329 316.147 290.051 316.313L249.451 340.57C249.103 340.776 248.835 341.095 248.692 341.473C248.55 341.852 248.54 342.268 248.665 342.653L251.023 350.03C251.138 350.385 251.361 350.695 251.661 350.917C251.961 351.139 252.323 351.262 252.696 351.268H266.815C267.108 351.265 267.395 351.191 267.652 351.05L277.045 345.931C277.738 345.557 278.537 345.429 279.313 345.569C280.088 345.708 280.792 346.108 281.311 346.701C281.594 347.021 281.981 347.23 282.404 347.291C282.826 347.352 283.257 347.262 283.619 347.036L309.273 330.692C309.604 330.479 309.856 330.163 309.991 329.793C310.125 329.423 310.134 329.018 310.017 328.642L306.462 317.342C306.35 316.985 306.128 316.672 305.827 316.449C305.527 316.225 305.164 316.102 304.789 316.096L290.971 316.063Z" fill="#0A132C"/>
    <path d="M301.929 418.768H261.78V420.44H301.929V418.768Z" fill="#0A132C"/>
    <path d="M288.964 439.746H253.809V441.419H288.964V439.746Z" fill="#0A132C"/>
    <path d="M254.386 336.982L253.549 335.543C253.507 335.566 253.47 335.597 253.441 335.635C254.746 333.804 254.754 311.73 254.093 291.882L255.766 291.823C255.766 291.932 256.126 302.697 256.184 313.52C256.285 335.844 255.097 336.555 254.386 336.982Z" fill="#0A132C"/>
    <path d="M348.117 261.846H333.061L332.417 271.322L337.251 273.706L332.417 335.92C344.127 325.247 353.403 287.273 348.117 261.846Z" fill="#0A132C"/>
    <path d="M187.538 146.36H187.296L170.91 146.084C170.011 146.074 169.128 145.845 168.337 145.418C167.546 144.992 166.87 144.379 166.368 143.634C165.861 142.883 165.541 142.022 165.435 141.123C165.328 140.224 165.439 139.312 165.757 138.464C179.082 103 201.364 87.9441 201.59 87.8019L201.808 87.6514L242.425 88.3038L238.151 89.8763C218.336 97.0863 206.776 122.171 201.649 136.49C200.599 139.388 198.68 141.89 196.154 143.657C193.629 145.423 190.62 146.367 187.538 146.36ZM202.293 89.3242C200.026 90.9302 179.709 105.944 167.305 139.042C167.077 139.639 166.998 140.283 167.073 140.918C167.149 141.554 167.378 142.161 167.74 142.688C168.092 143.209 168.565 143.637 169.118 143.936C169.672 144.235 170.289 144.395 170.918 144.403L187.304 144.679H187.538C190.282 144.687 192.961 143.845 195.207 142.27C197.454 140.694 199.157 138.462 200.085 135.88C204.994 122.187 215.718 98.7926 233.943 89.8261L202.293 89.3242Z" fill="#0A132C"/>
    <path d="M164.996 193.51L163.323 193.393C163.323 193.092 165.548 162.821 178.981 145.014L180.311 146.026C167.221 163.432 165.013 193.209 164.996 193.51Z" fill="#0A132C"/>
    <path d="M182.946 174.079C185.482 174.079 187.538 172.024 187.538 169.488C187.538 166.951 185.482 164.896 182.946 164.896C180.41 164.896 178.354 166.951 178.354 169.488C178.354 172.024 180.41 174.079 182.946 174.079Z" fill="#0A132C"/>
    <path d="M178.354 188.709C180.89 188.709 182.946 186.653 182.946 184.117C182.946 181.581 180.89 179.525 178.354 179.525C175.818 179.525 173.762 181.581 173.762 184.117C173.762 186.653 175.818 188.709 178.354 188.709Z" fill="#0A132C"/>
    <path d="M256.301 61.1279H215.191V62.8008H256.301V61.1279Z" fill="#0A132C"/>
    <path d="M88.6048 319.518H182.795V478.355H68.6726V339.416C68.6815 334.136 70.7854 329.074 74.5224 325.344C78.2595 321.613 83.3242 319.518 88.6048 319.518Z" fill="#8BA0B8"/>
    <path d="M68.6726 459.143C68.6726 459.143 89.207 482.638 103.945 459.143C107.831 452.803 109.86 445.5 109.8 438.065V437.588H182.77V478.38H68.6726V459.143Z" fill="#0A132C"/>
    <path d="M70.7888 346.442H182.795V427.024H68.6726V348.559C68.6726 347.997 68.8956 347.459 69.2924 347.062C69.6893 346.665 70.2275 346.442 70.7888 346.442Z" fill="white"/>
    <path d="M75.2722 361.063V418.994H138.507V361.063C125.408 357.182 116.642 349.52 94.4684 359.198C83.5195 362.736 79.8391 365.513 75.2722 361.063Z" fill="#0A132C"/>
    <path d="M75.2722 361.063V418.994H138.507V361.063C126.152 367.369 114.058 372.404 104.38 365.512C96.5846 360.251 85.8531 360.803 75.2722 361.063Z" fill="#00BABA"/>
    <path d="M183.632 479.192H67.8364V336.263C67.8431 331.593 69.701 327.116 73.0031 323.814C76.3051 320.512 80.7818 318.654 85.4516 318.647H183.632V479.192ZM69.5093 477.519H181.959V320.32H85.4516C81.2248 320.325 77.1724 322.006 74.1836 324.995C71.1948 327.983 69.5137 332.036 69.5093 336.263V477.519Z" fill="#0A132C"/>
    <path d="M182.795 335.427H68.6726V337.1H182.795V335.427Z" fill="#0A132C"/>
    <path d="M182.795 345.605H68.6726V347.278H182.795V345.605Z" fill="#0A132C"/>
    <path d="M182.795 436.734H68.6726V438.407H182.795V436.734Z" fill="#0A132C"/>
    <path d="M182.795 426.037H68.6726V428.546H182.795V426.037Z" fill="#0A132C"/>
    <path d="M87.6013 395.875C86.6038 395.873 85.6477 395.476 84.9423 394.77C84.2369 394.065 83.8396 393.109 83.8374 392.111V357.182C83.8374 356.184 84.2339 355.226 84.9398 354.52C85.6457 353.815 86.6031 353.418 87.6013 353.418C88.5996 353.418 89.5569 353.815 90.2628 354.52C90.9687 355.226 91.3653 356.184 91.3653 357.182V392.111C91.3653 393.109 90.9687 394.067 90.2628 394.773C89.5569 395.478 88.5996 395.875 87.6013 395.875Z" fill="white"/>
    <path d="M87.6011 410.739C90.1049 410.739 92.1346 408.709 92.1346 406.205C92.1346 403.702 90.1049 401.672 87.6011 401.672C85.0973 401.672 83.0676 403.702 83.0676 406.205C83.0676 408.709 85.0973 410.739 87.6011 410.739Z" fill="white"/>
    <path d="M100.716 380.711C101.626 380.711 102.364 379.973 102.364 379.063C102.364 378.153 101.626 377.415 100.716 377.415C99.8063 377.415 99.0686 378.153 99.0686 379.063C99.0686 379.973 99.8063 380.711 100.716 380.711Z" fill="white"/>
    <path d="M97.6049 403.654C98.7737 403.654 99.7211 402.707 99.7211 401.538C99.7211 400.369 98.7737 399.422 97.6049 399.422C96.4362 399.422 95.4888 400.369 95.4888 401.538C95.4888 402.707 96.4362 403.654 97.6049 403.654Z" fill="white"/>
    <path d="M101.829 408.848C102.656 408.848 103.326 408.178 103.326 407.351C103.326 406.524 102.656 405.854 101.829 405.854C101.002 405.854 100.332 406.524 100.332 407.351C100.332 408.178 101.002 408.848 101.829 408.848Z" fill="white"/>
    <path d="M86.2796 437.562L75.7322 437.68C75.8233 440.425 76.9818 443.027 78.9614 444.931C80.941 446.835 83.5855 447.892 86.3324 447.877C89.0793 447.862 91.7118 446.776 93.6701 444.849C95.6285 442.923 96.758 440.309 96.8186 437.562H86.2796Z" fill="#0A132C"/>
    <path d="M172.758 480.338H119.72C116.836 480.338 114.07 479.192 112.031 477.153C109.992 475.114 108.846 472.348 108.846 469.464V405.21C108.846 402.326 109.992 399.56 112.031 397.521C114.07 395.482 116.836 394.336 119.72 394.336H172.758C175.642 394.336 178.408 395.482 180.447 397.521C182.486 399.56 183.632 402.326 183.632 405.21V469.439C183.635 470.869 183.356 472.286 182.811 473.608C182.266 474.93 181.466 476.131 180.456 477.144C179.446 478.156 178.246 478.959 176.925 479.507C175.604 480.055 174.188 480.338 172.758 480.338ZM119.72 396.009C117.28 396.009 114.94 396.978 113.214 398.704C111.489 400.429 110.519 402.769 110.519 405.21V469.439C110.519 471.879 111.489 474.219 113.214 475.945C114.94 477.67 117.28 478.64 119.72 478.64H172.758C175.198 478.64 177.539 477.67 179.264 475.945C180.99 474.219 181.959 471.879 181.959 469.439V405.21C181.959 402.769 180.99 400.429 179.264 398.704C177.539 396.978 175.198 396.009 172.758 396.009H119.72Z" fill="#0A132C"/>
    <path d="M156.139 452.835C156.139 452.835 131.481 492.407 109.683 464.018V469.556C109.683 472.193 110.731 474.723 112.596 476.588C114.461 478.453 116.991 479.501 119.628 479.501H173.545C176.182 479.501 178.712 478.453 180.577 476.588C182.442 474.723 183.49 472.193 183.49 469.556V451.689L156.139 452.835Z" fill="#0A132C"/>
    <path d="M172.758 395.197H119.72C114.177 395.197 109.683 399.691 109.683 405.234V469.472C109.683 475.015 114.177 479.509 119.72 479.509H172.758C178.302 479.509 182.796 475.015 182.796 469.472V405.234C182.796 399.691 178.302 395.197 172.758 395.197Z" fill="#8BA0B8"/>
    <path d="M254.695 70.7471L248.188 89.985H208.039L210.548 80.2991C221.481 90.2191 237.891 89.09 243.345 76.3261C247.209 67.1588 252.186 68.9655 254.695 70.7471Z" fill="#0A132C"/>
    <path d="M217.282 54.9218L208.081 89.9598L197.843 88.4876L191.344 84.3055L182.143 78.4505C178.99 49.485 204.651 46.7666 204.651 46.7666L216.847 54.6039L217.282 54.9218Z" fill="#CFDAE5"/>
    <path d="M217.282 54.9222L208.282 89.0401L197.801 88.4965L191.302 84.3143C198.73 84.7242 204.994 82.2985 204.593 72.7633C203.874 55.8005 212.38 54.2531 216.788 54.5793L217.282 54.9222Z" fill="#0A132C"/>
    <path d="M171.905 206.574L116.5 251.373C109.449 246.949 103.694 471.705 195.886 478.045L259.112 477.903C251.475 483.616 173.796 438.223 184.26 256.802C182.26 280.827 182.967 305.001 186.367 328.868C186.618 337.392 179.935 343.732 171.905 340.863C166.092 338.788 161.868 336.279 162.362 320.931L171.905 206.574Z" fill="#0A132C"/>
    <path d="M208.917 89.8763L197.542 89.2825L181.298 78.9108V78.5176C180.278 69.1329 182.135 61.4545 186.76 55.6915C193.644 47.1516 204.108 45.9555 204.551 45.9053H204.844L218.244 54.5456L208.917 89.8763ZM198.044 87.6347L207.621 88.1366L216.295 55.2649L204.376 47.6116C202.703 47.8625 193.811 49.5103 187.981 56.7537C183.699 62.0818 181.976 69.1998 182.854 77.9321L198.044 87.6347Z" fill="#0A132C"/>
    <path d="M128.419 265.317C125.901 265.309 123.437 264.591 121.309 263.246C119.181 261.9 117.475 259.981 116.389 257.71C115.302 255.439 114.878 252.907 115.165 250.406C115.453 247.905 116.44 245.535 118.014 243.57C118.215 243.319 138.239 218.368 146.453 201.313C147.994 198.116 150.743 195.661 154.095 194.49C157.446 193.319 161.125 193.528 164.323 195.069C167.521 196.611 169.975 199.36 171.146 202.711C172.317 206.063 172.109 209.742 170.567 212.94C160.998 232.78 139.744 259.244 138.841 260.365C137.583 261.916 135.994 263.165 134.191 264.022C132.388 264.879 130.416 265.321 128.419 265.317Z" fill="#CFDAE5"/>
    <path d="M128.419 266.154C125.737 266.152 123.11 265.391 120.842 263.959C118.574 262.528 116.757 260.484 115.601 258.064C114.445 255.645 113.996 252.947 114.308 250.283C114.619 247.619 115.678 245.098 117.361 243.01C117.562 242.759 137.503 217.917 145.708 200.921C147.345 197.523 150.265 194.916 153.825 193.671C157.385 192.426 161.293 192.647 164.691 194.284C168.088 195.921 170.696 198.841 171.941 202.401C173.186 205.96 172.965 209.869 171.328 213.266C161.726 233.173 140.38 259.73 139.502 260.851C138.172 262.511 136.485 263.85 134.566 264.768C132.647 265.686 130.546 266.16 128.419 266.154ZM158.531 194.547C156.166 194.542 153.849 195.206 151.845 196.46C149.841 197.715 148.233 199.511 147.205 201.64C138.924 218.829 118.859 243.813 118.649 244.064C117.593 245.344 116.802 246.821 116.321 248.41C115.84 249.998 115.679 251.666 115.847 253.318C116.015 254.969 116.509 256.57 117.301 258.029C118.092 259.488 119.165 260.775 120.458 261.817C121.75 262.858 123.236 263.632 124.83 264.095C126.424 264.558 128.094 264.7 129.743 264.513C131.392 264.326 132.988 263.813 134.437 263.005C135.887 262.197 137.162 261.11 138.189 259.805C139.092 258.693 160.295 232.27 169.814 212.539C170.735 210.628 171.156 208.514 171.038 206.396C170.92 204.278 170.267 202.225 169.14 200.428C168.013 198.63 166.448 197.148 164.593 196.12C162.738 195.092 160.652 194.551 158.531 194.547Z" fill="#0A132C"/>
    <path d="M155.379 214.469C160.566 207.823 163.061 201.102 160.953 199.456C158.844 197.81 152.93 201.864 147.743 208.51C142.556 215.156 140.061 221.878 142.169 223.524C144.278 225.169 150.192 221.115 155.379 214.469Z" fill="white"/>
    <path d="M165.322 221.631C165.264 221.514 159.827 209.185 143.408 207.788L143.55 206.115C161.006 207.604 166.803 220.845 166.861 220.979L165.322 221.631Z" fill="#0A132C"/>
    <path d="M146.001 279.569C143.941 282.55 142.572 285.953 141.993 289.53C141.414 293.106 141.64 296.767 142.655 300.246L146.62 313.26L147.456 316.104L151.747 330.165C152.548 332.792 152.823 335.55 152.558 338.284C152.293 341.017 151.491 343.671 150.2 346.095C148.909 348.519 147.153 350.664 145.032 352.409C142.912 354.154 140.468 355.465 137.841 356.265C135.215 357.066 132.456 357.342 129.722 357.076C126.989 356.811 124.335 356.01 121.911 354.718C119.487 353.427 117.342 351.671 115.597 349.551C113.852 347.43 112.541 344.987 111.741 342.36L107.257 327.655L106.588 325.447L102.523 312.115C99.5735 302.125 99.0271 291.58 100.928 281.34C102.83 271.099 107.125 261.453 113.464 253.188C113.949 252.544 114.451 251.917 114.969 251.298L115.346 250.838L122.798 241.42C124.481 239.21 126.588 237.359 128.995 235.972C131.401 234.586 134.06 233.693 136.815 233.346C139.571 232.998 142.368 233.203 145.044 233.949C147.719 234.694 150.219 235.965 152.398 237.687C154.577 239.41 156.391 241.549 157.734 243.98C159.077 246.411 159.923 249.085 160.221 251.846C160.52 254.607 160.265 257.4 159.472 260.062C158.679 262.724 157.364 265.201 155.603 267.349L147.473 277.604L147.272 277.846C146.837 278.406 146.402 278.984 146.001 279.569Z" fill="#00BABA"/>
    <path d="M115.772 314.666C115.055 314.665 114.363 314.4 113.828 313.922C113.293 313.444 112.952 312.786 112.87 312.074L110.218 289.005C109.067 279.052 111.76 269.035 117.746 261.001L135.612 236.87C135.838 236.552 136.124 236.281 136.455 236.075C136.786 235.868 137.156 235.73 137.541 235.669C137.926 235.607 138.32 235.623 138.699 235.716C139.078 235.808 139.435 235.976 139.748 236.208C140.061 236.441 140.325 236.734 140.524 237.07C140.722 237.405 140.852 237.778 140.904 238.164C140.957 238.551 140.932 238.944 140.83 239.321C140.729 239.698 140.553 240.05 140.313 240.358L122.447 264.489C117.358 271.334 115.075 279.864 116.065 288.336L118.717 311.404C118.762 311.786 118.732 312.173 118.627 312.543C118.522 312.913 118.346 313.259 118.107 313.561C117.868 313.862 117.573 314.114 117.237 314.301C116.9 314.488 116.531 314.606 116.149 314.65C116.024 314.665 115.898 314.671 115.772 314.666Z" fill="white"/>
    <path d="M127.558 350.148C127.032 350.15 126.515 350.01 126.063 349.742C125.611 349.474 125.24 349.088 124.99 348.625C119.603 338.789 116.048 322.755 115.906 322.077C115.804 321.695 115.78 321.296 115.836 320.905C115.892 320.513 116.027 320.137 116.233 319.799C116.438 319.461 116.71 319.168 117.032 318.938C117.354 318.708 117.72 318.546 118.106 318.461C118.492 318.376 118.892 318.37 119.281 318.444C119.669 318.518 120.039 318.67 120.367 318.891C120.696 319.111 120.976 319.396 121.191 319.728C121.406 320.061 121.552 320.433 121.619 320.823C121.619 320.982 125.14 336.715 130.125 345.815C130.498 346.496 130.585 347.297 130.367 348.042C130.149 348.787 129.644 349.415 128.963 349.788C128.533 350.027 128.049 350.151 127.558 350.148Z" fill="white"/>
    <path d="M114.66 329.094L114.057 330.658C112.318 329.989 109.825 328.927 107.282 327.672L106.613 325.464C109.231 326.812 111.917 328.023 114.66 329.094Z" fill="#0A132C"/>
    <path d="M147.481 316.105C146.135 319.928 143.4 325.498 138.163 329.187C134.563 331.694 130.263 333 125.876 332.918C124.171 332.913 122.469 332.759 120.791 332.458L121.084 330.785C127.39 331.889 132.794 330.885 137.185 327.807C143.19 323.625 145.733 316.448 146.611 313.236L147.481 316.105Z" fill="#0A132C"/>
    <path d="M147.297 277.854C146.837 278.406 146.402 278.984 146.001 279.527C144.663 274.358 140.664 262.439 131.271 256.425C126.203 253.18 120.23 252.084 113.489 253.146C113.974 252.502 114.476 251.875 114.994 251.256C120.988 250.469 127.067 251.8 132.183 255.02C141.451 260.992 145.641 271.983 147.297 277.854Z" fill="#0A132C"/>
    <path d="M131.757 358.018C127.091 358.036 122.546 356.544 118.798 353.766C115.05 350.988 112.302 347.072 110.963 342.603L101.762 312.357C98.8086 302.236 98.2736 291.563 100.2 281.197C102.126 270.831 106.461 261.063 112.853 252.678C113.322 252.059 113.823 251.424 114.384 250.763C114.501 250.612 114.626 250.453 114.76 250.303L122.196 240.901C123.96 238.64 126.154 236.751 128.651 235.341C131.148 233.931 133.9 233.029 136.747 232.687C139.594 232.344 142.481 232.569 145.241 233.347C148.002 234.124 150.581 235.44 152.83 237.219C155.08 238.998 156.955 241.204 158.349 243.71C159.743 246.216 160.627 248.973 160.951 251.823C161.275 254.672 161.032 257.557 160.236 260.313C159.44 263.068 158.107 265.638 156.314 267.876L147.95 278.373C147.507 278.909 147.113 279.461 146.687 280.046C144.693 282.923 143.368 286.208 142.808 289.663C142.248 293.117 142.467 296.653 143.45 300.012L152.567 329.922C154.248 335.44 153.669 341.399 150.957 346.489C148.245 351.579 143.622 355.383 138.105 357.065C136.047 357.691 133.908 358.012 131.757 358.018ZM139.284 234.31C138.491 234.309 137.698 234.354 136.909 234.444C134.292 234.754 131.762 235.578 129.465 236.87C127.168 238.162 125.15 239.896 123.526 241.972L116.073 251.39C115.94 251.549 115.823 251.691 115.705 251.85C115.145 252.511 114.66 253.122 114.208 253.724C107.974 261.898 103.748 271.424 101.871 281.531C99.9934 291.639 100.518 302.046 103.401 311.914L112.602 342.151C113.841 346.274 116.38 349.886 119.839 352.448C123.298 355.011 127.493 356.387 131.798 356.37C134.936 356.367 138.029 355.63 140.83 354.219C143.632 352.807 146.064 350.76 147.934 348.24C149.803 345.721 151.057 342.799 151.596 339.709C152.135 336.618 151.943 333.444 151.036 330.441L141.911 300.522C140.858 296.923 140.622 293.134 141.221 289.432C141.82 285.73 143.239 282.209 145.374 279.126C145.8 278.507 146.21 277.913 146.72 277.353L146.913 277.119L155.043 266.873C157.381 263.917 158.84 260.362 159.253 256.616C159.665 252.869 159.015 249.083 157.376 245.689C155.737 242.295 153.176 239.431 149.985 237.424C146.795 235.418 143.104 234.35 139.335 234.344L139.284 234.31Z" fill="#0A132C"/>
    <path d="M201.18 470.134C203.661 470.134 205.672 468.123 205.672 465.642C205.672 463.161 203.661 461.15 201.18 461.15C198.7 461.15 196.689 463.161 196.689 465.642C196.689 468.123 198.7 470.134 201.18 470.134Z" fill="#00BABA"/>
    <path d="M214.521 470.134C217.002 470.134 219.013 468.123 219.013 465.642C219.013 463.161 217.002 461.15 214.521 461.15C212.041 461.15 210.03 463.161 210.03 465.642C210.03 468.123 212.041 470.134 214.521 470.134Z" fill="#00BABA"/>
    <path d="M176.288 370.815C180.801 370.815 184.46 367.157 184.46 362.644C184.46 358.13 180.801 354.472 176.288 354.472C171.775 354.472 168.116 358.13 168.116 362.644C168.116 367.157 171.775 370.815 176.288 370.815Z" fill="#00BABA"/>
    <path d="M123.158 446.404C122.16 446.402 121.204 446.004 120.499 445.299C119.793 444.594 119.396 443.637 119.394 442.64V407.719C119.394 406.721 119.79 405.763 120.496 405.057C121.202 404.352 122.159 403.955 123.158 403.955C124.156 403.955 125.113 404.352 125.819 405.057C126.525 405.763 126.922 406.721 126.922 407.719V442.648C126.919 443.645 126.522 444.6 125.816 445.304C125.111 446.008 124.155 446.404 123.158 446.404Z" fill="white"/>
    <path d="M123.158 469.406C122.16 469.404 121.204 469.007 120.499 468.301C119.793 467.596 119.396 466.64 119.394 465.642V454.769C119.394 453.771 119.79 452.813 120.496 452.107C121.202 451.401 122.159 451.005 123.158 451.005C124.156 451.005 125.113 451.401 125.819 452.107C126.525 452.813 126.922 453.771 126.922 454.769V465.642C126.922 466.641 126.525 467.598 125.819 468.304C125.113 469.01 124.156 469.406 123.158 469.406Z" fill="white"/>
    <path d="M322.664 478.038H65.8959C61.9647 478.038 58.7778 481.225 58.7778 485.156V491.321C58.7778 495.252 61.9647 498.438 65.8959 498.438H322.664C326.595 498.438 329.782 495.252 329.782 491.321V485.156C329.782 481.225 326.595 478.038 322.664 478.038Z" fill="#8BA0B8"/>
    <path d="M139.468 478.038H89.3409C85.4098 478.038 82.2229 481.225 82.2229 485.156V491.321C82.2229 495.252 85.4098 498.438 89.3409 498.438H139.468C143.4 498.438 146.586 495.252 146.586 491.321V485.156C146.586 481.225 143.4 478.038 139.468 478.038Z" fill="#869CB7"/>
    <path d="M322.664 499.266H65.879C63.7701 499.264 61.7481 498.425 60.2568 496.934C58.7655 495.442 57.9268 493.42 57.9246 491.311V485.147C57.929 483.039 58.7685 481.018 60.2593 479.527C61.7501 478.036 63.7707 477.197 65.879 477.192H322.664C324.773 477.195 326.795 478.033 328.286 479.525C329.777 481.016 330.616 483.038 330.618 485.147V491.311C330.618 493.421 329.78 495.444 328.289 496.936C326.797 498.428 324.773 499.266 322.664 499.266ZM65.879 478.865C64.2137 478.867 62.6173 479.53 61.4398 480.708C60.2622 481.885 59.5996 483.482 59.5974 485.147V491.311C59.5996 492.977 60.2622 494.573 61.4398 495.751C62.6173 496.928 64.2137 497.591 65.879 497.593H322.664C324.33 497.593 325.928 496.931 327.106 495.753C328.284 494.575 328.945 492.977 328.945 491.311V485.147C328.945 483.481 328.284 481.883 327.106 480.705C325.928 479.527 324.33 478.865 322.664 478.865H65.879Z" fill="#0A132C"/>
    <path d="M329.782 487.397H58.7778V489.07H329.782V487.397Z" fill="#0A132C"/>
    <path d="M214.521 477.979L238.778 498.421H322.154C323.161 498.422 324.159 498.224 325.09 497.839C326.021 497.454 326.867 496.889 327.58 496.177C328.292 495.464 328.857 494.618 329.242 493.687C329.627 492.756 329.825 491.758 329.824 490.751V485.649C329.824 483.614 329.016 481.663 327.577 480.225C326.139 478.787 324.188 477.979 322.154 477.979H214.521Z" fill="#0A132C"/>
    <path d="M322.664 513.878H65.8959C61.9647 513.878 58.7778 517.065 58.7778 520.996V527.16C58.7778 531.092 61.9647 534.278 65.8959 534.278H322.664C326.595 534.278 329.782 531.092 329.782 527.16V520.996C329.782 517.065 326.595 513.878 322.664 513.878Z" fill="#8BA0B8"/>
    <path d="M139.468 513.878H89.3409C85.4098 513.878 82.2229 517.065 82.2229 520.996V527.16C82.2229 531.092 85.4098 534.278 89.3409 534.278H139.468C143.4 534.278 146.586 531.092 146.586 527.16V520.996C146.586 517.065 143.4 513.878 139.468 513.878Z" fill="#869CB7"/>
    <path d="M322.664 535.115H65.879C63.7707 535.111 61.7501 534.271 60.2593 532.781C58.7685 531.29 57.929 529.269 57.9246 527.161V520.996C57.929 518.888 58.7685 516.867 60.2593 515.377C61.7501 513.886 63.7707 513.046 65.879 513.042H322.664C324.773 513.044 326.795 513.883 328.286 515.374C329.777 516.866 330.616 518.887 330.618 520.996V527.161C330.616 529.27 329.777 531.292 328.286 532.783C326.795 534.274 324.773 535.113 322.664 535.115ZM65.879 514.715C64.2137 514.717 62.6173 515.38 61.4398 516.557C60.2622 517.735 59.5996 519.331 59.5974 520.996V527.161C59.5996 528.826 60.2622 530.423 61.4398 531.6C62.6173 532.778 64.2137 533.44 65.879 533.443H322.664C324.33 533.443 325.928 532.781 327.106 531.603C328.284 530.425 328.945 528.827 328.945 527.161V520.996C328.945 519.33 328.284 517.733 327.106 516.555C325.928 515.377 324.33 514.715 322.664 514.715H65.879Z" fill="#0A132C"/>
    <path d="M329.782 523.246H58.7778V524.919H329.782V523.246Z" fill="#0A132C"/>
    <path d="M173.327 512.901L152.317 535.038H362.499C364.538 535.036 366.492 534.16 367.933 532.603C369.374 531.045 370.185 528.934 370.187 526.732V521.171C370.185 518.969 369.374 516.858 367.933 515.301C366.492 513.743 364.538 512.868 362.499 512.865L173.327 512.901Z" fill="#0A132C"/>
    <path d="M510.928 528.884H427.327C425.363 528.884 423.772 530.475 423.772 532.439V532.447C423.772 534.41 425.363 536.002 427.327 536.002H510.928C512.891 536.002 514.483 534.41 514.483 532.447V532.439C514.483 530.475 512.891 528.884 510.928 528.884Z" fill="#0A132C"/>
    <path d="M437.43 504.368H377.216C375.252 504.368 373.661 505.96 373.661 507.923V507.931C373.661 509.895 375.252 511.486 377.216 511.486H437.43C439.394 511.486 440.985 509.895 440.985 507.931V507.923C440.985 505.96 439.394 504.368 437.43 504.368Z" fill="#0A132C"/>
    <path d="M382.795 487.64H343.558C341.594 487.64 340.003 489.231 340.003 491.194V491.203C340.003 493.166 341.594 494.758 343.558 494.758H382.795C384.758 494.758 386.35 493.166 386.35 491.203V491.194C386.35 489.231 384.758 487.64 382.795 487.64Z" fill="#0A132C"/>
    <path d="M337.853 510.432C328.903 510.432 321.626 503.456 321.626 494.883V491.194H324.972V494.883C324.972 501.574 330.752 507.087 337.853 507.087C344.955 507.087 350.734 501.608 350.734 494.883V491.194H354.08V494.883C354.114 503.456 346.837 510.432 337.853 510.432Z" fill="#0A132C"/>
    <path d="M371.796 525.756C364.569 525.756 355.569 525.756 355.569 516.071H358.915C358.915 521.449 362.261 522.411 371.796 522.411C378.897 522.411 384.677 516.932 384.677 510.207V506.519H388.023V510.207C388.04 518.781 380.746 525.756 371.796 525.756Z" fill="#0A132C"/>
    <path d="M308.495 498.438H95.4888V513.886H308.495V498.438Z" fill="#0A132C"/>
    <path d="M102.339 511.168C103.235 511.168 103.962 510.442 103.962 509.546C103.962 508.649 103.235 507.923 102.339 507.923C101.443 507.923 100.717 508.649 100.717 509.546C100.717 510.442 101.443 511.168 102.339 511.168Z" fill="white"/>
    <path d="M100.491 170.392C100.407 170.935 100.349 171.487 100.315 172.064H55.9841C55.9841 171.504 55.9841 170.944 56.0594 170.392H100.491Z" fill="#0A132C"/>
    <path d="M127.315 153.444C127.315 153.444 127.725 152.717 128.285 151.487C128.921 151.428 129.557 151.37 130.201 151.328C129.766 152.337 129.281 153.322 128.745 154.281" fill="#0A132C"/>
    <path d="M130.201 151.354C129.557 151.396 128.921 151.454 128.285 151.513C130.15 147.331 133.822 137.16 130.519 126.972C128.093 119.511 122.439 113.439 113.681 108.888C114.518 108.713 115.421 108.554 116.291 108.403C124.421 113.054 129.732 119.11 132.116 126.47C135.437 136.658 132.242 146.57 130.201 151.354Z" fill="#0A132C"/>
    <path d="M61.9812 170.392H78.2164V174.139C78.2164 175.354 77.7334 176.52 76.8738 177.38C76.0142 178.239 74.8484 178.722 73.6327 178.722H66.5816C65.9782 178.725 65.3804 178.608 64.8224 178.378C64.2643 178.149 63.757 177.812 63.3296 177.386C62.9022 176.96 62.5631 176.454 62.3317 175.897C62.1003 175.34 61.9812 174.742 61.9812 174.139V170.392Z" fill="#0A132C"/>
    <path d="M71.2573 202.609C70.6228 202.609 70.0056 202.402 69.4988 202.02C68.9919 201.639 68.6227 201.103 68.4469 200.493C60.367 172.439 62.5918 150.893 74.9961 136.464C95.9906 112.074 138.046 117.294 139.82 117.528C140.205 117.573 140.577 117.695 140.915 117.885C141.252 118.075 141.549 118.331 141.787 118.637C142.025 118.943 142.2 119.293 142.302 119.667C142.404 120.041 142.43 120.431 142.379 120.816C142.329 121.2 142.203 121.571 142.008 121.906C141.813 122.241 141.554 122.534 141.245 122.768C140.936 123.002 140.584 123.173 140.208 123.27C139.833 123.367 139.442 123.388 139.058 123.333C138.657 123.274 98.3326 118.314 79.4209 140.295C68.38 153.134 66.5816 172.849 74.0677 198.845C74.2825 199.592 74.1926 200.393 73.818 201.073C73.4433 201.754 72.8143 202.258 72.0686 202.475C71.8054 202.556 71.5325 202.601 71.2573 202.609Z" fill="white"/>
    <path d="M79.8559 224.231C79.2693 224.233 78.6958 224.058 78.2107 223.728C77.7257 223.398 77.3516 222.929 77.1375 222.383L72.7044 211.158C72.457 210.446 72.4942 209.665 72.8082 208.979C73.1223 208.293 73.689 207.755 74.39 207.477C75.0911 207.199 75.8725 207.202 76.5714 207.486C77.2702 207.769 77.8326 208.312 78.1412 209L82.591 220.233C82.7314 220.592 82.7996 220.976 82.7914 221.361C82.7833 221.747 82.6991 222.127 82.5436 222.48C82.3882 222.832 82.1646 223.151 81.8857 223.417C81.6067 223.683 81.2779 223.892 80.9181 224.031C80.58 224.164 80.2196 224.232 79.8559 224.231Z" fill="white"/>
    <path d="M447.966 203.199C452.997 203.199 457.319 209.045 459.225 213.052H436.705C438.613 209.033 442.936 203.199 447.966 203.199Z" fill="white"/>
    <path d="M481.391 190.532C492.378 190.532 501.961 201.411 507.079 213.052H455.706C460.824 201.411 470.407 190.532 481.391 190.532Z" fill="white"/>
    <path d="M71.3961 304.171C65.6849 304.171 60.7789 308.448 58.613 311.382H84.1791C82.0132 308.451 77.1045 304.171 71.3961 304.171Z" fill="white"/>
    <path d="M19.6178 302.205C12.1452 302.205 5.73006 307.647 2.89209 311.383H36.3246C33.5028 307.65 27.0823 302.205 19.6178 302.205Z" fill="white"/>
    <path d="M44.848 294.994C36.156 294.994 28.5751 302.91 24.5249 311.383H65.1684C61.1208 302.91 53.5373 294.994 44.848 294.994Z" fill="white"/>
    <path d="M476.23 358.619C463.698 361.511 460.982 352.406 461.568 346.934C461.711 345.559 461.546 344.169 461.086 342.866C460.625 341.563 459.88 340.378 458.904 339.399C456.234 336.891 453.411 334.55 450.451 332.391L474.784 346.087L476.23 358.619Z" fill="#0A132C"/>
</svg>
