<svg width="33" height="26" viewBox="0 0 33 26" fill="none" xmlns="http://www.w3.org/2000/svg">
    <path d="M32.9785 25.125C28.5895 25.125 24.1998 25.1273 19.8096 25.1318C19.5108 25.1318 19.4455 25.0503 19.4455 24.7626C19.4558 20.7262 19.4455 16.6898 19.4532 12.6534C19.461 6.64782 23.5016 1.60493 29.3612 0.286663C30.5524 0.0178587 31.7659 -0.0164946 32.9785 0.00583458L32.9785 1.93728C32.3353 1.94759 31.6903 1.92698 31.0488 1.98451C26.0978 2.42766 22.0906 6.29828 21.4594 11.2476C21.4242 11.525 21.4766 11.6074 21.7771 11.6065C25.5112 11.5945 29.2444 11.5988 32.9785 11.5988L32.9785 25.125Z" fill="#EBEFF6"/>
    <path d="M0.000881925 11.6635C0.0867622 11.1482 0.152034 10.6261 0.251656 10.1116C1.23155 5.0447 5.35122 1.04526 10.4663 0.184737C11.4015 0.0275747 12.3462 0.00524341 13.2909 9.15744e-05C13.5021 9.1556e-05 13.5373 0.0756664 13.533 0.257732C13.5219 0.71891 13.5141 1.18094 13.533 1.64126C13.5451 1.89032 13.4635 1.947 13.2273 1.93841C11.8893 1.89289 10.565 2.0011 9.29399 2.45369C5.25761 3.90163 2.82806 6.73912 2.06029 10.9713C1.94865 11.5896 1.97441 11.5939 2.59704 11.5939C6.11756 11.5939 9.63866 11.5922 13.1603 11.5888C13.4334 11.5888 13.5399 11.63 13.5391 11.9443C13.5259 16.2263 13.5259 20.5083 13.5391 24.7903C13.5391 25.0557 13.4781 25.127 13.2076 25.127C8.80705 25.1178 4.40683 25.1155 0.0068903 25.1201L0.000881925 11.6635Z" fill="#EBEFF6"/>
</svg>
