<svg width="36" height="30" viewBox="0 0 36 30" fill="none" xmlns="http://www.w3.org/2000/svg">
<g filter="url(#filter0_d_8663_13837)">
<mask id="mask0_8663_13837" style="mask-type:alpha" maskUnits="userSpaceOnUse" x="2" y="2" width="32" height="26">
<rect x="2" y="2" width="32" height="26" rx="8" fill="#C4C4C4"/>
</mask>
<g mask="url(#mask0_8663_13837)">
<path d="M37.5114 2H-1.558C-2.47088 2 -3.34636 2.32327 -3.99186 2.89869C-4.63736 3.47412 -5 4.25455 -5 5.06832L-5 10.9467H40.9534V5.06832C40.9534 4.25455 40.5907 3.47412 39.9452 2.89869C39.2997 2.32327 38.4243 2 37.5114 2V2Z" fill="#00CC66"/>
<path d="M-5 25.7719C-5 26.5857 -4.63736 27.3661 -3.99186 27.9415C-3.34636 28.5169 -2.47088 28.8402 -1.558 28.8402H37.5114C38.4243 28.8402 39.2997 28.5169 39.9452 27.9415C40.5907 27.3661 40.9534 26.5857 40.9534 25.7719V19.8936H-5V25.7719Z" fill="#FF4B55"/>
<path d="M40.9534 10.9473H-5V19.8923H40.9534V10.9473Z" fill="#F5F5F5"/>
<path d="M0.265089 10.4724C0.298096 10.4724 0.329756 10.4607 0.353096 10.4399C0.376435 10.4191 0.389546 10.3909 0.389546 10.3614V10.1213C0.389546 10.0919 0.402656 10.0637 0.425995 10.0429C0.449335 10.0221 0.480988 10.0104 0.513995 10.0104H1.03039C1.0634 10.0104 1.09506 10.0221 1.11839 10.0429C1.14173 10.0637 1.15484 10.0919 1.15484 10.1213V10.3614C1.15484 10.3909 1.16795 10.4191 1.19129 10.4399C1.21463 10.4607 1.24629 10.4724 1.2793 10.4724H2.30837C2.34138 10.4724 2.37303 10.4607 2.39637 10.4399C2.41971 10.4191 2.43282 10.3909 2.43282 10.3614V9.8862C2.43282 9.85678 2.41971 9.82856 2.39637 9.80775C2.37303 9.78695 2.34138 9.77526 2.30837 9.77526H1.78826C1.75525 9.77526 1.7236 9.78695 1.70026 9.80775C1.67692 9.82856 1.66381 9.85678 1.66381 9.8862V9.8978C1.66381 9.92723 1.67692 9.95542 1.70026 9.97623C1.7236 9.99704 1.75525 10.0087 1.78826 10.0087H2.05203C2.08504 10.0087 2.11669 10.0204 2.14003 10.0412C2.16337 10.062 2.17648 10.0902 2.17648 10.1197V10.1313C2.17648 10.1607 2.16337 10.1889 2.14003 10.2097C2.11669 10.2305 2.08504 10.2422 2.05203 10.2422H1.53192C1.49891 10.2422 1.46726 10.2305 1.44392 10.2097C1.42058 10.1889 1.40747 10.1607 1.40747 10.1313V9.88454C1.40747 9.85511 1.39435 9.82689 1.37101 9.80608C1.34767 9.78528 1.31602 9.77359 1.28301 9.77359H0.265089C0.232081 9.77359 0.200428 9.78528 0.177089 9.80608C0.153749 9.82689 0.140639 9.85511 0.140639 9.88454V10.3598C0.140393 10.3745 0.14343 10.3891 0.149574 10.4028C0.155718 10.4164 0.164841 10.4288 0.176423 10.4393C0.188004 10.4498 0.20181 10.4581 0.217032 10.4638C0.232254 10.4695 0.248588 10.4724 0.265089 10.4724V10.4724ZM0.777768 10.4724C0.810776 10.4724 0.842428 10.4607 0.865768 10.4399C0.889108 10.4191 0.902225 10.3909 0.902225 10.3614C0.902225 10.3469 0.899006 10.3324 0.892751 10.319C0.886497 10.3055 0.877325 10.2933 0.865768 10.283C0.854211 10.2727 0.840492 10.2645 0.825393 10.2589C0.810293 10.2534 0.794112 10.2505 0.777768 10.2505V10.2505C0.761425 10.2505 0.745243 10.2534 0.730144 10.2589C0.715044 10.2645 0.701325 10.2727 0.689768 10.283C0.678212 10.2933 0.66904 10.3055 0.662785 10.319C0.656531 10.3324 0.653311 10.3469 0.653311 10.3614C0.653279 10.39 0.665622 10.4175 0.68777 10.4382C0.709918 10.4588 0.740167 10.4711 0.772199 10.4724H0.777768ZM0.265089 9.54013H3.3523C3.38531 9.54013 3.41697 9.52844 3.4403 9.50764C3.46364 9.48683 3.47675 9.45861 3.47675 9.42918V9.41759C3.47675 9.38816 3.46364 9.35994 3.4403 9.33913C3.41697 9.31833 3.38531 9.30664 3.3523 9.30664H0.265089C0.232081 9.30664 0.200428 9.31833 0.177089 9.33913C0.153749 9.35994 0.140639 9.38816 0.140639 9.41759V9.42918C0.140393 9.44389 0.14343 9.45848 0.149574 9.47214C0.155718 9.48579 0.164841 9.49822 0.176423 9.5087C0.188004 9.51918 0.20181 9.5275 0.217032 9.53318C0.232254 9.53886 0.248588 9.54177 0.265089 9.54177V9.54013ZM3.3523 10.4724H2.82848C2.79547 10.4724 2.76382 10.4607 2.74048 10.4399C2.71714 10.4191 2.70402 10.3909 2.70402 10.3614V9.8862C2.70402 9.85678 2.71714 9.82856 2.74048 9.80775C2.76382 9.78695 2.79547 9.77526 2.82848 9.77526H3.60492C3.63793 9.77526 3.66958 9.76357 3.69292 9.74277C3.71626 9.72196 3.72938 9.69374 3.72938 9.66431V9.41759C3.72938 9.38816 3.74249 9.35994 3.76583 9.33913C3.78917 9.31833 3.82082 9.30664 3.85383 9.30664H3.86498C3.89798 9.30664 3.92964 9.31833 3.95298 9.33913C3.97632 9.35994 3.98943 9.38816 3.98943 9.41759V10.1329C3.98943 10.1624 4.00254 10.1906 4.02588 10.2114C4.04922 10.2322 4.08088 10.2439 4.11389 10.2439H4.12503C4.15804 10.2439 4.1897 10.2322 4.21304 10.2114C4.23638 10.1906 4.24949 10.1624 4.24949 10.1329V9.41759C4.24949 9.38816 4.2626 9.35994 4.28594 9.33913C4.30928 9.31833 4.34094 9.30664 4.37394 9.30664V9.30664C4.40695 9.30664 4.4386 9.31833 4.46194 9.33913C4.48528 9.35994 4.49839 9.38816 4.49839 9.41759V10.1329C4.49839 10.1624 4.51151 10.1906 4.53485 10.2114C4.55819 10.2322 4.58984 10.2439 4.62285 10.2439H4.634C4.667 10.2439 4.69866 10.2322 4.722 10.2114C4.74534 10.1906 4.75845 10.1624 4.75845 10.1329V9.41759C4.75845 9.38816 4.77156 9.35994 4.7949 9.33913C4.81824 9.31833 4.8499 9.30664 4.8829 9.30664V9.30664C4.91591 9.30664 4.94757 9.31833 4.97091 9.33913C4.99425 9.35994 5.00736 9.38816 5.00736 9.41759V10.3614C5.00736 10.3909 4.99425 10.4191 4.97091 10.4399C4.94757 10.4607 4.91591 10.4724 4.8829 10.4724H3.84455C3.81154 10.4724 3.77988 10.4607 3.75654 10.4399C3.7332 10.4191 3.72009 10.3909 3.72009 10.3614V10.1213C3.72009 10.0919 3.70698 10.0637 3.68364 10.0429C3.6603 10.0221 3.62864 10.0104 3.59564 10.0104H3.07924C3.04624 10.0104 3.01458 10.0221 2.99124 10.0429C2.9679 10.0637 2.95479 10.0919 2.95479 10.1213V10.1329C2.95479 10.1624 2.9679 10.1906 2.99124 10.2114C3.01458 10.2322 3.04624 10.2439 3.07924 10.2439H3.34302C3.37602 10.2439 3.40768 10.2556 3.43102 10.2764C3.45435 10.2972 3.46747 10.3254 3.46747 10.3548C3.46847 10.3696 3.46611 10.3845 3.46054 10.3985C3.45497 10.4125 3.4463 10.4254 3.43503 10.4364C3.42377 10.4474 3.41015 10.4562 3.39498 10.4624C3.37981 10.4686 3.3634 10.472 3.34673 10.4724H3.3523Z" fill="#F5F5F5"/>
<path d="M5.39548 10.4724C5.42849 10.4724 5.46014 10.4607 5.48348 10.4399C5.50682 10.4191 5.51993 10.3909 5.51993 10.3614V10.1213C5.51993 10.0919 5.53304 10.0637 5.55638 10.0429C5.57972 10.0221 5.61138 10.0104 5.64439 10.0104H6.1645C6.1975 10.0104 6.22916 10.0221 6.2525 10.0429C6.27584 10.0637 6.28895 10.0919 6.28895 10.1213V10.3614C6.28895 10.3909 6.30206 10.4191 6.3254 10.4399C6.34874 10.4607 6.3804 10.4724 6.41341 10.4724H7.44805C7.48106 10.4724 7.51272 10.4607 7.53606 10.4399C7.5594 10.4191 7.57251 10.3909 7.57251 10.3614V9.88621C7.57251 9.85678 7.5594 9.82856 7.53606 9.80775C7.51272 9.78695 7.48106 9.77526 7.44805 9.77526H6.92795C6.89494 9.77526 6.86328 9.78695 6.83994 9.80775C6.8166 9.82856 6.80349 9.85678 6.80349 9.88621V9.8978C6.80349 9.92723 6.8166 9.95542 6.83994 9.97623C6.86328 9.99704 6.89494 10.0087 6.92795 10.0087H7.19171C7.22472 10.0087 7.25638 10.0204 7.27972 10.0412C7.30306 10.062 7.31617 10.0902 7.31617 10.1197V10.1313C7.31617 10.1607 7.30306 10.1889 7.27972 10.2097C7.25638 10.2305 7.22472 10.2422 7.19171 10.2422H6.66789C6.63489 10.2422 6.60323 10.2305 6.57989 10.2097C6.55655 10.1889 6.54344 10.1607 6.54344 10.1313V9.88454C6.54344 9.85511 6.53033 9.82689 6.50699 9.80608C6.48365 9.78528 6.45199 9.77359 6.41898 9.77359H5.3862C5.35319 9.77359 5.32153 9.78528 5.29819 9.80608C5.27485 9.82689 5.26174 9.85511 5.26174 9.88454V10.3598C5.26143 10.3752 5.26475 10.3905 5.27146 10.4048C5.27817 10.419 5.28814 10.4318 5.30072 10.4424C5.31331 10.453 5.32824 10.4611 5.34456 10.4663C5.36088 10.4715 5.37821 10.4735 5.39548 10.4724V10.4724ZM5.90816 10.4724C5.94116 10.4724 5.97282 10.4607 5.99616 10.4399C6.0195 10.4191 6.03261 10.3909 6.03261 10.3614V10.3614C6.03261 10.3469 6.0294 10.3324 6.02315 10.319C6.01689 10.3055 6.00772 10.2933 5.99616 10.283C5.98461 10.2727 5.97089 10.2645 5.95579 10.2589C5.94069 10.2534 5.9245 10.2505 5.90816 10.2505V10.2505C5.89181 10.2505 5.87564 10.2534 5.86054 10.2589C5.84544 10.2645 5.83172 10.2727 5.82016 10.283C5.80861 10.2933 5.79944 10.3055 5.79318 10.319C5.78693 10.3324 5.78371 10.3469 5.78371 10.3614V10.3614C5.78371 10.376 5.78693 10.3904 5.79318 10.4039C5.79944 10.4174 5.80861 10.4296 5.82016 10.4399C5.83172 10.4502 5.84544 10.4583 5.86054 10.4639C5.87564 10.4695 5.89181 10.4724 5.90816 10.4724V10.4724ZM5.39548 9.54013H8.48455C8.51756 9.54013 8.54922 9.52844 8.57256 9.50764C8.5959 9.48683 8.60901 9.45861 8.60901 9.42918V9.41759C8.60901 9.38816 8.5959 9.35994 8.57256 9.33913C8.54922 9.31833 8.51756 9.30664 8.48455 9.30664H5.39548C5.36247 9.30664 5.33082 9.31833 5.30748 9.33913C5.28415 9.35994 5.27103 9.38816 5.27103 9.41759V9.42918C5.27079 9.44389 5.27382 9.45848 5.27996 9.47214C5.28611 9.48579 5.29524 9.49822 5.30682 9.5087C5.3184 9.51918 5.3322 9.5275 5.34742 9.53318C5.36264 9.53886 5.37898 9.54177 5.39548 9.54177V9.54013ZM8.48455 10.4724H7.96073C7.92772 10.4724 7.89606 10.4607 7.87272 10.4399C7.84938 10.4191 7.83627 10.3909 7.83627 10.3614V9.88621C7.83627 9.85678 7.84938 9.82856 7.87272 9.80775C7.89606 9.78695 7.92772 9.77526 7.96073 9.77526H8.73718C8.77018 9.77526 8.80184 9.76357 8.82518 9.74277C8.84852 9.72196 8.86163 9.69374 8.86163 9.66431V9.41759C8.86163 9.38816 8.87474 9.35994 8.89808 9.33913C8.92142 9.31833 8.95308 9.30664 8.98609 9.30664V9.30664C9.0191 9.30664 9.05074 9.31833 9.07408 9.33913C9.09742 9.35994 9.11053 9.38816 9.11053 9.41759V10.1329C9.11053 10.1624 9.12366 10.1906 9.147 10.2114C9.17034 10.2322 9.20198 10.2439 9.23499 10.2439H9.24614C9.27915 10.2439 9.3108 10.2322 9.33414 10.2114C9.35748 10.1906 9.3706 10.1624 9.3706 10.1329V9.41759C9.3706 9.38816 9.38371 9.35994 9.40705 9.33913C9.43039 9.31833 9.46204 9.30664 9.49504 9.30664H9.5062C9.5392 9.30664 9.57086 9.31833 9.5942 9.33913C9.61754 9.35994 9.63065 9.38816 9.63065 9.41759V10.1329C9.63065 10.1624 9.64376 10.1906 9.6671 10.2114C9.69044 10.2322 9.72209 10.2439 9.7551 10.2439V10.2439C9.7881 10.2439 9.81976 10.2322 9.8431 10.2114C9.86644 10.1906 9.87955 10.1624 9.87955 10.1329V9.41759C9.87955 9.38816 9.89266 9.35994 9.916 9.33913C9.93934 9.31833 9.971 9.30664 10.004 9.30664V9.30664C10.037 9.30664 10.0687 9.31833 10.092 9.33913C10.1154 9.35994 10.1285 9.38816 10.1285 9.41759V10.3614C10.1285 10.3909 10.1154 10.4191 10.092 10.4399C10.0687 10.4607 10.037 10.4724 10.004 10.4724H8.96751C8.9345 10.4724 8.90284 10.4607 8.8795 10.4399C8.85616 10.4191 8.84305 10.3909 8.84305 10.3614V10.1213C8.84305 10.0919 8.82994 10.0637 8.8066 10.0429C8.78326 10.0221 8.7516 10.0104 8.7186 10.0104H8.19849C8.16548 10.0104 8.13382 10.0221 8.11049 10.0429C8.08715 10.0637 8.07404 10.0919 8.07404 10.1213V10.1329C8.07404 10.1624 8.08715 10.1906 8.11049 10.2114C8.13382 10.2322 8.16548 10.2439 8.19849 10.2439H8.46598C8.49899 10.2439 8.53064 10.2556 8.55398 10.2764C8.57732 10.2972 8.59043 10.3254 8.59043 10.3548V10.3548C8.59264 10.3827 8.58296 10.4103 8.56333 10.4321C8.5437 10.4539 8.51557 10.4683 8.48455 10.4724V10.4724Z" fill="#F5F5F5"/>
<path d="M10.5264 10.4724C10.5594 10.4724 10.5911 10.4607 10.6144 10.4399C10.6378 10.4191 10.6509 10.3909 10.6509 10.3614V10.1213C10.6509 10.0919 10.664 10.0637 10.6873 10.0429C10.7107 10.0221 10.7423 10.0104 10.7753 10.0104H11.2955C11.3285 10.0104 11.3601 10.0221 11.3835 10.0429C11.4068 10.0637 11.4199 10.0919 11.4199 10.1213V10.3614C11.4199 10.3909 11.433 10.4191 11.4564 10.4399C11.4797 10.4607 11.5114 10.4724 11.5444 10.4724H12.5809C12.6139 10.4724 12.6455 10.4607 12.6689 10.4399C12.6922 10.4191 12.7053 10.3909 12.7053 10.3614V9.88621C12.7053 9.85678 12.6922 9.82856 12.6689 9.80775C12.6455 9.78695 12.6139 9.77526 12.5809 9.77526H12.057C12.024 9.77526 11.9924 9.78695 11.969 9.80775C11.9457 9.82856 11.9326 9.85678 11.9326 9.88621V9.8978C11.9326 9.92723 11.9457 9.95542 11.969 9.97623C11.9924 9.99704 12.024 10.0087 12.057 10.0087H12.3208C12.3538 10.0087 12.3855 10.0204 12.4088 10.0412C12.4322 10.062 12.4453 10.0902 12.4453 10.1197V10.1313C12.4453 10.1607 12.4322 10.1889 12.4088 10.2097C12.3855 10.2305 12.3538 10.2422 12.3208 10.2422H11.8007C11.7677 10.2422 11.736 10.2305 11.7127 10.2097C11.6894 10.1889 11.6762 10.1607 11.6762 10.1313V9.88454C11.6762 9.85511 11.6631 9.82689 11.6398 9.80608C11.6165 9.78528 11.5848 9.77359 11.5518 9.77359H10.519C10.486 9.77359 10.4543 9.78528 10.431 9.80608C10.4077 9.82689 10.3945 9.85511 10.3945 9.88454V10.3598C10.3943 10.3751 10.3975 10.3902 10.4041 10.4043C10.4107 10.4185 10.4205 10.4312 10.4329 10.4418C10.4453 10.4523 10.46 10.4605 10.4761 10.4658C10.4922 10.471 10.5093 10.4733 10.5264 10.4724V10.4724ZM11.0391 10.4724C11.0721 10.4724 11.1038 10.4607 11.1271 10.4399C11.1505 10.4191 11.1636 10.3909 11.1636 10.3614V10.3614C11.1636 10.3469 11.1604 10.3324 11.1541 10.319C11.1478 10.3055 11.1387 10.2933 11.1271 10.283C11.1156 10.2727 11.1018 10.2645 11.0867 10.2589C11.0716 10.2534 11.0555 10.2505 11.0391 10.2505V10.2505C11.0228 10.2505 11.0066 10.2534 10.9915 10.2589C10.9764 10.2645 10.9627 10.2727 10.9511 10.283C10.9395 10.2933 10.9304 10.3055 10.9241 10.319C10.9179 10.3324 10.9147 10.3469 10.9147 10.3614C10.9147 10.3909 10.9278 10.4191 10.9511 10.4399C10.9744 10.4607 11.0061 10.4724 11.0391 10.4724V10.4724ZM10.5264 9.54013H13.6118C13.6448 9.54013 13.6764 9.52844 13.6998 9.50764C13.7231 9.48683 13.7362 9.45861 13.7362 9.42918V9.41759C13.7362 9.38816 13.7231 9.35994 13.6998 9.33913C13.6764 9.31833 13.6448 9.30664 13.6118 9.30664H10.5264C10.4934 9.30664 10.4618 9.31833 10.4384 9.33913C10.4151 9.35994 10.402 9.38816 10.402 9.41759V9.42918C10.4017 9.44389 10.4048 9.45848 10.4109 9.47214C10.417 9.48579 10.4262 9.49822 10.4378 9.5087C10.4494 9.51918 10.4632 9.5275 10.4784 9.53318C10.4936 9.53886 10.5099 9.54177 10.5264 9.54177V9.54013ZM13.6136 10.4724H13.0898C13.0568 10.4724 13.0252 10.4607 13.0018 10.4399C12.9785 10.4191 12.9654 10.3909 12.9654 10.3614V9.88621C12.9654 9.85678 12.9785 9.82856 13.0018 9.80775C13.0252 9.78695 13.0568 9.77526 13.0898 9.77526H13.8718C13.8882 9.77526 13.9044 9.7724 13.9195 9.76682C13.9346 9.76125 13.9483 9.75307 13.9598 9.74277C13.9714 9.73246 13.9806 9.72022 13.9868 9.70676C13.9931 9.6933 13.9963 9.67888 13.9963 9.66431V9.41759C13.9963 9.38816 14.0094 9.35994 14.0327 9.33913C14.0561 9.31833 14.0877 9.30664 14.1207 9.30664V9.30664C14.1537 9.30664 14.1854 9.31833 14.2087 9.33913C14.2321 9.35994 14.2452 9.38816 14.2452 9.41759V10.1329C14.2452 10.1624 14.2583 10.1906 14.2816 10.2114C14.305 10.2322 14.3366 10.2439 14.3697 10.2439V10.2439C14.4027 10.2439 14.4343 10.2322 14.4577 10.2114C14.481 10.1906 14.4941 10.1624 14.4941 10.1329V9.41759C14.4941 9.40302 14.4973 9.3886 14.5036 9.37514C14.5098 9.36168 14.519 9.34944 14.5306 9.33913C14.5421 9.32883 14.5559 9.32066 14.571 9.31508C14.5861 9.3095 14.6022 9.30664 14.6186 9.30664H14.6297C14.6627 9.30664 14.6944 9.31833 14.7177 9.33913C14.7411 9.35994 14.7542 9.38816 14.7542 9.41759V10.1329C14.7542 10.1624 14.7673 10.1906 14.7906 10.2114C14.814 10.2322 14.8456 10.2439 14.8786 10.2439V10.2439C14.9116 10.2439 14.9433 10.2322 14.9666 10.2114C14.99 10.1906 15.0031 10.1624 15.0031 10.1329V9.41759C15.0031 9.38816 15.0162 9.35994 15.0395 9.33913C15.0629 9.31833 15.0945 9.30664 15.1275 9.30664V9.30664C15.1605 9.30664 15.1922 9.31833 15.2155 9.33913C15.2389 9.35994 15.252 9.38816 15.252 9.41759V10.3614C15.252 10.3909 15.2389 10.4191 15.2155 10.4399C15.1922 10.4607 15.1605 10.4724 15.1275 10.4724H14.0948C14.0617 10.4724 14.0301 10.4607 14.0067 10.4399C13.9834 10.4191 13.9703 10.3909 13.9703 10.3614V10.1213C13.9703 10.0919 13.9572 10.0637 13.9338 10.0429C13.9105 10.0221 13.8788 10.0104 13.8458 10.0104H13.3406C13.3076 10.0104 13.2759 10.0221 13.2526 10.0429C13.2292 10.0637 13.2161 10.0919 13.2161 10.1213V10.1329C13.2161 10.1624 13.2292 10.1906 13.2526 10.2114C13.2759 10.2322 13.3076 10.2439 13.3406 10.2439H13.6044C13.6207 10.2439 13.6369 10.2467 13.652 10.2523C13.6671 10.2579 13.6808 10.2661 13.6924 10.2764C13.7039 10.2867 13.7131 10.2989 13.7193 10.3124C13.7256 10.3258 13.7288 10.3402 13.7288 10.3548V10.3548C13.7309 10.384 13.7199 10.4127 13.6983 10.4347C13.6768 10.4567 13.6463 10.4703 13.6136 10.4724Z" fill="#F5F5F5"/>
<path d="M15.6611 10.4724C15.6941 10.4724 15.7258 10.4607 15.7491 10.4399C15.7724 10.4191 15.7855 10.3909 15.7855 10.3614V10.1213C15.7855 10.1068 15.7888 10.0923 15.795 10.0789C15.8013 10.0654 15.8105 10.0532 15.822 10.0429C15.8336 10.0326 15.8473 10.0244 15.8624 10.0188C15.8775 10.0133 15.8937 10.0104 15.91 10.0104H16.4301C16.4631 10.0104 16.4948 10.0221 16.5181 10.0429C16.5415 10.0637 16.5546 10.0919 16.5546 10.1213V10.3614C16.5546 10.3909 16.5677 10.4191 16.591 10.4399C16.6144 10.4607 16.646 10.4724 16.679 10.4724H17.7155C17.7485 10.4724 17.7802 10.4607 17.8035 10.4399C17.8269 10.4191 17.84 10.3909 17.84 10.3614V9.88621C17.84 9.85678 17.8269 9.82856 17.8035 9.80775C17.7802 9.78695 17.7485 9.77526 17.7155 9.77526H17.1917C17.1587 9.77526 17.127 9.78695 17.1037 9.80775C17.0804 9.82856 17.0672 9.85678 17.0672 9.88621V9.8978C17.0672 9.92723 17.0804 9.95542 17.1037 9.97623C17.127 9.99704 17.1587 10.0087 17.1917 10.0087H17.4573C17.4903 10.0087 17.522 10.0204 17.5453 10.0412C17.5687 10.062 17.5818 10.0902 17.5818 10.1197V10.1313C17.5818 10.1607 17.5687 10.1889 17.5453 10.2097C17.522 10.2305 17.4903 10.2422 17.4573 10.2422H16.9372C16.9209 10.2422 16.9047 10.2393 16.8896 10.2338C16.8745 10.2282 16.8608 10.22 16.8492 10.2097C16.8377 10.1994 16.8285 10.1872 16.8222 10.1737C16.816 10.1603 16.8128 10.1458 16.8128 10.1313V9.88454C16.8128 9.85511 16.7997 9.82689 16.7763 9.80608C16.753 9.78528 16.7213 9.77359 16.6883 9.77359H15.6518C15.6355 9.77359 15.6193 9.77648 15.6042 9.78206C15.5891 9.78763 15.5754 9.79578 15.5638 9.80608C15.5523 9.81639 15.5431 9.82863 15.5368 9.84209C15.5306 9.85555 15.5274 9.86997 15.5274 9.88454V10.3598C15.5271 10.3752 15.5304 10.3905 15.5371 10.4048C15.5438 10.419 15.5537 10.4318 15.5663 10.4424C15.5789 10.453 15.5939 10.4611 15.6102 10.4663C15.6265 10.4715 15.6439 10.4735 15.6611 10.4724ZM16.1775 10.4724C16.2105 10.4724 16.2421 10.4607 16.2655 10.4399C16.2888 10.4191 16.3019 10.3909 16.3019 10.3614V10.3614C16.3019 10.3469 16.2987 10.3324 16.2925 10.319C16.2862 10.3055 16.277 10.2933 16.2655 10.283C16.2539 10.2727 16.2402 10.2645 16.2251 10.2589C16.21 10.2534 16.1939 10.2505 16.1775 10.2505V10.2505C16.1612 10.2505 16.145 10.2534 16.1299 10.2589C16.1148 10.2645 16.1011 10.2727 16.0895 10.283C16.0779 10.2933 16.0688 10.3055 16.0625 10.319C16.0563 10.3324 16.0531 10.3469 16.0531 10.3614C16.0531 10.3909 16.0662 10.4191 16.0895 10.4399C16.1128 10.4607 16.1445 10.4724 16.1775 10.4724V10.4724ZM15.6611 9.54013H18.7502C18.7832 9.54013 18.8148 9.52844 18.8382 9.50764C18.8615 9.48683 18.8746 9.45861 18.8746 9.42918V9.41759C18.8746 9.38816 18.8615 9.35994 18.8382 9.33913C18.8148 9.31833 18.7832 9.30664 18.7502 9.30664H15.6611C15.6281 9.30664 15.5964 9.31833 15.5731 9.33913C15.5498 9.35994 15.5367 9.38816 15.5367 9.41759V9.42918C15.5364 9.44389 15.5394 9.45848 15.5456 9.47214C15.5517 9.48579 15.5608 9.49822 15.5724 9.5087C15.584 9.51918 15.5978 9.5275 15.613 9.53318C15.6283 9.53886 15.6446 9.54177 15.6611 9.54177V9.54013ZM18.7502 10.4724H18.2264C18.1933 10.4724 18.1617 10.4607 18.1384 10.4399C18.115 10.4191 18.1019 10.3909 18.1019 10.3614V9.88621C18.1019 9.85678 18.115 9.82856 18.1384 9.80775C18.1617 9.78695 18.1933 9.77526 18.2264 9.77526H19.0065C19.0395 9.77526 19.0712 9.76357 19.0945 9.74277C19.1179 9.72196 19.131 9.69374 19.131 9.66431V9.41759C19.131 9.38816 19.1441 9.35994 19.1674 9.33913C19.1908 9.31833 19.2224 9.30664 19.2554 9.30664V9.30664C19.2884 9.30664 19.3201 9.31833 19.3434 9.33913C19.3668 9.35994 19.3799 9.38816 19.3799 9.41759V10.1329C19.3799 10.1624 19.393 10.1906 19.4163 10.2114C19.4397 10.2322 19.4713 10.2439 19.5043 10.2439V10.2439C19.5207 10.2439 19.5369 10.241 19.552 10.2354C19.5671 10.2298 19.5808 10.2217 19.5923 10.2114C19.6039 10.2011 19.6131 10.1888 19.6193 10.1754C19.6256 10.1619 19.6288 10.1475 19.6288 10.1329V9.41759C19.6288 9.38816 19.6419 9.35994 19.6652 9.33913C19.6886 9.31833 19.7202 9.30664 19.7532 9.30664V9.30664C19.7862 9.30664 19.8179 9.31833 19.8412 9.33913C19.8646 9.35994 19.8777 9.38816 19.8777 9.41759V10.1329C19.8777 10.1624 19.8908 10.1906 19.9141 10.2114C19.9375 10.2322 19.9691 10.2439 20.0021 10.2439V10.2439C20.0351 10.2439 20.0668 10.2322 20.0901 10.2114C20.1135 10.1906 20.1266 10.1624 20.1266 10.1329V9.41759C20.1266 9.38816 20.1397 9.35994 20.163 9.33913C20.1864 9.31833 20.218 9.30664 20.2511 9.30664V9.30664C20.2841 9.30664 20.3157 9.31833 20.3391 9.33913C20.3624 9.35994 20.3755 9.38816 20.3755 9.41759V10.3614C20.3755 10.3909 20.3624 10.4191 20.3391 10.4399C20.3157 10.4607 20.2841 10.4724 20.2511 10.4724H19.2183C19.1853 10.4724 19.1536 10.4607 19.1303 10.4399C19.1069 10.4191 19.0938 10.3909 19.0938 10.3614V10.1213C19.0938 10.0919 19.0807 10.0637 19.0574 10.0429C19.034 10.0221 19.0024 10.0104 18.9694 10.0104H18.492C18.459 10.0104 18.4273 10.0221 18.404 10.0429C18.3806 10.0637 18.3675 10.0919 18.3675 10.1213V10.1329C18.3675 10.1624 18.3806 10.1906 18.404 10.2114C18.4273 10.2322 18.459 10.2439 18.492 10.2439H18.7595C18.7925 10.2439 18.8241 10.2556 18.8475 10.2764C18.8708 10.2972 18.8839 10.3254 18.8839 10.3548V10.3548C18.885 10.3705 18.8823 10.3862 18.8761 10.4009C18.8698 10.4156 18.8602 10.429 18.8477 10.4401C18.8352 10.4512 18.8202 10.4598 18.8037 10.4654C18.7873 10.471 18.7696 10.4734 18.752 10.4724H18.7502Z" fill="#F5F5F5"/>
<path d="M20.7959 10.4724C20.8289 10.4724 20.8606 10.4607 20.8839 10.4399C20.9073 10.4191 20.9204 10.3909 20.9204 10.3614V10.1213C20.9204 10.0919 20.9335 10.0637 20.9569 10.0429C20.9802 10.0221 21.0118 10.0104 21.0448 10.0104H21.565C21.598 10.0104 21.6296 10.0221 21.6529 10.0429C21.6763 10.0637 21.6894 10.0919 21.6894 10.1213V10.3614C21.6894 10.3909 21.7025 10.4191 21.7259 10.4399C21.7492 10.4607 21.7809 10.4724 21.8139 10.4724H22.8503C22.8833 10.4724 22.915 10.4607 22.9384 10.4399C22.9617 10.4191 22.9748 10.3909 22.9748 10.3614V9.88621C22.9748 9.85678 22.9617 9.82856 22.9384 9.80775C22.915 9.78695 22.8833 9.77526 22.8503 9.77526H22.3302C22.2972 9.77526 22.2656 9.78695 22.2423 9.80775C22.2189 9.82856 22.2058 9.85678 22.2058 9.88621V9.8978C22.2058 9.92723 22.2189 9.95542 22.2423 9.97623C22.2656 9.99704 22.2972 10.0087 22.3302 10.0087H22.5903C22.6233 10.0087 22.655 10.0204 22.6783 10.0412C22.7016 10.062 22.7147 10.0902 22.7147 10.1197V10.1313C22.7147 10.1607 22.7016 10.1889 22.6783 10.2097C22.655 10.2305 22.6233 10.2422 22.5903 10.2422H22.0739C22.0409 10.2422 22.0093 10.2305 21.9859 10.2097C21.9626 10.1889 21.9495 10.1607 21.9495 10.1313V9.88454C21.9495 9.85511 21.9364 9.82689 21.913 9.80608C21.8897 9.78528 21.858 9.77359 21.825 9.77359H20.7885C20.7555 9.77359 20.7239 9.78528 20.7005 9.80608C20.6772 9.82689 20.6641 9.85511 20.6641 9.88454V10.3598C20.6638 10.3751 20.667 10.3902 20.6736 10.4043C20.6802 10.4185 20.69 10.4312 20.7024 10.4418C20.7148 10.4523 20.7295 10.4605 20.7456 10.4658C20.7617 10.471 20.7788 10.4733 20.7959 10.4724V10.4724ZM21.3124 10.4724C21.3454 10.4724 21.377 10.4607 21.4003 10.4399C21.4237 10.4191 21.4368 10.3909 21.4368 10.3614C21.4368 10.3469 21.4336 10.3324 21.4273 10.319C21.4211 10.3055 21.4119 10.2933 21.4003 10.283C21.3888 10.2727 21.3751 10.2645 21.36 10.2589C21.3449 10.2534 21.3287 10.2505 21.3124 10.2505V10.2505C21.296 10.2505 21.2798 10.2534 21.2647 10.2589C21.2496 10.2645 21.2359 10.2727 21.2243 10.283C21.2128 10.2933 21.2036 10.3055 21.1973 10.319C21.1911 10.3324 21.1879 10.3469 21.1879 10.3614C21.1879 10.3909 21.201 10.4191 21.2243 10.4399C21.2477 10.4607 21.2793 10.4724 21.3124 10.4724V10.4724ZM20.7959 9.54013H23.885C23.918 9.54013 23.9497 9.52844 23.973 9.50764C23.9964 9.48683 24.0095 9.45861 24.0095 9.42918V9.41759C24.0095 9.38816 23.9964 9.35994 23.973 9.33913C23.9497 9.31833 23.918 9.30664 23.885 9.30664H20.7959C20.7629 9.30664 20.7313 9.31833 20.708 9.33913C20.6846 9.35994 20.6715 9.38816 20.6715 9.41759V9.42918C20.6713 9.44389 20.6743 9.45848 20.6804 9.47214C20.6866 9.48579 20.6957 9.49822 20.7073 9.5087C20.7189 9.51918 20.7326 9.5275 20.7479 9.53318C20.7631 9.53886 20.7794 9.54177 20.7959 9.54177V9.54013ZM23.885 10.4724H23.3649C23.3319 10.4724 23.3002 10.4607 23.2769 10.4399C23.2536 10.4191 23.2405 10.3909 23.2405 10.3614V9.88621C23.2405 9.85678 23.2536 9.82856 23.2769 9.80775C23.3002 9.78695 23.3319 9.77526 23.3649 9.77526H24.1413C24.1743 9.77526 24.206 9.76357 24.2294 9.74277C24.2527 9.72196 24.2658 9.69374 24.2658 9.66431V9.41759C24.2658 9.38816 24.2789 9.35994 24.3023 9.33913C24.3256 9.31833 24.3572 9.30664 24.3902 9.30664V9.30664C24.4233 9.30664 24.4549 9.31833 24.4783 9.33913C24.5016 9.35994 24.5147 9.38816 24.5147 9.41759V10.1329C24.5147 10.1624 24.5278 10.1906 24.5512 10.2114C24.5745 10.2322 24.6062 10.2439 24.6392 10.2439V10.2439C24.6722 10.2439 24.7038 10.2322 24.7271 10.2114C24.7505 10.1906 24.7636 10.1624 24.7636 10.1329V9.41759C24.7636 9.38816 24.7768 9.35994 24.8001 9.33913C24.8234 9.31833 24.8551 9.30664 24.8881 9.30664V9.30664C24.9211 9.30664 24.9527 9.31833 24.9761 9.33913C24.9994 9.35994 25.0125 9.38816 25.0125 9.41759V10.1329C25.0125 10.1624 25.0256 10.1906 25.049 10.2114C25.0723 10.2322 25.104 10.2439 25.137 10.2439V10.2439C25.17 10.2439 25.2016 10.2322 25.225 10.2114C25.2483 10.1906 25.2614 10.1624 25.2614 10.1329V9.41759C25.2614 9.38816 25.2745 9.35994 25.2979 9.33913C25.3212 9.31833 25.3529 9.30664 25.3859 9.30664V9.30664C25.4189 9.30664 25.4505 9.31833 25.4739 9.33913C25.4972 9.35994 25.5103 9.38816 25.5103 9.41759V10.3614C25.5103 10.3909 25.4972 10.4191 25.4739 10.4399C25.4505 10.4607 25.4189 10.4724 25.3859 10.4724H24.3531C24.3201 10.4724 24.2884 10.4607 24.2651 10.4399C24.2417 10.4191 24.2286 10.3909 24.2286 10.3614V10.1213C24.2286 10.0919 24.2155 10.0637 24.1922 10.0429C24.1688 10.0221 24.1372 10.0104 24.1042 10.0104H23.5804C23.5473 10.0104 23.5157 10.0221 23.4924 10.0429C23.469 10.0637 23.4559 10.0919 23.4559 10.1213V10.1329C23.4559 10.1624 23.469 10.1906 23.4924 10.2114C23.5157 10.2322 23.5473 10.2439 23.5804 10.2439H23.8479C23.8809 10.2439 23.9125 10.2556 23.9358 10.2764C23.9592 10.2972 23.9723 10.3254 23.9723 10.3548C23.9753 10.3804 23.9682 10.4061 23.9523 10.4275C23.9364 10.449 23.9126 10.4649 23.885 10.4724V10.4724Z" fill="#F5F5F5"/>
<path d="M25.9308 10.4724C25.9638 10.4724 25.9955 10.4607 26.0188 10.4399C26.0422 10.4191 26.0553 10.3909 26.0553 10.3614V10.1213C26.0553 10.0919 26.0684 10.0637 26.0918 10.0429C26.1151 10.0221 26.1467 10.0104 26.1798 10.0104H26.7036C26.7366 10.0104 26.7682 10.0221 26.7916 10.0429C26.8149 10.0637 26.828 10.0919 26.828 10.1213V10.3614C26.828 10.3909 26.8411 10.4191 26.8645 10.4399C26.8878 10.4607 26.9194 10.4724 26.9525 10.4724H27.9852C28.0182 10.4724 28.0499 10.4607 28.0733 10.4399C28.0966 10.4191 28.1097 10.3909 28.1097 10.3614V9.8862C28.1097 9.85678 28.0966 9.82856 28.0733 9.80775C28.0499 9.78695 28.0182 9.77526 27.9852 9.77526H27.4651C27.4321 9.77526 27.4005 9.78695 27.3772 9.80775C27.3538 9.82856 27.3407 9.85678 27.3407 9.8862V9.8978C27.3407 9.92723 27.3538 9.95542 27.3772 9.97623C27.4005 9.99704 27.4321 10.0087 27.4651 10.0087H27.7326C27.7656 10.0087 27.7973 10.0204 27.8206 10.0412C27.844 10.062 27.8571 10.0902 27.8571 10.1197V10.1313C27.8571 10.1607 27.844 10.1889 27.8206 10.2097C27.7973 10.2305 27.7656 10.2422 27.7326 10.2422H27.207C27.174 10.2422 27.1423 10.2305 27.1189 10.2097C27.0956 10.1889 27.0825 10.1607 27.0825 10.1313V9.88454C27.0825 9.85511 27.0694 9.82689 27.046 9.80608C27.0227 9.78528 26.9911 9.77359 26.9581 9.77359H25.9253C25.8923 9.77359 25.8606 9.78528 25.8372 9.80608C25.8139 9.82689 25.8008 9.85511 25.8008 9.88454V10.3598C25.8005 10.3749 25.8038 10.3899 25.8103 10.4039C25.8168 10.4179 25.8264 10.4306 25.8386 10.4411C25.8507 10.4517 25.8652 10.4599 25.8811 10.4653C25.8969 10.4706 25.9139 10.4731 25.9308 10.4724ZM26.4435 10.4724H26.4547C26.4877 10.4724 26.5193 10.4607 26.5427 10.4399C26.566 10.4191 26.5791 10.3909 26.5791 10.3614C26.5791 10.3469 26.5759 10.3324 26.5696 10.319C26.5634 10.3055 26.5542 10.2933 26.5427 10.283C26.5311 10.2727 26.5174 10.2645 26.5023 10.2589C26.4872 10.2534 26.471 10.2505 26.4547 10.2505H26.4435C26.4272 10.2505 26.411 10.2534 26.3959 10.2589C26.3808 10.2645 26.3671 10.2727 26.3555 10.283C26.344 10.2933 26.3348 10.3055 26.3286 10.319C26.3223 10.3324 26.3191 10.3469 26.3191 10.3614C26.3191 10.3909 26.3322 10.4191 26.3555 10.4399C26.3789 10.4607 26.4105 10.4724 26.4435 10.4724V10.4724ZM25.9308 9.54013H29.0199C29.0529 9.54013 29.0846 9.52844 29.1079 9.50764C29.1313 9.48683 29.1444 9.45861 29.1444 9.42918V9.41759C29.1444 9.38816 29.1313 9.35994 29.1079 9.33913C29.0846 9.31833 29.0529 9.30664 29.0199 9.30664H25.9308C25.8978 9.30664 25.8662 9.31833 25.8429 9.33913C25.8195 9.35994 25.8064 9.38816 25.8064 9.41759V9.42918C25.8062 9.44389 25.8092 9.45848 25.8153 9.47214C25.8215 9.48579 25.8306 9.49822 25.8422 9.5087C25.8538 9.51918 25.8675 9.5275 25.8828 9.53318C25.898 9.53886 25.9143 9.54177 25.9308 9.54177V9.54013ZM29.0199 10.4724H28.4998C28.4668 10.4724 28.4352 10.4607 28.4118 10.4399C28.3885 10.4191 28.3754 10.3909 28.3754 10.3614V9.8862C28.3754 9.85678 28.3885 9.82856 28.4118 9.80775C28.4352 9.78695 28.4668 9.77526 28.4998 9.77526H29.2762C29.3092 9.77526 29.3409 9.76357 29.3643 9.74277C29.3876 9.72196 29.4007 9.69374 29.4007 9.66431V9.41759C29.4007 9.38816 29.4138 9.35994 29.4372 9.33913C29.4605 9.31833 29.4921 9.30664 29.5251 9.30664V9.30664C29.5582 9.30664 29.5898 9.31833 29.6132 9.33913C29.6365 9.35994 29.6496 9.38816 29.6496 9.41759V10.1329C29.6496 10.1624 29.6627 10.1906 29.6861 10.2114C29.7094 10.2322 29.7411 10.2439 29.7741 10.2439V10.2439C29.8071 10.2439 29.8387 10.2322 29.862 10.2114C29.8854 10.1906 29.8985 10.1624 29.8985 10.1329V9.41759C29.8985 9.38816 29.9117 9.35994 29.935 9.33913C29.9583 9.31833 29.99 9.30664 30.023 9.30664V9.30664C30.056 9.30664 30.0876 9.31833 30.111 9.33913C30.1343 9.35994 30.1474 9.38816 30.1474 9.41759V10.1329C30.1474 10.1624 30.1605 10.1906 30.1839 10.2114C30.2072 10.2322 30.2389 10.2439 30.2719 10.2439H30.283C30.316 10.2439 30.3477 10.2322 30.371 10.2114C30.3944 10.1906 30.4075 10.1624 30.4075 10.1329V9.41759C30.4075 9.38816 30.4206 9.35994 30.4439 9.33913C30.4673 9.31833 30.4989 9.30664 30.5319 9.30664V9.30664C30.5649 9.30664 30.5966 9.31833 30.6199 9.33913C30.6433 9.35994 30.6564 9.38816 30.6564 9.41759V10.3614C30.6564 10.3909 30.6433 10.4191 30.6199 10.4399C30.5966 10.4607 30.5649 10.4724 30.5319 10.4724H29.5215C29.4885 10.4724 29.4568 10.4607 29.4334 10.4399C29.4101 10.4191 29.397 10.3909 29.397 10.3614V10.1213C29.397 10.0919 29.3839 10.0637 29.3605 10.0429C29.3372 10.0221 29.3056 10.0104 29.2726 10.0104H28.7561C28.7231 10.0104 28.6915 10.0221 28.6682 10.0429C28.6448 10.0637 28.6317 10.0919 28.6317 10.1213V10.1329C28.6317 10.1624 28.6448 10.1906 28.6682 10.2114C28.6915 10.2322 28.7231 10.2439 28.7561 10.2439H29.0162C29.0492 10.2439 29.0808 10.2556 29.1042 10.2764C29.1275 10.2972 29.1406 10.3254 29.1406 10.3548C29.1416 10.3696 29.1393 10.3845 29.1337 10.3985C29.1282 10.4125 29.1195 10.4254 29.1082 10.4364C29.097 10.4474 29.0833 10.4562 29.0681 10.4624C29.053 10.4686 29.0366 10.472 29.0199 10.4724Z" fill="#F5F5F5"/>
<path d="M31.0658 10.4724C31.0989 10.4724 31.1305 10.4607 31.1538 10.4399C31.1772 10.4191 31.1903 10.3909 31.1903 10.3614V10.1213C31.1903 10.0919 31.2034 10.0637 31.2267 10.0429C31.2501 10.0221 31.2818 10.0104 31.3148 10.0104H31.8349C31.8679 10.0104 31.8995 10.0221 31.9228 10.0429C31.9462 10.0637 31.9593 10.0919 31.9593 10.1213V10.3614C31.9593 10.3909 31.9724 10.4191 31.9957 10.4399C32.0191 10.4607 32.0508 10.4724 32.0838 10.4724H33.1203C33.1533 10.4724 33.1849 10.4607 33.2083 10.4399C33.2316 10.4191 33.2447 10.3909 33.2447 10.3614V9.8862C33.2447 9.85678 33.2316 9.82856 33.2083 9.80775C33.1849 9.78695 33.1533 9.77526 33.1203 9.77526H32.6039C32.5709 9.77526 32.5392 9.78695 32.5159 9.80775C32.4925 9.82856 32.4794 9.85678 32.4794 9.8862V9.8978C32.4794 9.92723 32.4925 9.95542 32.5159 9.97623C32.5392 9.99704 32.5709 10.0087 32.6039 10.0087H32.8677C32.884 10.0087 32.9002 10.0116 32.9153 10.0172C32.9304 10.0228 32.9441 10.0309 32.9556 10.0412C32.9672 10.0515 32.9764 10.0638 32.9826 10.0772C32.9889 10.0907 32.9921 10.1051 32.9921 10.1197V10.1313C32.9921 10.1458 32.9889 10.1603 32.9826 10.1737C32.9764 10.1872 32.9672 10.1994 32.9556 10.2097C32.9441 10.22 32.9304 10.2282 32.9153 10.2338C32.9002 10.2393 32.884 10.2422 32.8677 10.2422H32.3457C32.3127 10.2422 32.281 10.2305 32.2577 10.2097C32.2344 10.1889 32.2212 10.1607 32.2212 10.1313V9.88454C32.2212 9.85511 32.2081 9.82689 32.1848 9.80608C32.1615 9.78528 32.1298 9.77359 32.0968 9.77359H31.0658C31.0328 9.77359 31.0012 9.78528 30.9779 9.80608C30.9545 9.82689 30.9414 9.85511 30.9414 9.88454V10.3598C30.9412 10.3745 30.9442 10.3891 30.9503 10.4028C30.9565 10.4164 30.9656 10.4288 30.9772 10.4393C30.9888 10.4498 31.0026 10.4581 31.0178 10.4638C31.033 10.4695 31.0493 10.4724 31.0658 10.4724V10.4724ZM31.5785 10.4724C31.6115 10.4724 31.6432 10.4607 31.6665 10.4399C31.6898 10.4191 31.703 10.3909 31.703 10.3614C31.703 10.3469 31.6997 10.3324 31.6935 10.319C31.6872 10.3055 31.6781 10.2933 31.6665 10.283C31.655 10.2727 31.6412 10.2645 31.6261 10.2589C31.611 10.2534 31.5949 10.2505 31.5785 10.2505V10.2505C31.5622 10.2505 31.546 10.2534 31.5309 10.2589C31.5158 10.2645 31.5021 10.2727 31.4905 10.283C31.479 10.2933 31.4698 10.3055 31.4636 10.319C31.4573 10.3324 31.4541 10.3469 31.4541 10.3614C31.4541 10.3903 31.4666 10.418 31.4892 10.4387C31.5117 10.4594 31.5424 10.4715 31.5748 10.4724H31.5785ZM31.0658 9.54013H34.1586C34.1917 9.54013 34.2233 9.52844 34.2466 9.50764C34.27 9.48683 34.2831 9.45861 34.2831 9.42918V9.41759C34.2831 9.38816 34.27 9.35994 34.2466 9.33913C34.2233 9.31833 34.1917 9.30664 34.1586 9.30664H31.0658C31.0328 9.30664 31.0012 9.31833 30.9779 9.33913C30.9545 9.35994 30.9414 9.38816 30.9414 9.41759V9.42918C30.9412 9.44389 30.9442 9.45848 30.9503 9.47214C30.9565 9.48579 30.9656 9.49822 30.9772 9.5087C30.9888 9.51918 31.0026 9.5275 31.0178 9.53318C31.033 9.53886 31.0493 9.54177 31.0658 9.54177V9.54013ZM34.1586 10.4724H33.6329C33.5999 10.4724 33.5683 10.4607 33.545 10.4399C33.5216 10.4191 33.5085 10.3909 33.5085 10.3614V9.8862C33.5085 9.85678 33.5216 9.82856 33.545 9.80775C33.5683 9.78695 33.5999 9.77526 33.6329 9.77526H34.4094C34.4424 9.77526 34.4741 9.76357 34.4974 9.74277C34.5208 9.72196 34.5339 9.69374 34.5339 9.66431V9.41759C34.5339 9.38816 34.547 9.35994 34.5703 9.33913C34.5936 9.31833 34.6253 9.30664 34.6583 9.30664H34.6695C34.7025 9.30664 34.7341 9.31833 34.7574 9.33913C34.7808 9.35994 34.7939 9.38816 34.7939 9.41759V10.1329C34.7939 10.1624 34.807 10.1906 34.8303 10.2114C34.8537 10.2322 34.8854 10.2439 34.9184 10.2439V10.2439C34.9514 10.2439 34.983 10.2322 35.0063 10.2114C35.0297 10.1906 35.0428 10.1624 35.0428 10.1329V9.41759C35.0428 9.38816 35.0559 9.35994 35.0792 9.33913C35.1026 9.31833 35.1343 9.30664 35.1673 9.30664V9.30664C35.2003 9.30664 35.2319 9.31833 35.2553 9.33913C35.2786 9.35994 35.2917 9.38816 35.2917 9.41759V10.1329C35.2917 10.1624 35.3048 10.1906 35.3282 10.2114C35.3515 10.2322 35.3832 10.2439 35.4162 10.2439H35.4273C35.4603 10.2439 35.492 10.2322 35.5153 10.2114C35.5387 10.1906 35.5518 10.1624 35.5518 10.1329V9.41759C35.5518 9.38816 35.5649 9.35994 35.5882 9.33913C35.6116 9.31833 35.6432 9.30664 35.6762 9.30664V9.30664C35.7092 9.30664 35.7409 9.31833 35.7643 9.33913C35.7876 9.35994 35.8007 9.38816 35.8007 9.41759V10.3614C35.8007 10.3909 35.7876 10.4191 35.7643 10.4399C35.7409 10.4607 35.7092 10.4724 35.6762 10.4724H34.6398C34.6067 10.4724 34.5751 10.4607 34.5517 10.4399C34.5284 10.4191 34.5153 10.3909 34.5153 10.3614V10.1213C34.5153 10.0919 34.5022 10.0637 34.4788 10.0429C34.4555 10.0221 34.4238 10.0104 34.3908 10.0104H33.8707C33.8377 10.0104 33.806 10.0221 33.7827 10.0429C33.7594 10.0637 33.7462 10.0919 33.7462 10.1213V10.1329C33.7462 10.1624 33.7594 10.1906 33.7827 10.2114C33.806 10.2322 33.8377 10.2439 33.8707 10.2439H34.1401C34.1731 10.2439 34.2047 10.2556 34.228 10.2764C34.2514 10.2972 34.2645 10.3254 34.2645 10.3548C34.2666 10.3832 34.2564 10.4112 34.236 10.4331C34.2156 10.455 34.1866 10.4691 34.1549 10.4724H34.1586Z" fill="#F5F5F5"/>
<path d="M0.265075 11.1815H2.30836C2.34137 11.1815 2.37302 11.1698 2.39636 11.149C2.4197 11.1282 2.43281 11.1 2.43281 11.0706V10.8238C2.43281 10.7944 2.4197 10.7662 2.39636 10.7454C2.37302 10.7246 2.34137 10.7129 2.30836 10.7129H0.265075C0.232067 10.7129 0.200415 10.7246 0.177075 10.7454C0.153735 10.7662 0.140625 10.7944 0.140625 10.8238V11.0706C0.140625 11.1 0.153735 11.1282 0.177075 11.149C0.200415 11.1698 0.232067 11.1815 0.265075 11.1815V11.1815ZM2.82846 11.1815H4.89218C4.92519 11.1815 4.95684 11.1698 4.98018 11.149C5.00352 11.1282 5.01663 11.1 5.01663 11.0706V10.8238C5.01663 10.7944 5.00352 10.7662 4.98018 10.7454C4.95684 10.7246 4.92519 10.7129 4.89218 10.7129H2.82289C2.80654 10.7129 2.79036 10.7158 2.77526 10.7214C2.76016 10.7269 2.74645 10.7351 2.73489 10.7454C2.72333 10.7557 2.71417 10.7679 2.70791 10.7814C2.70166 10.7948 2.69844 10.8093 2.69844 10.8238V11.0706C2.69844 11.0851 2.70166 11.0996 2.70791 11.113C2.71417 11.1265 2.72333 11.1387 2.73489 11.149C2.74645 11.1593 2.76016 11.1675 2.77526 11.1731C2.79036 11.1786 2.80654 11.1815 2.82289 11.1815H2.82846Z" fill="#F5F5F5"/>
<path d="M5.39397 11.1815H7.45583C7.48884 11.1815 7.5205 11.1698 7.54384 11.149C7.56718 11.1282 7.58029 11.1 7.58029 11.0706V10.8238C7.58029 10.7944 7.56718 10.7662 7.54384 10.7454C7.5205 10.7246 7.48884 10.7129 7.45583 10.7129H5.39397C5.36097 10.7129 5.32932 10.7246 5.30598 10.7454C5.28264 10.7662 5.26953 10.7944 5.26953 10.8238V11.0706C5.26953 11.1 5.28264 11.1282 5.30598 11.149C5.32932 11.1698 5.36097 11.1815 5.39397 11.1815V11.1815ZM7.96108 11.1815H10.0229C10.0559 11.1815 10.0876 11.1698 10.1109 11.149C10.1343 11.1282 10.1474 11.1 10.1474 11.0706V10.8238C10.1474 10.7944 10.1343 10.7662 10.1109 10.7454C10.0876 10.7246 10.0559 10.7129 10.0229 10.7129H7.96108C7.92808 10.7129 7.89642 10.7246 7.87308 10.7454C7.84974 10.7662 7.83663 10.7944 7.83663 10.8238V11.0706C7.83663 11.1 7.84974 11.1282 7.87308 11.149C7.89642 11.1698 7.92808 11.1815 7.96108 11.1815V11.1815Z" fill="#F5F5F5"/>
<path d="M10.5268 11.1815H12.5887C12.6217 11.1815 12.6533 11.1698 12.6767 11.149C12.7 11.1282 12.7131 11.1 12.7131 11.0706V10.8238C12.7131 10.7944 12.7 10.7662 12.6767 10.7454C12.6533 10.7246 12.6217 10.7129 12.5887 10.7129H10.5268C10.4938 10.7129 10.4621 10.7246 10.4388 10.7454C10.4155 10.7662 10.4023 10.7944 10.4023 10.8238V11.0706C10.4023 11.1 10.4155 11.1282 10.4388 11.149C10.4621 11.1698 10.4938 11.1815 10.5268 11.1815V11.1815ZM13.0902 11.1815H15.1539C15.1869 11.1815 15.2186 11.1698 15.2419 11.149C15.2652 11.1282 15.2784 11.1 15.2784 11.0706V10.8238C15.2784 10.7944 15.2652 10.7662 15.2419 10.7454C15.2186 10.7246 15.1869 10.7129 15.1539 10.7129H13.0902C13.0572 10.7129 13.0255 10.7246 13.0022 10.7454C12.9789 10.7662 12.9657 10.7944 12.9657 10.8238V11.0706C12.9657 11.1 12.9789 11.1282 13.0022 11.149C13.0255 11.1698 13.0572 11.1815 13.0902 11.1815V11.1815Z" fill="#F5F5F5"/>
<path d="M15.6635 11.1815H17.7254C17.7584 11.1815 17.79 11.1698 17.8134 11.149C17.8367 11.1282 17.8498 11.1 17.8498 11.0706V10.8238C17.8498 10.7944 17.8367 10.7662 17.8134 10.7454C17.79 10.7246 17.7584 10.7129 17.7254 10.7129H15.6635C15.6305 10.7129 15.5989 10.7246 15.5755 10.7454C15.5522 10.7662 15.5391 10.7944 15.5391 10.8238V11.0706C15.5391 11.1 15.5522 11.1282 15.5755 11.149C15.5989 11.1698 15.6305 11.1815 15.6635 11.1815V11.1815ZM18.2306 11.1815H20.2925C20.3255 11.1815 20.3571 11.1698 20.3805 11.149C20.4038 11.1282 20.4169 11.1 20.4169 11.0706V10.8238C20.4169 10.7944 20.4038 10.7662 20.3805 10.7454C20.3571 10.7246 20.3255 10.7129 20.2925 10.7129H18.2306C18.1976 10.7129 18.166 10.7246 18.1426 10.7454C18.1193 10.7662 18.1061 10.7944 18.1061 10.8238V11.0706C18.1061 11.1 18.1193 11.1282 18.1426 11.149C18.166 11.1698 18.1976 11.1815 18.2306 11.1815V11.1815Z" fill="#F5F5F5"/>
<path d="M20.7963 11.1815H22.8582C22.8912 11.1815 22.9228 11.1698 22.9462 11.149C22.9695 11.1282 22.9826 11.1 22.9826 11.0706V10.8238C22.9826 10.7944 22.9695 10.7662 22.9462 10.7454C22.9228 10.7246 22.8912 10.7129 22.8582 10.7129H20.7963C20.7633 10.7129 20.7317 10.7246 20.7083 10.7454C20.685 10.7662 20.6719 10.7944 20.6719 10.8238V11.0706C20.6719 11.1 20.685 11.1282 20.7083 11.149C20.7317 11.1698 20.7633 11.1815 20.7963 11.1815V11.1815ZM23.3671 11.1815H25.4253C25.4583 11.1815 25.4899 11.1698 25.5132 11.149C25.5366 11.1282 25.5497 11.1 25.5497 11.0706V10.8238C25.5497 10.7944 25.5366 10.7662 25.5132 10.7454C25.4899 10.7246 25.4583 10.7129 25.4253 10.7129H23.3671C23.3341 10.7129 23.3025 10.7246 23.2791 10.7454C23.2558 10.7662 23.2427 10.7944 23.2427 10.8238V11.0706C23.2427 11.1 23.2558 11.1282 23.2791 11.149C23.3025 11.1698 23.3341 11.1815 23.3671 11.1815V11.1815Z" fill="#F5F5F5"/>
<path d="M25.9291 11.1815H27.991C28.0073 11.1815 28.0235 11.1786 28.0386 11.1731C28.0537 11.1675 28.0674 11.1593 28.079 11.149C28.0905 11.1387 28.0997 11.1265 28.106 11.113C28.1122 11.0996 28.1154 11.0851 28.1154 11.0706V10.8238C28.1154 10.8093 28.1122 10.7948 28.106 10.7814C28.0997 10.7679 28.0905 10.7557 28.079 10.7454C28.0674 10.7351 28.0537 10.7269 28.0386 10.7214C28.0235 10.7158 28.0073 10.7129 27.991 10.7129H25.9291C25.8961 10.7129 25.8645 10.7246 25.8411 10.7454C25.8178 10.7662 25.8047 10.7944 25.8047 10.8238V11.0706C25.8047 11.1 25.8178 11.1282 25.8411 11.149C25.8645 11.1698 25.8961 11.1815 25.9291 11.1815V11.1815ZM28.4999 11.1815H30.5581C30.5911 11.1815 30.6227 11.1698 30.6461 11.149C30.6694 11.1282 30.6825 11.1 30.6825 11.0706V10.8238C30.6825 10.7944 30.6694 10.7662 30.6461 10.7454C30.6227 10.7246 30.5911 10.7129 30.5581 10.7129H28.4999C28.4669 10.7129 28.4353 10.7246 28.412 10.7454C28.3886 10.7662 28.3755 10.7944 28.3755 10.8238V11.0706C28.3755 11.1 28.3886 11.1282 28.412 11.149C28.4353 11.1698 28.4669 11.1815 28.4999 11.1815V11.1815Z" fill="#F5F5F5"/>
<path d="M31.0658 11.1815H33.124C33.157 11.1815 33.1886 11.1698 33.212 11.149C33.2353 11.1282 33.2484 11.1 33.2484 11.0706V10.8238C33.2484 10.7944 33.2353 10.7662 33.212 10.7454C33.1886 10.7246 33.157 10.7129 33.124 10.7129H31.0658C31.0328 10.7129 31.0012 10.7246 30.9779 10.7454C30.9545 10.7662 30.9414 10.7944 30.9414 10.8238V11.0706C30.9414 11.1 30.9545 11.1282 30.9779 11.149C31.0012 11.1698 31.0328 11.1815 31.0658 11.1815V11.1815ZM33.6329 11.1815H35.6948C35.7278 11.1815 35.7594 11.1698 35.7828 11.149C35.8061 11.1282 35.8192 11.1 35.8192 11.0706V10.8238C35.8192 10.7944 35.8061 10.7662 35.7828 10.7454C35.7594 10.7246 35.7278 10.7129 35.6948 10.7129H33.6329C33.5999 10.7129 33.5683 10.7246 33.5449 10.7454C33.5216 10.7662 33.5085 10.7944 33.5085 10.8238V11.0706C33.5085 11.0994 33.5211 11.1272 33.5436 11.1479C33.5662 11.1686 33.5969 11.1806 33.6292 11.1815H33.6329Z" fill="#F5F5F5"/>
<path d="M35.6915 20.3672H35.6803C35.6473 20.3672 35.6157 20.3789 35.5924 20.3997C35.569 20.4205 35.5559 20.4487 35.5559 20.4782V20.7182C35.5559 20.7477 35.5428 20.7759 35.5195 20.7967C35.4961 20.8175 35.4644 20.8292 35.4314 20.8292H34.9151C34.8821 20.8292 34.8504 20.8175 34.827 20.7967C34.8037 20.7759 34.7906 20.7477 34.7906 20.7182V20.4782C34.7906 20.4487 34.7775 20.4205 34.7541 20.3997C34.7308 20.3789 34.6992 20.3672 34.6661 20.3672H33.6334C33.6004 20.3672 33.5687 20.3789 33.5453 20.3997C33.522 20.4205 33.5089 20.4487 33.5089 20.4782V20.9534C33.5089 20.9828 33.522 21.011 33.5453 21.0318C33.5687 21.0527 33.6004 21.0643 33.6334 21.0643H34.1535C34.1865 21.0643 34.2181 21.0527 34.2414 21.0318C34.2648 21.011 34.2779 20.9828 34.2779 20.9534V20.9418C34.2779 20.9124 34.2648 20.8841 34.2414 20.8633C34.2181 20.8425 34.1865 20.8308 34.1535 20.8308H33.8897C33.8567 20.8308 33.825 20.8191 33.8017 20.7983C33.7783 20.7775 33.7652 20.7493 33.7652 20.7199V20.7083C33.7652 20.6789 33.7783 20.6507 33.8017 20.6299C33.825 20.6091 33.8567 20.5974 33.8897 20.5974H34.4098C34.4428 20.5974 34.4744 20.6091 34.4978 20.6299C34.5211 20.6507 34.5342 20.6789 34.5342 20.7083V20.955C34.5342 20.9845 34.5473 21.0127 34.5707 21.0335C34.594 21.0543 34.6257 21.066 34.6587 21.066H35.6915C35.7245 21.066 35.7561 21.0543 35.7795 21.0335C35.8028 21.0127 35.8159 20.9845 35.8159 20.955V20.4798C35.8162 20.4651 35.8132 20.4505 35.807 20.4368C35.8009 20.4232 35.7917 20.4108 35.7802 20.4003C35.7686 20.3898 35.7548 20.3815 35.7396 20.3758C35.7244 20.3701 35.708 20.3672 35.6915 20.3672V20.3672ZM35.1788 20.3672C35.1458 20.3672 35.1141 20.3789 35.0908 20.3997C35.0674 20.4205 35.0543 20.4487 35.0543 20.4782C35.0543 20.5076 35.0674 20.5358 35.0908 20.5566C35.1141 20.5774 35.1458 20.5891 35.1788 20.5891C35.2118 20.5891 35.2435 20.5774 35.2668 20.5566C35.2901 20.5358 35.3033 20.5076 35.3033 20.4782C35.3033 20.4487 35.2901 20.4205 35.2668 20.3997C35.2435 20.3789 35.2118 20.3672 35.1788 20.3672ZM35.6915 21.2995H32.6043C32.5713 21.2995 32.5396 21.3112 32.5163 21.332C32.4929 21.3528 32.4798 21.381 32.4798 21.4104V21.422C32.4798 21.4514 32.4929 21.4796 32.5163 21.5004C32.5396 21.5212 32.5713 21.5329 32.6043 21.5329H35.6915C35.7245 21.5329 35.7561 21.5212 35.7795 21.5004C35.8028 21.4796 35.8159 21.4514 35.8159 21.422V21.4104C35.8159 21.381 35.8028 21.3528 35.7795 21.332C35.7561 21.3112 35.7245 21.2995 35.6915 21.2995ZM32.6043 20.3672H33.1281C33.1611 20.3672 33.1927 20.3789 33.2161 20.3997C33.2394 20.4205 33.2525 20.4487 33.2525 20.4782V20.9534C33.2525 20.9828 33.2394 21.011 33.2161 21.0318C33.1927 21.0527 33.1611 21.0643 33.1281 21.0643H32.3517C32.3187 21.0643 32.287 21.076 32.2637 21.0968C32.2403 21.1176 32.2272 21.1458 32.2272 21.1753V21.422C32.2272 21.4514 32.2141 21.4796 32.1908 21.5004C32.1674 21.5212 32.1358 21.5329 32.1027 21.5329H32.0916C32.0586 21.5329 32.0269 21.5212 32.0036 21.5004C31.9803 21.4796 31.9672 21.4514 31.9672 21.422V20.7067C31.9672 20.6772 31.954 20.649 31.9307 20.6282C31.9074 20.6074 31.8757 20.5957 31.8427 20.5957H31.8316C31.7985 20.5957 31.7669 20.6074 31.7436 20.6282C31.7202 20.649 31.7071 20.6772 31.7071 20.7067V21.422C31.7071 21.4514 31.694 21.4796 31.6706 21.5004C31.6473 21.5212 31.6156 21.5329 31.5826 21.5329C31.5496 21.5329 31.518 21.5212 31.4947 21.5004C31.4713 21.4796 31.4582 21.4514 31.4582 21.422V20.7067C31.4582 20.6772 31.4451 20.649 31.4218 20.6282C31.3984 20.6074 31.3667 20.5957 31.3337 20.5957H31.3226C31.2896 20.5957 31.2579 20.6074 31.2346 20.6282C31.2112 20.649 31.1981 20.6772 31.1981 20.7067V21.422C31.1981 21.4514 31.185 21.4796 31.1617 21.5004C31.1383 21.5212 31.1067 21.5329 31.0737 21.5329C31.0407 21.5329 31.009 21.5212 30.9857 21.5004C30.9623 21.4796 30.9492 21.4514 30.9492 21.422V20.4782C30.9492 20.4487 30.9623 20.4205 30.9857 20.3997C31.009 20.3789 31.0407 20.3672 31.0737 20.3672H32.112C32.1451 20.3672 32.1767 20.3789 32.2 20.3997C32.2234 20.4205 32.2365 20.4487 32.2365 20.4782V20.7182C32.2365 20.7477 32.2496 20.7759 32.2729 20.7967C32.2963 20.8175 32.328 20.8292 32.361 20.8292H32.8773C32.9103 20.8292 32.942 20.8175 32.9654 20.7967C32.9887 20.7759 33.0018 20.7477 33.0018 20.7182V20.7067C33.0018 20.6772 32.9887 20.649 32.9654 20.6282C32.942 20.6074 32.9103 20.5957 32.8773 20.5957H32.6136C32.5805 20.5957 32.5489 20.584 32.5256 20.5632C32.5022 20.5424 32.4891 20.5142 32.4891 20.4848V20.4848C32.4881 20.4702 32.4904 20.4556 32.4957 20.4418C32.501 20.428 32.5094 20.4153 32.5202 20.4043C32.5311 20.3934 32.5443 20.3845 32.559 20.3782C32.5738 20.3718 32.5898 20.368 32.6061 20.3672H32.6043Z" fill="#F5F5F5"/>
<path d="M30.5629 20.3675C30.5299 20.3675 30.4983 20.3792 30.4749 20.4C30.4516 20.4208 30.4385 20.449 30.4385 20.4785V20.7185C30.4385 20.748 30.4254 20.7762 30.402 20.797C30.3787 20.8178 30.347 20.8295 30.314 20.8295H29.7939C29.7609 20.8295 29.7293 20.8178 29.7059 20.797C29.6826 20.7762 29.6695 20.748 29.6695 20.7185V20.4785C29.6695 20.449 29.6564 20.4208 29.633 20.4C29.6097 20.3792 29.5781 20.3675 29.5451 20.3675H28.5104C28.4774 20.3675 28.4457 20.3792 28.4224 20.4C28.399 20.4208 28.3859 20.449 28.3859 20.4785V20.9537C28.3859 20.9831 28.399 21.0114 28.4224 21.0322C28.4457 21.053 28.4774 21.0647 28.5104 21.0647H29.0305C29.0635 21.0647 29.0951 21.053 29.1185 21.0322C29.1418 21.0114 29.1549 20.9831 29.1549 20.9537V20.9421C29.1549 20.9127 29.1418 20.8844 29.1185 20.8636C29.0951 20.8428 29.0635 20.8311 29.0305 20.8311H28.7667C28.7337 20.8311 28.702 20.8194 28.6787 20.7986C28.6554 20.7778 28.6423 20.7496 28.6423 20.7202V20.7086C28.6423 20.6792 28.6554 20.651 28.6787 20.6302C28.702 20.6094 28.7337 20.5977 28.7667 20.5977H29.2905C29.3235 20.5977 29.3552 20.6094 29.3786 20.6302C29.4019 20.651 29.415 20.6792 29.415 20.7086V20.9553C29.415 20.9848 29.4281 21.013 29.4515 21.0338C29.4748 21.0546 29.5064 21.0663 29.5394 21.0663H30.5722C30.6052 21.0663 30.6369 21.0546 30.6603 21.0338C30.6836 21.013 30.6967 20.9848 30.6967 20.9553V20.4801C30.697 20.4647 30.6937 20.4494 30.687 20.4352C30.6802 20.4209 30.6703 20.4081 30.6577 20.3975C30.6451 20.3869 30.6302 20.3788 30.6139 20.3736C30.5976 20.3684 30.5802 20.3663 30.5629 20.3675V20.3675ZM30.0502 20.3675C30.0172 20.3675 29.9856 20.3792 29.9623 20.4C29.9389 20.4208 29.9258 20.449 29.9258 20.4785C29.9258 20.5079 29.9389 20.5361 29.9623 20.5569C29.9856 20.5777 30.0172 20.5894 30.0502 20.5894C30.0833 20.5894 30.1149 20.5777 30.1383 20.5569C30.1616 20.5361 30.1747 20.5079 30.1747 20.4785C30.1747 20.4636 30.1714 20.4489 30.1649 20.4352C30.1584 20.4215 30.1489 20.4092 30.137 20.3988C30.125 20.3885 30.1108 20.3804 30.0953 20.375C30.0798 20.3696 30.0632 20.3671 30.0466 20.3675H30.0502ZM30.5629 21.2998H27.4739C27.4409 21.2998 27.4092 21.3115 27.3859 21.3323C27.3626 21.3531 27.3494 21.3813 27.3494 21.4107V21.4223C27.3494 21.4517 27.3626 21.4799 27.3859 21.5008C27.4092 21.5216 27.4409 21.5332 27.4739 21.5332H30.5629C30.5959 21.5332 30.6276 21.5216 30.651 21.5008C30.6743 21.4799 30.6874 21.4517 30.6874 21.4223V21.4107C30.6874 21.3813 30.6743 21.3531 30.651 21.3323C30.6276 21.3115 30.5959 21.2998 30.5629 21.2998ZM27.4739 20.3675H27.9977C28.0307 20.3675 28.0624 20.3792 28.0857 20.4C28.109 20.4208 28.1221 20.449 28.1221 20.4785V20.9537C28.1221 20.9831 28.109 21.0114 28.0857 21.0322C28.0624 21.053 28.0307 21.0647 27.9977 21.0647H27.2194C27.1864 21.0647 27.1548 21.0763 27.1314 21.0971C27.1081 21.1179 27.095 21.1461 27.095 21.1756V21.4223C27.095 21.4517 27.0819 21.4799 27.0585 21.5008C27.0352 21.5216 27.0035 21.5332 26.9705 21.5332C26.9375 21.5332 26.9058 21.5216 26.8825 21.5008C26.8592 21.4799 26.8461 21.4517 26.8461 21.4223V20.707C26.8461 20.6776 26.8329 20.6493 26.8096 20.6285C26.7863 20.6077 26.7546 20.596 26.7216 20.596H26.7105C26.6775 20.596 26.6458 20.6077 26.6224 20.6285C26.5991 20.6493 26.586 20.6776 26.586 20.707V21.4223C26.586 21.4517 26.5729 21.4799 26.5495 21.5008C26.5262 21.5216 26.4946 21.5332 26.4615 21.5332H26.4504C26.434 21.5332 26.4179 21.5304 26.4028 21.5248C26.3877 21.5192 26.374 21.5111 26.3624 21.5008C26.3508 21.4904 26.3417 21.4782 26.3354 21.4648C26.3292 21.4513 26.326 21.4369 26.326 21.4223V20.707C26.326 20.6776 26.3128 20.6493 26.2895 20.6285C26.2662 20.6077 26.2345 20.596 26.2015 20.596V20.596C26.1685 20.596 26.1368 20.6077 26.1135 20.6285C26.0901 20.6493 26.077 20.6776 26.077 20.707V21.4223C26.077 21.4517 26.0639 21.4799 26.0406 21.5008C26.0172 21.5216 25.9856 21.5332 25.9526 21.5332C25.9195 21.5332 25.8879 21.5216 25.8646 21.5008C25.8412 21.4799 25.8281 21.4517 25.8281 21.4223V20.4785C25.8281 20.449 25.8412 20.4208 25.8646 20.4C25.8879 20.3792 25.9195 20.3675 25.9526 20.3675H26.9891C27.0221 20.3675 27.0537 20.3792 27.0771 20.4C27.1004 20.4208 27.1135 20.449 27.1135 20.4785V20.7185C27.1135 20.748 27.1266 20.7762 27.15 20.797C27.1733 20.8178 27.205 20.8295 27.238 20.8295H27.7581C27.7911 20.8295 27.8227 20.8178 27.8461 20.797C27.8694 20.7762 27.8825 20.748 27.8825 20.7185V20.707C27.8825 20.6776 27.8694 20.6493 27.8461 20.6285C27.8227 20.6077 27.7911 20.596 27.7581 20.596H27.4906C27.4576 20.596 27.426 20.5843 27.4026 20.5635C27.3793 20.5427 27.3662 20.5145 27.3662 20.4851C27.3639 20.4574 27.3733 20.43 27.3926 20.4083C27.4118 20.3865 27.4395 20.372 27.4702 20.3675H27.4739Z" fill="#F5F5F5"/>
<path d="M25.419 20.3674C25.386 20.3674 25.3543 20.3791 25.331 20.3999C25.3076 20.4207 25.2945 20.4489 25.2945 20.4784V20.7184C25.2945 20.7479 25.2814 20.7761 25.2581 20.7969C25.2347 20.8177 25.2031 20.8294 25.1701 20.8294H24.65C24.617 20.8294 24.5853 20.8177 24.5619 20.7969C24.5386 20.7761 24.5255 20.7479 24.5255 20.7184V20.4784C24.5255 20.4489 24.5124 20.4207 24.489 20.3999C24.4657 20.3791 24.4341 20.3674 24.4011 20.3674H23.3645C23.3315 20.3674 23.2999 20.3791 23.2766 20.3999C23.2532 20.4207 23.2401 20.4489 23.2401 20.4784V20.9536C23.2401 20.983 23.2532 21.0112 23.2766 21.032C23.2999 21.0529 23.3315 21.0645 23.3645 21.0645H23.8884C23.9214 21.0645 23.953 21.0529 23.9764 21.032C23.9997 21.0112 24.0128 20.983 24.0128 20.9536V20.942C24.0128 20.9126 23.9997 20.8843 23.9764 20.8635C23.953 20.8427 23.9214 20.831 23.8884 20.831H23.6246C23.5916 20.831 23.5599 20.8193 23.5366 20.7985C23.5133 20.7777 23.5001 20.7495 23.5001 20.7201V20.7085C23.5001 20.6791 23.5133 20.6509 23.5366 20.6301C23.5599 20.6093 23.5916 20.5976 23.6246 20.5976H24.1447C24.1777 20.5976 24.2094 20.6093 24.2327 20.6301C24.256 20.6509 24.2692 20.6791 24.2692 20.7085V20.9552C24.2692 20.9847 24.2823 21.0129 24.3056 21.0337C24.3289 21.0545 24.3606 21.0662 24.3936 21.0662H25.4264C25.4594 21.0662 25.4911 21.0545 25.5144 21.0337C25.5377 21.0129 25.5509 20.9847 25.5509 20.9552V20.48C25.5511 20.4647 25.5479 20.4496 25.5413 20.4355C25.5347 20.4213 25.5249 20.4086 25.5125 20.398C25.5002 20.3874 25.4854 20.3793 25.4693 20.374C25.4532 20.3687 25.4361 20.3665 25.419 20.3674ZM24.9063 20.3674C24.8733 20.3674 24.8416 20.3791 24.8183 20.3999C24.7949 20.4207 24.7818 20.4489 24.7818 20.4784C24.7818 20.5078 24.7949 20.536 24.8183 20.5568C24.8416 20.5776 24.8733 20.5893 24.9063 20.5893C24.9393 20.5893 24.971 20.5776 24.9943 20.5568C25.0176 20.536 25.0308 20.5078 25.0308 20.4784C25.0308 20.4498 25.0184 20.4223 24.9963 20.4016C24.9741 20.3809 24.9439 20.3687 24.9119 20.3674H24.9063ZM25.419 21.2997H22.3318C22.2988 21.2997 22.2671 21.3114 22.2438 21.3322C22.2204 21.353 22.2073 21.3812 22.2073 21.4106V21.4222C22.2073 21.4516 22.2204 21.4798 22.2438 21.5006C22.2671 21.5214 22.2988 21.5331 22.3318 21.5331H25.419C25.452 21.5331 25.4836 21.5214 25.507 21.5006C25.5303 21.4798 25.5434 21.4516 25.5434 21.4222V21.4106C25.5434 21.3812 25.5303 21.353 25.507 21.3322C25.4836 21.3114 25.452 21.2997 25.419 21.2997ZM22.3318 20.3674H22.8556C22.8886 20.3674 22.9202 20.3791 22.9436 20.3999C22.9669 20.4207 22.98 20.4489 22.98 20.4784V20.9536C22.98 20.983 22.9669 21.0112 22.9436 21.032C22.9202 21.0529 22.8886 21.0645 22.8556 21.0645H22.0754C22.0424 21.0645 22.0108 21.0762 21.9874 21.097C21.9641 21.1178 21.951 21.146 21.951 21.1755V21.4222C21.951 21.4516 21.9379 21.4798 21.9145 21.5006C21.8912 21.5214 21.8595 21.5331 21.8265 21.5331C21.7935 21.5331 21.7619 21.5214 21.7385 21.5006C21.7152 21.4798 21.7021 21.4516 21.7021 21.4222V20.7069C21.7021 20.6774 21.689 20.6492 21.6656 20.6284C21.6423 20.6076 21.6107 20.5959 21.5776 20.5959C21.5446 20.5959 21.513 20.6076 21.4896 20.6284C21.4663 20.6492 21.4532 20.6774 21.4532 20.7069V21.4222C21.4532 21.4516 21.4401 21.4798 21.4167 21.5006C21.3934 21.5214 21.3617 21.5331 21.3287 21.5331H21.3176C21.3012 21.5331 21.2851 21.5303 21.27 21.5247C21.2549 21.5191 21.2411 21.5109 21.2296 21.5006C21.218 21.4903 21.2089 21.4781 21.2026 21.4647C21.1964 21.4512 21.1931 21.4368 21.1931 21.4222V20.7069C21.1931 20.6774 21.18 20.6492 21.1567 20.6284C21.1334 20.6076 21.1017 20.5959 21.0687 20.5959C21.0356 20.5959 21.004 20.6076 20.9807 20.6284C20.9573 20.6492 20.9442 20.6774 20.9442 20.7069V21.4222C20.9442 21.4516 20.9311 21.4798 20.9078 21.5006C20.8844 21.5214 20.8527 21.5331 20.8197 21.5331C20.7867 21.5331 20.7551 21.5214 20.7318 21.5006C20.7084 21.4798 20.6953 21.4516 20.6953 21.4222V20.4784C20.6953 20.4489 20.7084 20.4207 20.7318 20.3999C20.7551 20.3791 20.7867 20.3674 20.8197 20.3674H21.8525C21.8855 20.3674 21.9172 20.3791 21.9406 20.3999C21.9639 20.4207 21.977 20.4489 21.977 20.4784V20.7184C21.977 20.7479 21.9901 20.7761 22.0135 20.7969C22.0368 20.8177 22.0684 20.8294 22.1014 20.8294H22.6253C22.6583 20.8294 22.6899 20.8177 22.7133 20.7969C22.7366 20.7761 22.7497 20.7479 22.7497 20.7184V20.7069C22.7497 20.6774 22.7366 20.6492 22.7133 20.6284C22.6899 20.6076 22.6583 20.5959 22.6253 20.5959H22.3615C22.3285 20.5959 22.2968 20.5842 22.2735 20.5634C22.2501 20.5426 22.237 20.5144 22.237 20.485C22.2347 20.4576 22.2439 20.4304 22.2628 20.4087C22.2816 20.387 22.3088 20.3722 22.3392 20.3674H22.3318Z" fill="#F5F5F5"/>
<path d="M20.2925 20.3672C20.2595 20.3672 20.2279 20.3789 20.2045 20.3997C20.1812 20.4205 20.1681 20.4487 20.1681 20.4782V20.7182C20.1681 20.7477 20.155 20.7759 20.1316 20.7967C20.1083 20.8175 20.0766 20.8292 20.0436 20.8292H19.5235C19.4905 20.8292 19.4589 20.8175 19.4355 20.7967C19.4122 20.7759 19.3991 20.7477 19.3991 20.7182V20.4782C19.3991 20.4636 19.3959 20.4492 19.3896 20.4357C19.3834 20.4223 19.3742 20.41 19.3626 20.3997C19.3511 20.3894 19.3373 20.3812 19.3222 20.3756C19.3071 20.3701 19.291 20.3672 19.2746 20.3672H18.227C18.194 20.3672 18.1623 20.3789 18.139 20.3997C18.1156 20.4205 18.1025 20.4487 18.1025 20.4782V20.9534C18.1025 20.9828 18.1156 21.011 18.139 21.0318C18.1623 21.0527 18.194 21.0643 18.227 21.0643H18.7508C18.7838 21.0643 18.8155 21.0527 18.8388 21.0318C18.8621 21.011 18.8753 20.9828 18.8753 20.9534V20.9418C18.8753 20.9124 18.8621 20.8841 18.8388 20.8633C18.8155 20.8425 18.7838 20.8308 18.7508 20.8308H18.4833C18.4503 20.8308 18.4187 20.8191 18.3953 20.7983C18.372 20.7775 18.3589 20.7493 18.3589 20.7199V20.7083C18.3589 20.6789 18.372 20.6507 18.3953 20.6299C18.4187 20.6091 18.4503 20.5974 18.4833 20.5974H19.0034C19.0364 20.5974 19.0681 20.6091 19.0914 20.6299C19.1148 20.6507 19.1279 20.6789 19.1279 20.7083V20.955C19.1279 20.9845 19.141 21.0127 19.1643 21.0335C19.1877 21.0543 19.2193 21.066 19.2523 21.066H20.2888C20.3218 21.066 20.3535 21.0543 20.3768 21.0335C20.4002 21.0127 20.4133 20.9845 20.4133 20.955V20.4798C20.4138 20.4507 20.4014 20.4225 20.3788 20.4014C20.3562 20.3804 20.3252 20.3681 20.2925 20.3672ZM19.7762 20.3672C19.7431 20.3672 19.7115 20.3789 19.6881 20.3997C19.6648 20.4205 19.6517 20.4487 19.6517 20.4782V20.4782C19.6517 20.5076 19.6648 20.5358 19.6881 20.5566C19.7115 20.5774 19.7431 20.5891 19.7762 20.5891C19.8092 20.5891 19.8408 20.5774 19.8642 20.5566C19.8875 20.5358 19.9006 20.5076 19.9006 20.4782V20.4782C19.9006 20.4487 19.8875 20.4205 19.8642 20.3997C19.8408 20.3789 19.8092 20.3672 19.7762 20.3672V20.3672ZM20.2925 21.2995H17.2035C17.1705 21.2995 17.1388 21.3112 17.1155 21.332C17.0921 21.3528 17.079 21.381 17.079 21.4104V21.422C17.079 21.4514 17.0921 21.4796 17.1155 21.5004C17.1388 21.5212 17.1705 21.5329 17.2035 21.5329H20.2925C20.3256 21.5329 20.3572 21.5212 20.3806 21.5004C20.4039 21.4796 20.417 21.4514 20.417 21.422V21.4104C20.417 21.381 20.4039 21.3528 20.3806 21.332C20.3572 21.3112 20.3256 21.2995 20.2925 21.2995V21.2995ZM17.2035 20.3672H17.7273C17.7603 20.3672 17.7919 20.3789 17.8153 20.3997C17.8386 20.4205 17.8518 20.4487 17.8518 20.4782V20.9534C17.8518 20.9828 17.8386 21.011 17.8153 21.0318C17.7919 21.0527 17.7603 21.0643 17.7273 21.0643H16.9471C16.9141 21.0643 16.8825 21.076 16.8591 21.0968C16.8358 21.1176 16.8227 21.1458 16.8227 21.1753V21.422C16.8227 21.4514 16.8096 21.4796 16.7862 21.5004C16.7629 21.5212 16.7312 21.5329 16.6982 21.5329C16.6652 21.5329 16.6336 21.5212 16.6102 21.5004C16.5869 21.4796 16.5738 21.4514 16.5738 21.422V20.7067C16.5738 20.6921 16.5706 20.6777 16.5643 20.6642C16.5581 20.6508 16.5489 20.6385 16.5373 20.6282C16.5258 20.6179 16.512 20.6097 16.4969 20.6041C16.4818 20.5986 16.4657 20.5957 16.4493 20.5957V20.5957C16.4163 20.5957 16.3847 20.6074 16.3613 20.6282C16.338 20.649 16.3249 20.6772 16.3249 20.7067V21.422C16.3249 21.4514 16.3118 21.4796 16.2884 21.5004C16.2651 21.5212 16.2334 21.5329 16.2004 21.5329C16.1674 21.5329 16.1357 21.5212 16.1124 21.5004C16.0891 21.4796 16.076 21.4514 16.076 21.422V20.7067C16.076 20.6772 16.0628 20.649 16.0395 20.6282C16.0162 20.6074 15.9845 20.5957 15.9515 20.5957V20.5957C15.9185 20.5957 15.8868 20.6074 15.8635 20.6282C15.8401 20.649 15.827 20.6772 15.827 20.7067V21.422C15.827 21.4514 15.8139 21.4796 15.7906 21.5004C15.7672 21.5212 15.7356 21.5329 15.7026 21.5329C15.6696 21.5329 15.6379 21.5212 15.6146 21.5004C15.5913 21.4796 15.5781 21.4514 15.5781 21.422V20.4782C15.5781 20.4487 15.5913 20.4205 15.6146 20.3997C15.6379 20.3789 15.6696 20.3672 15.7026 20.3672H16.7354C16.7684 20.3672 16.8 20.3789 16.8234 20.3997C16.8467 20.4205 16.8598 20.4487 16.8598 20.4782V20.7182C16.8598 20.7477 16.8729 20.7759 16.8963 20.7967C16.9196 20.8175 16.9513 20.8292 16.9843 20.8292H17.5081C17.5411 20.8292 17.5728 20.8175 17.5961 20.7967C17.6194 20.7759 17.6326 20.7477 17.6326 20.7182V20.7067C17.6326 20.6772 17.6194 20.649 17.5961 20.6282C17.5728 20.6074 17.5411 20.5957 17.5081 20.5957H17.2425C17.2095 20.5957 17.1778 20.584 17.1545 20.5632C17.1311 20.5424 17.118 20.5142 17.118 20.4848V20.4848C17.1149 20.4594 17.1217 20.4339 17.1373 20.4125C17.1529 20.3911 17.1762 20.375 17.2035 20.3672V20.3672Z" fill="#F5F5F5"/>
<path d="M15.1597 20.3674C15.1267 20.3674 15.095 20.3791 15.0717 20.3999C15.0484 20.4207 15.0353 20.4489 15.0353 20.4784V20.7184C15.0353 20.7479 15.0221 20.7761 14.9988 20.7969C14.9755 20.8177 14.9438 20.8294 14.9108 20.8294H14.3907C14.3577 20.8294 14.326 20.8177 14.3027 20.7969C14.2794 20.7761 14.2662 20.7479 14.2662 20.7184V20.4784C14.2662 20.4489 14.2531 20.4207 14.2298 20.3999C14.2064 20.3791 14.1748 20.3674 14.1418 20.3674H13.1053C13.0723 20.3674 13.0406 20.3791 13.0173 20.3999C12.994 20.4207 12.9808 20.4489 12.9808 20.4784V20.9536C12.9808 20.983 12.994 21.0112 13.0173 21.032C13.0406 21.0529 13.0723 21.0645 13.1053 21.0645H13.6254C13.6584 21.0645 13.69 21.0529 13.7134 21.032C13.7367 21.0112 13.7498 20.983 13.7498 20.9536V20.942C13.7498 20.9126 13.7367 20.8843 13.7134 20.8635C13.69 20.8427 13.6584 20.831 13.6254 20.831H13.3654C13.3324 20.831 13.3007 20.8193 13.2774 20.7985C13.254 20.7777 13.2409 20.7495 13.2409 20.7201V20.7085C13.2409 20.6791 13.254 20.6509 13.2774 20.6301C13.3007 20.6093 13.3324 20.5976 13.3654 20.5976H13.8817C13.9148 20.5976 13.9464 20.6093 13.9697 20.6301C13.9931 20.6509 14.0062 20.6791 14.0062 20.7085V20.9552C14.0062 20.9847 14.0193 21.0129 14.0427 21.0337C14.066 21.0545 14.0976 21.0662 14.1306 21.0662H15.1671C15.1835 21.0662 15.1997 21.0633 15.2148 21.0577C15.2299 21.0521 15.2436 21.044 15.2551 21.0337C15.2667 21.0234 15.2759 21.0111 15.2821 20.9977C15.2884 20.9842 15.2916 20.9698 15.2916 20.9552V20.48C15.2919 20.4647 15.2886 20.4496 15.282 20.4355C15.2754 20.4213 15.2656 20.4086 15.2532 20.398C15.2409 20.3874 15.2262 20.3793 15.2101 20.374C15.194 20.3687 15.1768 20.3665 15.1597 20.3674V20.3674ZM14.6433 20.3674C14.6103 20.3674 14.5786 20.3791 14.5553 20.3999C14.532 20.4207 14.5189 20.4489 14.5189 20.4784C14.5189 20.5078 14.532 20.536 14.5553 20.5568C14.5786 20.5776 14.6103 20.5893 14.6433 20.5893V20.5893C14.6597 20.5893 14.6759 20.5864 14.691 20.5808C14.7061 20.5753 14.7198 20.5671 14.7313 20.5568C14.7429 20.5465 14.7521 20.5343 14.7583 20.5208C14.7646 20.5073 14.7678 20.4929 14.7678 20.4784C14.7678 20.4638 14.7646 20.4494 14.7583 20.4359C14.7521 20.4224 14.7429 20.4102 14.7313 20.3999C14.7198 20.3896 14.7061 20.3814 14.691 20.3758C14.6759 20.3702 14.6597 20.3674 14.6433 20.3674V20.3674ZM15.1597 21.2997H12.0706C12.0376 21.2997 12.006 21.3114 11.9826 21.3322C11.9593 21.353 11.9462 21.3812 11.9462 21.4106V21.4222C11.9462 21.4516 11.9593 21.4798 11.9826 21.5006C12.006 21.5214 12.0376 21.5331 12.0706 21.5331H15.1597C15.1927 21.5331 15.2244 21.5214 15.2477 21.5006C15.2711 21.4798 15.2842 21.4516 15.2842 21.4222V21.4106C15.2842 21.3812 15.2711 21.353 15.2477 21.3322C15.2244 21.3114 15.1927 21.2997 15.1597 21.2997ZM12.0706 20.3674H12.5908C12.6238 20.3674 12.6554 20.3791 12.6788 20.3999C12.7021 20.4207 12.7152 20.4489 12.7152 20.4784V20.9536C12.7152 20.983 12.7021 21.0112 12.6788 21.032C12.6554 21.0529 12.6238 21.0645 12.5908 21.0645H11.8143C11.7813 21.0645 11.7496 21.0762 11.7263 21.097C11.703 21.1178 11.6899 21.146 11.6899 21.1755V21.4222C11.6899 21.4368 11.6866 21.4512 11.6804 21.4647C11.6741 21.4781 11.665 21.4903 11.6534 21.5006C11.6418 21.5109 11.6281 21.5191 11.613 21.5247C11.5979 21.5303 11.5817 21.5331 11.5654 21.5331V21.5331C11.5324 21.5331 11.5007 21.5214 11.4774 21.5006C11.454 21.4798 11.4409 21.4516 11.4409 21.4222V20.7069C11.4409 20.6774 11.4278 20.6492 11.4045 20.6284C11.3811 20.6076 11.3495 20.5959 11.3165 20.5959C11.2835 20.5959 11.2518 20.6076 11.2285 20.6284C11.2051 20.6492 11.192 20.6774 11.192 20.7069V21.4222C11.192 21.4516 11.1789 21.4798 11.1556 21.5006C11.1322 21.5214 11.1006 21.5331 11.0676 21.5331V21.5331C11.0346 21.5331 11.0029 21.5214 10.9796 21.5006C10.9563 21.4798 10.9431 21.4516 10.9431 21.4222V20.7069C10.9431 20.6774 10.93 20.6492 10.9067 20.6284C10.8834 20.6076 10.8517 20.5959 10.8187 20.5959C10.7857 20.5959 10.754 20.6076 10.7307 20.6284C10.7073 20.6492 10.6942 20.6774 10.6942 20.7069V21.4222C10.6942 21.4368 10.691 21.4512 10.6848 21.4647C10.6785 21.4781 10.6693 21.4903 10.6578 21.5006C10.6462 21.5109 10.6325 21.5191 10.6174 21.5247C10.6023 21.5303 10.5861 21.5331 10.5698 21.5331V21.5331C10.5368 21.5331 10.5051 21.5214 10.4818 21.5006C10.4584 21.4798 10.4453 21.4516 10.4453 21.4222V20.4784C10.4453 20.4489 10.4584 20.4207 10.4818 20.3999C10.5051 20.3791 10.5368 20.3674 10.5698 20.3674H11.6026C11.6189 20.3674 11.6351 20.3702 11.6502 20.3758C11.6653 20.3814 11.679 20.3896 11.6906 20.3999C11.7021 20.4102 11.7113 20.4224 11.7175 20.4359C11.7238 20.4494 11.727 20.4638 11.727 20.4784V20.7184C11.727 20.7479 11.7401 20.7761 11.7635 20.7969C11.7868 20.8177 11.8185 20.8294 11.8515 20.8294H12.3734C12.4064 20.8294 12.4381 20.8177 12.4614 20.7969C12.4848 20.7761 12.4979 20.7479 12.4979 20.7184V20.7069C12.4979 20.6774 12.4848 20.6492 12.4614 20.6284C12.4381 20.6076 12.4064 20.5959 12.3734 20.5959H12.1078C12.0748 20.5959 12.0431 20.5842 12.0198 20.5634C11.9965 20.5426 11.9834 20.5144 11.9834 20.485V20.485C11.9804 20.4594 11.9874 20.4337 12.0034 20.4123C12.0193 20.3908 12.0431 20.3749 12.0706 20.3674V20.3674Z" fill="#F5F5F5"/>
<path d="M10.0263 20.3672C9.99334 20.3672 9.96168 20.3789 9.93834 20.3997C9.915 20.4205 9.90189 20.4487 9.90189 20.4782V20.7182C9.90189 20.7477 9.88878 20.7759 9.86544 20.7967C9.8421 20.8175 9.81044 20.8292 9.77743 20.8292H9.24246C9.20945 20.8292 9.1778 20.8175 9.15446 20.7967C9.13112 20.7759 9.118 20.7477 9.118 20.7182V20.4782C9.118 20.4487 9.10489 20.4205 9.08155 20.3997C9.05821 20.3789 9.02657 20.3672 8.99356 20.3672H7.96077C7.92777 20.3672 7.89611 20.3789 7.87277 20.3997C7.84943 20.4205 7.83632 20.4487 7.83632 20.4782V20.9534C7.83632 20.9828 7.84943 21.011 7.87277 21.0318C7.89611 21.0527 7.92777 21.0643 7.96077 21.0643H8.48088C8.51389 21.0643 8.54553 21.0527 8.56887 21.0318C8.59221 21.011 8.60534 20.9828 8.60534 20.9534V20.9418C8.60534 20.9124 8.59221 20.8841 8.56887 20.8633C8.54553 20.8425 8.51389 20.8308 8.48088 20.8308H8.21339C8.18038 20.8308 8.14873 20.8191 8.12539 20.7983C8.10205 20.7775 8.08893 20.7493 8.08893 20.7199V20.7083C8.08893 20.6789 8.10205 20.6507 8.12539 20.6299C8.14873 20.6091 8.18038 20.5974 8.21339 20.5974H8.73907C8.77208 20.5974 8.80373 20.6091 8.82707 20.6299C8.85041 20.6507 8.86353 20.6789 8.86353 20.7083V20.955C8.86353 20.9845 8.87664 21.0127 8.89998 21.0335C8.92332 21.0543 8.95497 21.066 8.98797 21.066H10.0208C10.0538 21.066 10.0854 21.0543 10.1088 21.0335C10.1321 21.0127 10.1452 20.9845 10.1452 20.955V20.4798C10.1457 20.451 10.1336 20.423 10.1114 20.402C10.0892 20.381 10.0587 20.3685 10.0263 20.3672V20.3672ZM9.51366 20.3672H9.50251C9.4695 20.3672 9.43786 20.3789 9.41452 20.3997C9.39118 20.4205 9.37805 20.4487 9.37805 20.4782C9.37805 20.5076 9.39118 20.5358 9.41452 20.5566C9.43786 20.5774 9.4695 20.5891 9.50251 20.5891H9.51366C9.54667 20.5891 9.57832 20.5774 9.60166 20.5566C9.625 20.5358 9.63812 20.5076 9.63812 20.4782C9.63812 20.4487 9.625 20.4205 9.60166 20.3997C9.57832 20.3789 9.54667 20.3672 9.51366 20.3672V20.3672ZM10.0263 21.2995H6.93727C6.90426 21.2995 6.8726 21.3112 6.84926 21.332C6.82592 21.3528 6.81281 21.381 6.81281 21.4104V21.422C6.81281 21.4514 6.82592 21.4796 6.84926 21.5004C6.8726 21.5212 6.90426 21.5329 6.93727 21.5329H10.0263C10.0594 21.5329 10.091 21.5212 10.1143 21.5004C10.1377 21.4796 10.1508 21.4514 10.1508 21.422V21.4104C10.1508 21.381 10.1377 21.3528 10.1143 21.332C10.091 21.3112 10.0594 21.2995 10.0263 21.2995ZM6.93727 20.3672H7.45738C7.49038 20.3672 7.52204 20.3789 7.54538 20.3997C7.56872 20.4205 7.58183 20.4487 7.58183 20.4782V20.9534C7.58183 20.9828 7.56872 21.011 7.54538 21.0318C7.52204 21.0527 7.49038 21.0643 7.45738 21.0643H6.68093C6.64792 21.0643 6.61626 21.076 6.59292 21.0968C6.56958 21.1176 6.55647 21.1458 6.55647 21.1753V21.422C6.55647 21.4514 6.54336 21.4796 6.52002 21.5004C6.49668 21.5212 6.46502 21.5329 6.43202 21.5329C6.39901 21.5329 6.36736 21.5212 6.34402 21.5004C6.32069 21.4796 6.30756 21.4514 6.30756 21.422V20.7067C6.30756 20.6772 6.29445 20.649 6.27111 20.6282C6.24777 20.6074 6.21613 20.5957 6.18312 20.5957C6.15011 20.5957 6.11845 20.6074 6.09511 20.6282C6.07177 20.649 6.05866 20.6772 6.05866 20.7067V21.422C6.05866 21.4514 6.04555 21.4796 6.02221 21.5004C5.99887 21.5212 5.96721 21.5329 5.9342 21.5329V21.5329C5.9012 21.5329 5.86954 21.5212 5.8462 21.5004C5.82286 21.4796 5.80975 21.4514 5.80975 21.422V20.7067C5.80975 20.6772 5.79664 20.649 5.7733 20.6282C5.74996 20.6074 5.7183 20.5957 5.68529 20.5957H5.67415C5.64114 20.5957 5.60948 20.6074 5.58614 20.6282C5.56281 20.649 5.54969 20.6772 5.54969 20.7067V21.422C5.54969 21.4514 5.53658 21.4796 5.51325 21.5004C5.48991 21.5212 5.45825 21.5329 5.42524 21.5329C5.39223 21.5329 5.36059 21.5212 5.33725 21.5004C5.31391 21.4796 5.30078 21.4514 5.30078 21.422V20.4782C5.30078 20.4487 5.31391 20.4205 5.33725 20.3997C5.36059 20.3789 5.39223 20.3672 5.42524 20.3672H6.45802C6.49103 20.3672 6.52269 20.3789 6.54603 20.3997C6.56937 20.4205 6.58248 20.4487 6.58248 20.4782V20.7182C6.58248 20.7477 6.59559 20.7759 6.61893 20.7967C6.64227 20.8175 6.67393 20.8292 6.70694 20.8292H7.22333C7.25634 20.8292 7.288 20.8175 7.31134 20.7967C7.33468 20.7759 7.34779 20.7477 7.34779 20.7182V20.7067C7.34779 20.6772 7.33468 20.649 7.31134 20.6282C7.288 20.6074 7.25634 20.5957 7.22333 20.5957H6.96328C6.93027 20.5957 6.89861 20.584 6.87527 20.5632C6.85193 20.5424 6.83882 20.5142 6.83882 20.4848V20.4848C6.83636 20.4579 6.84501 20.4311 6.86314 20.4094C6.88126 20.3878 6.90762 20.3727 6.93727 20.3672V20.3672Z" fill="#F5F5F5"/>
<path d="M4.88718 20.3672C4.85417 20.3672 4.82252 20.3789 4.79918 20.3997C4.77584 20.4205 4.76272 20.4487 4.76272 20.4782V20.7182C4.76272 20.7477 4.74961 20.7759 4.72627 20.7967C4.70293 20.8175 4.67128 20.8292 4.63827 20.8292H4.11816C4.08515 20.8292 4.0535 20.8175 4.03016 20.7967C4.00682 20.7759 3.99371 20.7477 3.99371 20.7182V20.4782C3.99371 20.4487 3.9806 20.4205 3.95726 20.3997C3.93392 20.3789 3.90226 20.3672 3.86926 20.3672H2.83276C2.79975 20.3672 2.76809 20.3789 2.74475 20.3997C2.72141 20.4205 2.7083 20.4487 2.7083 20.4782V20.9534C2.7083 20.9828 2.72141 21.011 2.74475 21.0318C2.76809 21.0527 2.79975 21.0643 2.83276 21.0643H3.34915C3.38216 21.0643 3.41381 21.0527 3.43715 21.0318C3.46049 21.011 3.4736 20.9828 3.4736 20.9534V20.9418C3.4736 20.9124 3.46049 20.8841 3.43715 20.8633C3.41381 20.8425 3.38216 20.8308 3.34915 20.8308H3.08538C3.05237 20.8308 3.02072 20.8191 2.99738 20.7983C2.97404 20.7775 2.96093 20.7493 2.96093 20.7199V20.7083C2.96093 20.6789 2.97404 20.6507 2.99738 20.6299C3.02072 20.6091 3.05237 20.5974 3.08538 20.5974H3.60177C3.63478 20.5974 3.66644 20.6091 3.68978 20.6299C3.71312 20.6507 3.72623 20.6789 3.72623 20.7083V20.955C3.72623 20.9845 3.73934 21.0127 3.76268 21.0335C3.78602 21.0543 3.81768 21.066 3.85068 21.066H4.88347C4.91648 21.066 4.94813 21.0543 4.97147 21.0335C4.99481 21.0127 5.00792 20.9845 5.00792 20.955V20.4798C5.00842 20.4507 4.99604 20.4225 4.97345 20.4014C4.95085 20.3804 4.91986 20.3681 4.88718 20.3672V20.3672ZM4.3745 20.3672C4.34149 20.3672 4.30984 20.3789 4.2865 20.3997C4.26316 20.4205 4.25005 20.4487 4.25005 20.4782V20.4782C4.25005 20.5076 4.26316 20.5358 4.2865 20.5566C4.30984 20.5774 4.34149 20.5891 4.3745 20.5891V20.5891C4.40751 20.5891 4.43917 20.5774 4.46251 20.5566C4.48585 20.5358 4.49896 20.5076 4.49896 20.4782V20.4782C4.49896 20.4487 4.48585 20.4205 4.46251 20.3997C4.43917 20.3789 4.40751 20.3672 4.3745 20.3672V20.3672ZM4.88718 21.2995H1.7944C1.76139 21.2995 1.72974 21.3112 1.7064 21.332C1.68306 21.3528 1.66995 21.381 1.66995 21.4104V21.422C1.66995 21.4514 1.68306 21.4796 1.7064 21.5004C1.72974 21.5212 1.76139 21.5329 1.7944 21.5329H4.88718C4.92019 21.5329 4.95184 21.5212 4.97518 21.5004C4.99852 21.4796 5.01164 21.4514 5.01164 21.422V21.4104C5.01164 21.381 4.99852 21.3528 4.97518 21.332C4.95184 21.3112 4.92019 21.2995 4.88718 21.2995ZM1.7944 20.3672H2.32008C2.35309 20.3672 2.38474 20.3789 2.40808 20.3997C2.43142 20.4205 2.44453 20.4487 2.44453 20.4782V20.9534C2.44453 20.9828 2.43142 21.011 2.40808 21.0318C2.38474 21.0527 2.35309 21.0643 2.32008 21.0643H1.54363C1.51063 21.0643 1.47897 21.076 1.45563 21.0968C1.43229 21.1176 1.41918 21.1458 1.41918 21.1753V21.422C1.41918 21.4514 1.40607 21.4796 1.38273 21.5004C1.35939 21.5212 1.32773 21.5329 1.29473 21.5329H1.28358C1.25057 21.5329 1.21891 21.5212 1.19557 21.5004C1.17223 21.4796 1.15912 21.4514 1.15912 21.422V20.7067C1.15912 20.6772 1.14601 20.649 1.12267 20.6282C1.09933 20.6074 1.06767 20.5957 1.03467 20.5957C1.00166 20.5957 0.970006 20.6074 0.946667 20.6282C0.923327 20.649 0.910217 20.6772 0.910217 20.7067V21.422C0.910217 21.4514 0.8971 21.4796 0.87376 21.5004C0.85042 21.5212 0.818767 21.5329 0.78576 21.5329C0.752753 21.5329 0.7211 21.5212 0.69776 21.5004C0.67442 21.4796 0.661303 21.4514 0.661303 21.422V20.7067C0.661303 20.6772 0.648193 20.649 0.624853 20.6282C0.601513 20.6074 0.569861 20.5957 0.536853 20.5957H0.525707C0.4927 20.5957 0.461047 20.6074 0.437707 20.6282C0.414368 20.649 0.40125 20.6772 0.40125 20.7067V21.422C0.40125 21.4514 0.38814 21.4796 0.3648 21.5004C0.341461 21.5212 0.309808 21.5329 0.276801 21.5329C0.243793 21.5329 0.212133 21.5212 0.188794 21.5004C0.165454 21.4796 0.152344 21.4514 0.152344 21.422V20.4782C0.152344 20.4487 0.165454 20.4205 0.188794 20.3997C0.212133 20.3789 0.243793 20.3672 0.276801 20.3672H1.3133C1.34631 20.3672 1.37796 20.3789 1.4013 20.3997C1.42464 20.4205 1.43776 20.4487 1.43776 20.4782V20.7182C1.43776 20.7477 1.45087 20.7759 1.47421 20.7967C1.49754 20.8175 1.5292 20.8292 1.56221 20.8292H2.08232C2.11533 20.8292 2.14698 20.8175 2.17032 20.7967C2.19366 20.7759 2.20677 20.7477 2.20677 20.7182V20.7067C2.20677 20.6772 2.19366 20.649 2.17032 20.6282C2.14698 20.6074 2.11533 20.5957 2.08232 20.5957H1.81298C1.77997 20.5957 1.74831 20.584 1.72497 20.5632C1.70163 20.5424 1.68852 20.5142 1.68852 20.4848C1.68631 20.4569 1.69598 20.4293 1.71561 20.4075C1.73525 20.3857 1.76338 20.3713 1.7944 20.3672V20.3672Z" fill="#F5F5F5"/>
<path d="M35.689 19.6582H33.6309C33.5979 19.6582 33.5662 19.6699 33.5429 19.6907C33.5196 19.7115 33.5065 19.7397 33.5065 19.7691V20.0159C33.5065 20.0453 33.5196 20.0735 33.5429 20.0943C33.5662 20.1151 33.5979 20.1268 33.6309 20.1268H35.689C35.722 20.1268 35.7537 20.1151 35.7771 20.0943C35.8004 20.0735 35.8135 20.0453 35.8135 20.0159V19.7691C35.8135 19.7397 35.8004 19.7115 35.7771 19.6907C35.7537 19.6699 35.722 19.6582 35.689 19.6582V19.6582ZM33.1256 19.6582H31.0619C31.0289 19.6582 30.9973 19.6699 30.9739 19.6907C30.9506 19.7115 30.9375 19.7397 30.9375 19.7691V20.0159C30.9375 20.0453 30.9506 20.0735 30.9739 20.0943C30.9973 20.1151 31.0289 20.1268 31.0619 20.1268H33.1256C33.1586 20.1268 33.1903 20.1151 33.2137 20.0943C33.237 20.0735 33.2501 20.0453 33.2501 20.0159V19.7691C33.2501 19.7397 33.237 19.7115 33.2137 19.6907C33.1903 19.6699 33.1586 19.6582 33.1256 19.6582V19.6582Z" fill="#F5F5F5"/>
<path d="M30.5659 19.6583H28.5041C28.4711 19.6583 28.4394 19.6699 28.416 19.6907C28.3927 19.7116 28.3796 19.7397 28.3796 19.7692V20.0159C28.3796 20.0453 28.3927 20.0735 28.416 20.0944C28.4394 20.1152 28.4711 20.1268 28.5041 20.1268H30.5659C30.5989 20.1268 30.6306 20.1152 30.6539 20.0944C30.6773 20.0735 30.6904 20.0453 30.6904 20.0159V19.7692C30.6904 19.7397 30.6773 19.7116 30.6539 19.6907C30.6306 19.6699 30.5989 19.6583 30.5659 19.6583V19.6583ZM27.9988 19.6583H25.937C25.904 19.6583 25.8723 19.6699 25.8489 19.6907C25.8256 19.7116 25.8125 19.7397 25.8125 19.7692V20.0159C25.8125 20.0453 25.8256 20.0735 25.8489 20.0944C25.8723 20.1152 25.904 20.1268 25.937 20.1268H27.9988C28.0318 20.1268 28.0635 20.1152 28.0868 20.0944C28.1101 20.0735 28.1232 20.0453 28.1232 20.0159V19.7692C28.1232 19.7543 28.1199 19.7396 28.1134 19.726C28.107 19.7123 28.0974 19.6999 28.0855 19.6895C28.0735 19.6792 28.0594 19.6711 28.0439 19.6657C28.0283 19.6604 28.0117 19.6578 27.9951 19.6583H27.9988Z" fill="#F5F5F5"/>
<path d="M25.4255 19.6582H23.3636C23.3306 19.6582 23.299 19.6699 23.2756 19.6907C23.2523 19.7115 23.2392 19.7397 23.2392 19.7691V20.0159C23.2392 20.0453 23.2523 20.0735 23.2756 20.0943C23.299 20.1151 23.3306 20.1268 23.3636 20.1268H25.4255C25.4585 20.1268 25.4901 20.1151 25.5135 20.0943C25.5368 20.0735 25.5499 20.0453 25.5499 20.0159V19.7691C25.5499 19.7397 25.5368 19.7115 25.5135 19.6907C25.4901 19.6699 25.4585 19.6582 25.4255 19.6582V19.6582ZM22.8621 19.6582H20.8002C20.7672 19.6582 20.7356 19.6699 20.7122 19.6907C20.6889 19.7115 20.6758 19.7397 20.6758 19.7691V20.0159C20.6758 20.0453 20.6889 20.0735 20.7122 20.0943C20.7356 20.1151 20.7672 20.1268 20.8002 20.1268H22.864C22.897 20.1268 22.9286 20.1151 22.9519 20.0943C22.9753 20.0735 22.9884 20.0453 22.9884 20.0159V19.7691C22.9884 19.7397 22.9753 19.7115 22.9519 19.6907C22.9286 19.6699 22.897 19.6582 22.864 19.6582H22.8621Z" fill="#F5F5F5"/>
<path d="M20.2964 19.6583H18.2382C18.2052 19.6583 18.1736 19.6699 18.1502 19.6907C18.1269 19.7116 18.1138 19.7397 18.1138 19.7692V20.0159C18.1138 20.0453 18.1269 20.0735 18.1502 20.0944C18.1736 20.1152 18.2052 20.1268 18.2382 20.1268H20.3001C20.3331 20.1268 20.3648 20.1152 20.3881 20.0944C20.4115 20.0735 20.4246 20.0453 20.4246 20.0159V19.7692C20.4246 19.7543 20.4212 19.7396 20.4147 19.726C20.4082 19.7123 20.3988 19.6999 20.3868 19.6895C20.3749 19.6792 20.3607 19.6711 20.3451 19.6657C20.3296 19.6604 20.313 19.6578 20.2964 19.6583V19.6583ZM17.7293 19.6583H15.6674C15.6344 19.6583 15.6028 19.6699 15.5794 19.6907C15.5561 19.7116 15.543 19.7397 15.543 19.7692V20.0159C15.543 20.0453 15.5561 20.0735 15.5794 20.0944C15.6028 20.1152 15.6344 20.1268 15.6674 20.1268H17.7293C17.7456 20.1268 17.7618 20.124 17.7769 20.1184C17.792 20.1128 17.8057 20.1047 17.8173 20.0944C17.8288 20.0841 17.838 20.0718 17.8443 20.0584C17.8505 20.0449 17.8537 20.0305 17.8537 20.0159V19.7692C17.8537 19.7397 17.8406 19.7116 17.8173 19.6907C17.7939 19.6699 17.7623 19.6583 17.7293 19.6583V19.6583Z" fill="#F5F5F5"/>
<path d="M15.1558 19.6582H13.0902C13.0572 19.6582 13.0255 19.6699 13.0022 19.6907C12.9789 19.7115 12.9657 19.7397 12.9657 19.7691V20.0159C12.9657 20.0453 12.9789 20.0735 13.0022 20.0943C13.0255 20.1151 13.0572 20.1268 13.0902 20.1268H15.1521C15.1851 20.1268 15.2167 20.1151 15.24 20.0943C15.2634 20.0735 15.2765 20.0453 15.2765 20.0159V19.7691C15.2765 19.7403 15.2639 19.7126 15.2414 19.6919C15.2188 19.6711 15.1881 19.6591 15.1558 19.6582V19.6582ZM12.5849 19.6582H10.5268C10.4938 19.6582 10.4621 19.6699 10.4388 19.6907C10.4155 19.7115 10.4023 19.7397 10.4023 19.7691V20.0159C10.4023 20.0453 10.4155 20.0735 10.4388 20.0943C10.4621 20.1151 10.4938 20.1268 10.5268 20.1268H12.5849C12.618 20.1268 12.6496 20.1151 12.673 20.0943C12.6963 20.0735 12.7094 20.0453 12.7094 20.0159V19.7691C12.7094 19.74 12.6965 19.712 12.6736 19.6913C12.6507 19.6705 12.6195 19.6586 12.5868 19.6582H12.5849Z" fill="#F5F5F5"/>
<path d="M10.0229 19.6582H7.9611C7.92809 19.6582 7.89643 19.6699 7.87309 19.6907C7.84975 19.7115 7.83664 19.7397 7.83664 19.7691V20.0159C7.83664 20.0453 7.84975 20.0735 7.87309 20.0943C7.89643 20.1151 7.92809 20.1268 7.9611 20.1268H10.0229C10.0559 20.1268 10.0876 20.1151 10.1109 20.0943C10.1343 20.0735 10.1474 20.0453 10.1474 20.0159V19.7691C10.1474 19.7397 10.1343 19.7115 10.1109 19.6907C10.0876 19.6699 10.0559 19.6582 10.0229 19.6582V19.6582ZM7.45213 19.6582H5.39399C5.36098 19.6582 5.32932 19.6699 5.30598 19.6907C5.28264 19.7115 5.26953 19.7397 5.26953 19.7691V20.0159C5.26953 20.0453 5.28264 20.0735 5.30598 20.0943C5.32932 20.1151 5.36098 20.1268 5.39399 20.1268H7.45213C7.48514 20.1268 7.51679 20.1151 7.54012 20.0943C7.56346 20.0735 7.57659 20.0453 7.57659 20.0159V19.7691C7.57659 19.74 7.56373 19.712 7.54079 19.6913C7.51785 19.6705 7.48667 19.6586 7.45399 19.6582H7.45213Z" fill="#F5F5F5"/>
<path d="M4.8866 19.6583H2.83032C2.79731 19.6583 2.76566 19.67 2.74232 19.6908C2.71898 19.7116 2.70586 19.7398 2.70586 19.7692V20.016C2.70586 20.0454 2.71898 20.0736 2.74232 20.0944C2.76566 20.1152 2.79731 20.1269 2.83032 20.1269H4.88846C4.92147 20.1269 4.95312 20.1152 4.97646 20.0944C4.9998 20.0736 5.01291 20.0454 5.01291 20.016V19.7692C5.01292 19.7545 5.00964 19.74 5.00327 19.7264C4.9969 19.7129 4.98757 19.7005 4.97581 19.6902C4.96406 19.6799 4.95011 19.6718 4.9348 19.6663C4.91949 19.6608 4.9031 19.6581 4.8866 19.6583V19.6583ZM2.3195 19.6583H0.265075C0.232067 19.6583 0.200415 19.67 0.177075 19.6908C0.153735 19.7116 0.140625 19.7398 0.140625 19.7692V20.016C0.140625 20.0454 0.153735 20.0736 0.177075 20.0944C0.200415 20.1152 0.232067 20.1269 0.265075 20.1269H2.32693C2.35994 20.1269 2.39159 20.1152 2.41493 20.0944C2.43827 20.0736 2.45139 20.0454 2.45139 20.016V19.7692C2.45141 19.7542 2.44801 19.7394 2.44141 19.7256C2.43481 19.7118 2.42514 19.6994 2.41299 19.689C2.40084 19.6786 2.38645 19.6706 2.3707 19.6653C2.35495 19.66 2.33817 19.6576 2.32136 19.6583H2.3195Z" fill="#F5F5F5"/>
<path d="M17.3195 12.0787C17.8307 11.8928 18.3905 11.8406 18.9337 11.928C19.0202 11.8537 19.0829 11.7603 19.1155 11.6573C19.1482 11.5543 19.1495 11.4454 19.1195 11.3418C19.0657 11.4204 18.9949 11.4887 18.9113 11.5428C18.8277 11.5969 18.7329 11.6357 18.6324 11.657C18.5319 11.6782 18.4276 11.6815 18.3257 11.6666C18.2237 11.6518 18.1261 11.619 18.0384 11.5703C18.0198 11.5587 17.9938 11.5471 17.979 11.5372C17.8113 11.6476 17.6017 11.6948 17.3954 11.6688C17.189 11.6428 17.0024 11.5456 16.8756 11.3981C16.8632 11.3787 16.8495 11.3599 16.8347 11.3418C16.8121 11.4186 16.8067 11.4986 16.8188 11.5772C16.8309 11.6558 16.8604 11.7316 16.9054 11.8C16.9505 11.8685 17.0102 11.9283 17.0813 11.9762C17.1524 12.024 17.2333 12.0588 17.3195 12.0787V12.0787Z" fill="#FF4B55"/>
<path d="M18.7806 18.6095C19.375 18.3241 19.8851 17.9172 20.2691 17.4222C20.653 16.9271 20.8998 16.358 20.9894 15.7615C21.0789 15.165 21.0086 14.5581 20.7841 13.9904C20.5597 13.4228 20.1876 12.9107 19.6983 12.496C19.6896 12.4868 19.6773 12.481 19.6639 12.48C19.6505 12.4789 19.6371 12.4826 19.6268 12.4903C19.6164 12.4979 19.6099 12.509 19.6087 12.5209C19.6075 12.5329 19.6116 12.5448 19.6202 12.554C20.2218 13.4313 20.4356 14.4768 20.2199 15.4869C20.0043 16.497 19.3747 17.3994 18.4537 18.0184L18.5447 12.7891C18.5453 12.754 18.5369 12.7192 18.5202 12.6873C18.5035 12.6555 18.4788 12.6274 18.4481 12.6053L18.1361 12.3801C18.09 12.3465 18.0322 12.3281 17.9726 12.3281C17.913 12.3281 17.8553 12.3465 17.8092 12.3801L17.5027 12.6037C17.4725 12.6257 17.4483 12.6535 17.4319 12.6851C17.4155 12.7166 17.4073 12.7511 17.4079 12.7858L17.4971 18.02C16.5776 17.4001 15.9489 16.4979 15.7331 15.4883C15.5172 14.4787 15.7294 13.4337 16.3287 12.5557C16.3373 12.5464 16.3415 12.5345 16.3403 12.5226C16.339 12.5106 16.3326 12.4996 16.3222 12.4919C16.3119 12.4842 16.2985 12.4805 16.2851 12.4816C16.2717 12.4827 16.2593 12.4885 16.2507 12.4977C15.7614 12.9124 15.3892 13.4245 15.1648 13.9921C14.9404 14.5597 14.8701 15.1666 14.9596 15.7632C15.0492 16.3597 15.296 16.9288 15.6799 17.4238C16.0638 17.9189 16.5739 18.3258 17.1683 18.6112C16.6315 18.779 16.0652 18.8592 15.4965 18.848C15.4848 18.8488 15.4737 18.8531 15.4651 18.8603C15.4565 18.8675 15.4509 18.877 15.4491 18.8874C15.4474 18.8978 15.4497 18.9084 15.4556 18.9175C15.4615 18.9265 15.4707 18.9336 15.4817 18.9374C16.1859 19.1276 16.9335 19.1516 17.6513 19.0069L17.9262 19.4821C17.9307 19.4894 17.9373 19.4955 17.9453 19.4997C17.9533 19.5039 17.9624 19.5061 17.9717 19.5061C17.981 19.5061 17.9901 19.5039 17.9981 19.4997C18.0061 19.4955 18.0127 19.4894 18.0172 19.4821L18.294 19.0069C19.0118 19.1514 19.7593 19.1274 20.4636 18.9374C20.4745 18.9336 20.4837 18.9265 20.4897 18.9175C20.4956 18.9084 20.4978 18.8978 20.4961 18.8874C20.4944 18.877 20.4887 18.8675 20.4801 18.8603C20.4715 18.8531 20.4604 18.8488 20.4487 18.848C19.8812 18.858 19.3162 18.7773 18.7806 18.6095Z" fill="#FF4B55"/>
<path d="M22.2097 13.7466C21.7805 13.0321 21.0668 12.4869 20.2091 12.2182C20.1979 12.2149 20.1856 12.215 20.1745 12.2187C20.1634 12.2224 20.154 12.2294 20.1479 12.2384C20.1419 12.2475 20.1395 12.2582 20.1411 12.2687C20.1428 12.2792 20.1484 12.2888 20.1571 12.296C21.0705 12.9665 21.6624 13.9225 21.8119 14.9688C21.9614 16.0151 21.6572 17.0729 20.9614 17.926C20.8852 18.0154 20.8053 18.1098 20.7255 18.1893C21.1511 17.9853 21.5274 17.7084 21.8326 17.3744C22.1378 17.0404 22.3659 16.6559 22.5038 16.243C22.6417 15.8302 22.6868 15.3971 22.6363 14.9686C22.5858 14.5402 22.4408 14.1249 22.2097 13.7466V13.7466Z" fill="#FF4B55"/>
<path d="M15.0001 17.9191C14.3039 17.0664 13.9991 16.0089 14.1479 14.9627C14.2967 13.9164 14.8878 12.9601 15.8007 12.2892C15.8093 12.282 15.815 12.2723 15.8166 12.2618C15.8183 12.2514 15.8159 12.2407 15.8098 12.2316C15.8037 12.2225 15.7944 12.2156 15.7833 12.2119C15.7721 12.2082 15.7599 12.208 15.7487 12.2114C15.0814 12.425 14.4978 12.8061 14.0681 13.3088C13.6384 13.8115 13.3811 14.4143 13.3271 15.0444C13.2731 15.6746 13.4248 16.3052 13.7638 16.8602C14.1028 17.4153 14.6148 17.871 15.2378 18.1725C15.1522 18.093 15.0728 18.0083 15.0001 17.9191V17.9191Z" fill="#FF4B55"/>
</g>
</g>
<defs>
<filter id="filter0_d_8663_13837" x="0.270342" y="0.270342" width="35.4593" height="29.4593" filterUnits="userSpaceOnUse" color-interpolation-filters="sRGB">
<feFlood flood-opacity="0" result="BackgroundImageFix"/>
<feColorMatrix in="SourceAlpha" type="matrix" values="0 0 0 0 0 0 0 0 0 0 0 0 0 0 0 0 0 0 127 0" result="hardAlpha"/>
<feOffset/>
<feGaussianBlur stdDeviation="0.864829"/>
<feColorMatrix type="matrix" values="0 0 0 0 0 0 0 0 0 0 0 0 0 0 0 0 0 0 0.25 0"/>
<feBlend mode="normal" in2="BackgroundImageFix" result="effect1_dropShadow_8663_13837"/>
<feBlend mode="normal" in="SourceGraphic" in2="effect1_dropShadow_8663_13837" result="shape"/>
</filter>
</defs>
</svg>
