<svg width="1920" height="362" viewBox="0 0 1920 362" fill="none" xmlns="http://www.w3.org/2000/svg">
<path d="M73.5424 93.9084C84.2165 93.8909 94.766 96.2027 104.455 100.683C114.143 105.162 122.738 111.702 129.638 119.846C136.154 108.901 145.402 99.838 156.475 93.5446C167.549 87.2512 180.068 83.9439 192.806 83.947C204.724 83.94 216.465 86.833 227.016 92.3764C237.568 97.9197 246.611 105.947 253.368 115.765C271.185 106.144 291.516 102.193 311.64 104.439C331.764 106.686 350.722 115.024 365.979 128.337C369.003 103.966 380.944 81.5771 399.499 65.4889C418.054 49.4007 441.908 40.7526 466.463 41.2123C491.017 41.6721 514.531 51.2072 532.471 67.9788C550.41 84.7503 561.505 107.57 563.614 132.038C582.299 119.138 604.259 111.801 626.946 110.878C649.633 109.955 672.116 115.484 691.788 126.822C694.067 116.1 698.714 106.022 705.388 97.326C712.062 88.6296 720.594 81.5343 730.362 76.5585C740.13 71.5828 750.886 68.8523 761.844 68.5668C772.802 68.2812 783.686 70.4476 793.7 74.9079C800.029 55.1771 811.909 37.6874 827.917 24.5306C843.925 11.3738 863.385 3.10695 883.968 0.71878C904.551 -1.66939 925.386 1.92229 943.982 11.0641C962.577 20.206 978.146 34.511 988.825 52.2683C999.186 45.849 1010.98 42.1049 1023.15 41.3724C1035.31 40.64 1047.47 42.9422 1058.53 48.0721C1069.58 53.2019 1079.19 60.9987 1086.49 70.7616C1093.78 80.5245 1098.54 91.9476 1100.33 104.004C1129.66 97.1709 1160.48 101.585 1186.71 116.375C1192.29 108.113 1199.48 101.071 1207.86 95.6754C1216.24 90.2801 1225.63 86.6442 1235.46 84.9885C1245.29 83.3329 1255.35 83.692 1265.04 86.044C1274.72 88.3961 1283.83 92.6921 1291.8 98.6711C1301.62 83.7615 1314.99 71.5249 1330.7 63.0613C1346.42 54.5976 1363.99 50.1723 1381.84 50.1832C1433.27 50.1832 1476.31 86.2053 1487.08 134.403C1498.17 130.228 1510.1 128.793 1521.86 130.219C1533.63 131.645 1544.87 135.889 1554.65 142.592C1562.71 132.796 1572.64 124.707 1583.87 118.797C1595.1 112.887 1607.39 109.276 1620.03 108.175C1632.66 107.073 1645.4 108.504 1657.48 112.382C1669.55 116.261 1680.74 122.51 1690.37 130.763C1698.8 119.335 1710.35 110.589 1723.64 105.583C1736.93 100.577 1751.38 99.5238 1765.25 102.551C1779.13 105.579 1791.83 112.557 1801.82 122.644C1811.81 132.731 1818.67 145.495 1821.57 159.396C1833.4 156.799 1845.67 156.888 1857.46 159.655C1869.26 162.423 1880.28 167.799 1889.72 175.388C1899.17 182.978 1906.79 192.587 1912.03 203.51C1917.27 214.433 1919.99 226.391 1920 238.506V361.732H0V167.445C0.00148249 147.941 7.75032 129.237 21.542 115.446C35.3337 101.656 54.0387 93.9084 73.5424 93.9084Z" fill="url(#paint0_linear_11927_16342)"/>
<defs>
<linearGradient id="paint0_linear_11927_16342" x1="960" y1="0" x2="960" y2="361.732" gradientUnits="userSpaceOnUse">
<stop stop-color="#D4DFF0"/>
<stop offset="1" stop-color="white" stop-opacity="0"/>
</linearGradient>
</defs>
</svg>
