<svg width="88" height="28" viewBox="0 0 88 28" fill="none" xmlns="http://www.w3.org/2000/svg">
    <path d="M23.9429 18.3818L20.7906 18.745V18.651C20.6003 18.6888 20.408 18.7152 20.2147 18.73C18.1631 19.0427 16.0829 19.1144 14.0152 18.9437C13.0569 18.8411 12.1112 18.6553 11.1844 18.3882C10.5115 18.2079 9.88118 17.8918 9.33085 17.4589C9.21003 17.3604 9.09495 17.2548 8.9862 17.1427C8.46845 16.609 8.0987 15.9457 7.91441 15.2199C7.84888 14.9763 7.79904 14.7287 7.7652 14.4786C7.75888 14.4153 7.75888 14.3516 7.7652 14.2884V5.55471C7.7673 4.97787 7.84926 4.40104 8.00268 3.84557C8.07203 3.61056 8.15819 3.3841 8.26327 3.16618C8.45355 2.77015 8.70074 2.4051 8.99671 2.08302L9.05345 2.02747C9.37098 1.72891 9.73629 1.48759 10.1336 1.3139C11.2264 0.847935 12.3757 0.533207 13.5507 0.378147C14.7865 0.190142 16.0306 0.0790481 17.2789 0.0512746H18.3023L20.8578 0.158096C22.0137 0.243553 23.1569 0.410194 24.2875 0.660156C25.4582 0.852805 26.562 1.34297 27.4966 2.08515C27.5231 2.10714 27.5484 2.13068 27.5722 2.15565C27.9232 2.54021 28.1985 2.98459 28.3855 3.47169C28.4339 3.59988 28.4759 3.72806 28.5116 3.86266C28.6151 4.23963 28.6675 4.62922 28.6671 5.0206V23.0414C28.6698 23.4249 28.626 23.8074 28.5369 24.1801C28.3059 25.1174 27.7325 25.9301 26.9334 26.4532C26.0814 26.9943 25.1319 27.3574 24.1404 27.5214L23.8735 27.5727C22.8878 27.7374 21.8935 27.8444 20.8956 27.8932L18.0586 27.9487L17.4281 27.9274C15.7553 27.8975 14.0656 27.75 12.4327 27.4873L11.9872 27.342C11.7969 27.2617 11.6411 27.1148 11.5482 26.9279C11.4553 26.7409 11.4313 26.5263 11.4807 26.3229C11.5279 26.0495 11.5982 25.7807 11.6909 25.5196C11.7644 25.306 11.8716 25.1094 12.0061 24.9321C12.1762 24.7184 12.4009 24.5565 12.6556 24.4641C12.9103 24.3718 13.1851 24.3526 13.4499 24.4087L14.2485 24.4941C15.9821 24.6221 17.72 24.6798 19.4582 24.6672L19.8617 24.6565C20.8452 24.6351 21.8245 24.5069 22.8038 24.2826C23.1611 24.2057 23.4868 24.022 23.7411 23.7571C23.9095 23.5601 23.9994 23.3064 23.9933 23.0456V18.3818H23.9429ZM23.9429 14.6794V5.30047C23.9442 5.19323 23.9257 5.08669 23.8882 4.98642C23.8462 4.87319 23.7769 4.77278 23.6928 4.68732C22.8417 4.20021 21.8813 3.93957 20.904 3.92675L19.6431 3.82634C18.5885 3.77208 17.5316 3.78279 16.4782 3.85839C15.4568 3.91393 14.446 4.08057 13.4604 4.35404C13.2502 4.41386 13.0611 4.52495 12.9056 4.6745C12.8025 4.77453 12.7178 4.89246 12.6555 5.02274C12.4803 5.45426 12.3992 5.91932 12.418 6.38578V13.9231C12.439 14.1047 12.4937 14.282 12.5714 14.4465C12.6293 14.5662 12.71 14.673 12.8089 14.7606C12.9147 14.8515 13.0348 14.9237 13.1641 14.9742C13.2217 14.9969 13.2807 15.0162 13.3406 15.0319C13.4543 15.0671 13.5702 15.0949 13.6874 15.1152C16.016 15.444 18.3796 15.4231 20.7023 15.0533L21.2529 14.9828L21.7489 14.9123C21.8224 14.9016 21.896 14.9016 21.9716 14.9123L23.9429 14.6794ZM0.85743 0.00213729H2.53866C3.21046 0.00224547 3.85492 0.272603 4.33128 0.75416L4.38592 0.811842C4.51389 0.948365 4.62666 1.09882 4.72217 1.26049C4.95546 1.65307 5.07898 2.10292 5.07943 2.56158V27.045C5.07944 27.1583 5.05729 27.2705 5.01426 27.375C4.97123 27.4796 4.90818 27.5743 4.82878 27.6539C4.74938 27.7334 4.65522 27.7961 4.55177 27.8383C4.44832 27.8804 4.33765 27.9013 4.2262 27.8996H2.54497C2.19321 27.8988 1.84594 27.8193 1.52782 27.6667C1.23361 27.5279 0.968811 27.3334 0.746048 27.0963C0.277702 26.6018 0.0111133 25.9453 0 25.259V0.863117C0.0168123 0.393103 0.392989 0.0170928 0.85743 0.00854712V0.00213729ZM32.5277 0.00213729H34.0723C35.0327 8.63779e-07 35.9112 0.549061 36.342 1.42072C36.5164 1.77323 36.6089 2.1642 36.6152 2.55944V22.4068C36.5942 22.6675 36.653 22.9281 36.7833 23.1546L36.7938 23.1674L36.8106 23.1888C36.9576 23.3433 37.1394 23.4592 37.3402 23.5263L37.5777 23.6118L37.9518 23.7186L38.5822 23.8575L39.2127 23.9643L39.8432 24.0412L40.4736 24.0989L41.1209 24.1416L41.7766 24.163H43.1216L43.8151 24.1416L44.5296 24.0989L45.2651 24.0348L46.0217 23.9365L46.7951 23.7955C47.054 23.7428 47.309 23.6715 47.5579 23.5819C47.7323 23.5221 47.8942 23.4323 48.0413 23.3212L48.0791 23.2785C48.1253 23.2358 48.1674 23.1866 48.2052 23.1332C48.243 23.0798 48.2598 23.0478 48.2787 22.9965C48.3208 22.8961 48.3418 22.7893 48.3418 22.6824V13.7308C48.3439 13.5599 48.3544 13.389 48.3775 13.2181C48.4241 12.8647 48.5145 12.5187 48.6465 12.1883L48.6885 12.0986C48.7938 11.863 48.9212 11.6384 49.0689 11.4277C49.2038 11.2326 49.355 11.0496 49.5208 10.8808C49.5459 10.8557 49.5726 10.8321 49.6006 10.8103C49.7631 10.6632 49.939 10.5323 50.126 10.4193C50.9807 9.94292 51.902 9.60214 52.858 9.40882C54.5417 9.04115 56.2542 8.82666 57.9753 8.76789L59.6565 8.73157L62.8088 8.85976C64.3218 8.9693 65.8208 9.22687 67.2851 9.62887C68.1635 9.84251 68.9663 10.2484 69.7019 10.8125C69.7292 10.8335 69.7552 10.8564 69.7796 10.8808L70.0003 11.1265C70.2729 11.4456 70.4949 11.806 70.6581 12.1947C70.7631 12.4575 70.843 12.7288 70.8934 13.0066C70.9387 13.2489 70.9619 13.4949 70.9628 13.7415V22.6782C70.9607 22.785 70.9838 22.8918 71.0216 22.9922C71.0427 23.0478 71.0763 23.099 71.112 23.1482C71.1477 23.1973 71.1751 23.2251 71.2066 23.2614L71.2276 23.2828C72.105 23.764 73.0846 24.0207 74.0815 24.0305C74.9221 24.116 75.8678 24.1587 76.8261 24.1587C78.5704 24.2313 80.321 24.0198 82.0022 23.5306C82.1493 23.4729 82.2838 23.3939 82.4057 23.2956L82.4477 23.2529C82.5261 23.1755 82.589 23.0833 82.6327 22.9815C82.6747 22.8854 82.6957 22.7807 82.6957 22.676V13.703C82.6957 13.3249 82.7798 12.9553 82.9416 12.6348C83.3619 11.7375 84.2551 11.1607 85.2323 11.165H86.9135C87.3822 11.1628 87.7646 11.5431 87.7709 12.0195V22.9709C87.7723 23.5027 87.6687 24.0294 87.4662 24.5198C87.4305 24.6052 87.3885 24.6907 87.3464 24.7761C87.151 25.1714 86.8967 25.5324 86.5899 25.8443C86.5652 25.8692 86.5393 25.8928 86.5121 25.9148C85.8166 26.4672 85.0113 26.8594 84.1521 27.0642C82.1366 27.59 80.0667 27.8697 77.9862 27.8975H77.9483C75.344 27.9996 72.7371 27.7844 70.1831 27.2565C69.5783 27.1213 68.9857 26.9348 68.4115 26.6989C67.6297 27.0151 66.8228 27.2544 65.9948 27.4189C65.0491 27.6112 64.0908 27.7564 63.1282 27.8462L60.3815 28H59.6565C59.0471 28 58.4418 27.985 57.8408 27.9573L55.5291 27.7693L53.3939 27.4338C52.7067 27.2986 52.0298 27.1145 51.368 26.8826L50.9015 26.7011C50.6598 26.8079 50.3929 26.9019 50.1092 26.9916L49.0584 27.2758C48.7278 27.3527 48.3817 27.4239 48.0203 27.4894L47.0031 27.6432L46.0112 27.7564L45.0445 27.8355C44.7727 27.854 44.4925 27.8697 44.2039 27.8825H44.0778C43.7695 27.8967 43.4613 27.906 43.1531 27.9103C42.8449 27.916 42.5422 27.916 42.2452 27.9103C41.9468 27.9103 41.6484 27.9053 41.35 27.8953C41.0515 27.8853 40.7573 27.8732 40.4673 27.859C40.1731 27.8448 39.8789 27.8262 39.5847 27.8034L38.7083 27.7265L37.832 27.6197L36.9535 27.4873L36.0751 27.3163L35.7599 27.2458L35.1987 27.0963L34.3371 26.8079C34.0553 26.6978 33.7821 26.5664 33.5196 26.4148C33.2725 26.2728 33.0396 26.1068 32.824 25.9191L32.782 25.8807C32.5508 25.6734 32.3491 25.4363 32.1767 25.1756C31.9989 24.9047 31.8576 24.6109 31.7564 24.3018C31.6471 23.9707 31.5778 23.6267 31.5463 23.2764L31.5189 22.6995V0.863117C31.515 0.687823 31.5641 0.515527 31.6597 0.369602C31.7392 0.255523 31.8444 0.162444 31.9666 0.0981442C32.0887 0.0338446 32.2241 0.000191353 32.3617 0L32.5277 0.00213729ZM57.0779 24.1224L59.6544 24.2292H59.9633C60.9866 24.2242 62.0087 24.1621 63.0253 24.0433C63.9289 24.007 64.8158 23.7549 65.606 23.3041L65.6438 23.2614C65.722 23.1847 65.7848 23.0933 65.8287 22.9922C65.8666 22.8918 65.8834 22.7828 65.8792 22.676V14.0235C65.8792 13.9167 65.8582 13.8099 65.8161 13.7094C65.7722 13.6084 65.7094 13.517 65.6312 13.4403L65.6102 13.4189C65.5024 13.3264 65.3821 13.2501 65.2529 13.1924C63.436 12.6287 61.5373 12.3867 59.6397 12.4767C57.6075 12.3058 55.5627 12.6263 53.6776 13.4125L53.6482 13.4445C53.6062 13.483 53.5746 13.5257 53.5431 13.5727C53.5116 13.6197 53.4864 13.6646 53.4654 13.7159C53.4233 13.8163 53.4023 13.9231 53.4023 14.0299V22.6824C53.4019 22.7902 53.4226 22.897 53.4633 22.9965C53.4996 23.0828 53.5501 23.1623 53.6125 23.2315L53.6461 23.2635L53.6881 23.3063C53.7848 23.3853 53.8899 23.4515 54.0034 23.505C54.9842 23.8741 56.0161 24.0839 57.0611 24.1267L57.0779 24.1224ZM84.3454 2.99741H86.2053C87.193 2.99527 87.9916 3.80497 88 4.80696V6.22768C87.9937 7.2318 87.1909 8.03937 86.2053 8.03723H84.3454C83.3577 8.03937 82.5591 7.22967 82.5507 6.22768V4.80482C82.5591 3.8007 83.3598 2.99527 84.3454 2.99741V2.99741Z" fill="url(#paint0_linear_8727_15122)"/>
    <defs>
        <linearGradient id="paint0_linear_8727_15122" x1="44" y1="0" x2="44" y2="28" gradientUnits="userSpaceOnUse">
            <stop stop-color="#008CBF"/>
            <stop offset="1" stop-color="#0067A2"/>
        </linearGradient>
    </defs>
</svg>
