<svg width="121" height="40" viewBox="0 0 121 40" fill="none" xmlns="http://www.w3.org/2000/svg">
    <path d="M119.153 26.8146C120.069 24.3769 120.485 21.7797 120.376 19.1778C120.267 16.5758 119.635 14.0226 118.517 11.6703L113 0.0419922L100.132 1.10103C97.5418 1.30573 95.0187 2.02791 92.7121 3.22484C90.4055 4.42178 88.3625 6.06916 86.7037 8.06953L83.7384 8.2072C83.3189 8.22645 82.924 8.41106 82.6402 8.72066C82.3564 9.03027 82.2068 9.43966 82.224 9.85931C82.2364 10.0852 82.2978 10.3056 82.404 10.5053L83.749 13.0894C82.7223 15.6316 82.2498 18.3637 82.3631 21.1031C82.4763 23.8424 83.1726 26.5262 84.4056 28.975L89.902 39.989L102.187 39.2477C104.93 39.0845 107.606 38.339 110.039 37.0608C112.471 35.7825 114.603 34.0009 116.293 31.8344L119.195 31.7073C119.401 31.7032 119.604 31.6586 119.793 31.576C119.981 31.4933 120.152 31.3744 120.294 31.2259C120.437 31.0774 120.549 30.9022 120.624 30.7105C120.699 30.5187 120.735 30.314 120.731 30.1082C120.724 29.8795 120.666 29.6552 120.561 29.4516L119.153 26.8146Z" fill="white"/>
    <path d="M108.615 24.1034C109.022 23.4551 109.26 22.716 109.31 21.9526C109.36 21.1891 109.22 20.4252 108.901 19.7296L110.14 17.675L108.022 16.4889C107.94 15.8427 107.731 15.2191 107.407 14.6538C107.084 14.0884 106.652 13.5923 106.137 13.194C105.621 12.7956 105.032 12.5028 104.404 12.3322C103.775 12.1616 103.119 12.1166 102.473 12.1998C102.031 12.2524 101.599 12.3702 101.191 12.5493L99.1369 11.3525L97.9614 13.4071C96.663 13.5886 95.4891 14.2761 94.6956 15.3196C93.902 16.3631 93.5532 17.678 93.7252 18.9776C93.7858 19.4067 93.8996 19.8265 94.0641 20.2273L92.8674 22.3454L94.9855 23.5421C95.0727 24.1862 95.2861 24.8067 95.6133 25.3683C95.9406 25.9298 96.3753 26.4214 96.8927 26.8148C97.41 27.2083 97.9999 27.4958 98.6285 27.6612C99.257 27.8265 99.912 27.8663 100.556 27.7783C100.978 27.7263 101.391 27.6195 101.784 27.4606L103.786 28.6361L104.962 26.518C105.723 26.4485 106.455 26.1916 107.092 25.7702C107.73 25.3489 108.253 24.7762 108.615 24.1034Z" fill="#10B990"/>
    <path d="M93.7887 33.2639L93.5769 32.872C90.0927 26.3166 86.7143 20.3648 90.4845 13.8093C90.5188 13.7674 90.5473 13.7211 90.5692 13.6716L83.929 9.83789L85.5706 13.015C84.4861 15.4165 83.9509 18.0297 84.004 20.6642C84.0572 23.2987 84.6973 25.8882 85.8777 28.244L90.887 38.2837L93.7887 33.2639Z" fill="#234D69"/>
    <path d="M112.354 26.2637C112.325 26.3073 112.3 26.3533 112.28 26.4013C111.451 27.868 110.325 29.1449 108.974 30.1499C107.622 31.155 106.075 31.8658 104.432 32.2367C101.08 32.9548 97.6612 33.3098 94.2335 33.2957H93.7887L90.8976 38.305L102.092 37.6272C104.724 37.4699 107.289 36.7265 109.597 35.4512C111.906 34.176 113.901 32.4011 115.436 30.2563L118.994 30.0974L112.354 26.2637Z" fill="#173F58"/>
    <path d="M107.609 9.34064C110.472 10.9707 112.577 13.6648 113.465 16.8375C114.354 20.0102 113.954 23.4054 112.354 26.2853L118.994 30.119L117.331 26.9419C118.308 24.6368 118.784 22.1509 118.729 19.6481C118.675 17.1453 118.09 14.6826 117.014 12.4224L111.983 1.83203L107.609 9.42536V9.34064Z" fill="#D65357"/>
    <path d="M107.609 9.3404L111.983 1.74707L100.27 2.70021C97.7787 2.90351 95.3585 3.63135 93.1683 4.83596C90.9781 6.04058 89.0674 7.69474 87.5616 9.68988L83.9502 9.84874L90.5904 13.6931C92.2878 10.8786 95.0239 8.84458 98.2081 8.03021C101.392 7.21583 104.769 7.68643 107.609 9.3404Z" fill="#EB5E60"/>
    <path d="M4.66222 37.2051L3.97803 37.8838L4.6642 38.5755L5.34839 37.8968L4.66222 37.2051Z" fill="currentColor" stroke="currentColor" strokeWidth="0.3"/>
    <path d="M7.99578 32.4061C8.09441 32.8159 8.15118 33.2346 8.16523 33.6558C8.16715 33.8687 8.13129 34.0803 8.05932 34.2806C7.99428 34.4513 7.88001 34.5987 7.73102 34.7043C7.61052 34.8008 7.47442 34.876 7.32859 34.9267C7.1461 34.9921 6.95831 35.0418 6.76729 35.0749C6.55549 35.0749 6.31191 35.1596 6.03655 35.1914L5.16814 35.2444H4.1091C3.26393 35.2983 2.41963 35.1265 1.66271 34.7466C1.39329 34.6023 1.17053 34.3842 1.0205 34.1179C0.870462 33.8515 0.799351 33.548 0.815481 33.2428C0.813824 32.9512 0.860342 32.6614 0.953156 32.385L0.381274 32.1943C0.229947 32.579 0.15096 32.9883 0.148285 33.4016C0.128928 33.7793 0.211044 34.1553 0.386103 34.4905C0.561163 34.8257 0.822781 35.108 1.14378 35.3079C2.09054 35.7955 3.1525 36.0152 4.215 35.9433H4.23618C5.56568 36.0707 6.90489 35.8365 8.11228 35.2656C8.36127 35.0594 8.55539 34.7949 8.67735 34.4956C8.79931 34.1962 8.8453 33.8713 8.81124 33.5499C8.80097 33.1037 8.72605 32.6614 8.58885 32.2367L7.99578 32.4061Z" fill="currentColor" stroke="currentColor" strokeWidth="0.3"/>
    <path d="M12.1843 37.215L11.5029 37.8965L12.1918 38.5854L12.8733 37.904L12.1843 37.215Z" fill="currentColor" stroke="currentColor" strokeWidth="0.3"/>
    <path d="M10.8127 37.21L10.1285 37.8887L10.8147 38.5804L11.4989 37.9017L10.8127 37.21Z" fill="currentColor" stroke="currentColor" strokeWidth="0.3"/>
    <path d="M11.4165 35.9646H11.2365C11.4939 35.9803 11.7521 35.9803 12.0096 35.9646C12.2072 35.935 12.402 35.8889 12.592 35.8269C12.7424 35.7845 12.8828 35.7124 13.0051 35.6151C13.2769 35.3921 13.4889 35.105 13.622 34.7796C13.7551 34.4542 13.8051 34.1007 13.7676 33.7512C13.7655 33.2496 13.6942 32.7507 13.5558 32.2685L12.9627 32.4168C13.0666 32.8614 13.1234 33.3158 13.1321 33.7724C13.1644 34.0199 13.1293 34.2716 13.0305 34.5008C12.9318 34.7301 12.7729 34.9284 12.5708 35.075C12.1634 35.2477 11.7195 35.3169 11.2788 35.2762H11.5118C11.3325 35.2932 11.1519 35.2641 10.987 35.1919C10.8221 35.1196 10.6783 35.0065 10.5693 34.8632C10.3386 34.5241 10.2268 34.1182 10.2515 33.7088V29.4727L9.5314 29.6951V33.7194C9.48595 34.3244 9.65052 34.9266 9.99738 35.4245C10.1721 35.6115 10.3864 35.757 10.6246 35.8505C10.8628 35.9439 11.1189 35.9829 11.3741 35.9646H11.4165Z" fill="currentColor" stroke="currentColor" strokeWidth="0.3"/>
    <path d="M19.9909 37.214L19.3094 37.8955L19.9984 38.5845L20.6799 37.903L19.9909 37.214Z" fill="currentColor" stroke="currentColor" strokeWidth="0.3"/>
    <path d="M18.5613 37.2148L17.8801 37.8965L18.5693 38.5852L19.2505 37.9035L18.5613 37.2148Z" fill="currentColor" stroke="currentColor" strokeWidth="0.3"/>
    <path d="M36.2404 34.3656C36.5369 33.5184 36.9817 33.1054 37.5748 33.1054C37.7968 33.0984 38.0154 33.1614 38.1996 33.2854C38.3876 33.4161 38.5316 33.6008 38.6127 33.8149C38.6636 33.9149 38.6993 34.022 38.7186 34.1326C38.7344 34.2557 38.7344 34.3803 38.7186 34.5033C38.727 34.6286 38.7098 34.7543 38.6679 34.8727C38.626 34.991 38.5603 35.0996 38.475 35.1917C38.282 35.3597 38.0316 35.4469 37.776 35.4353C37.4719 35.4042 37.1782 35.3076 36.9149 35.1522C36.6517 34.9968 36.4252 34.7863 36.251 34.5351L36.1874 34.461L36.2404 34.3656ZM38.8668 32.9783C38.8082 32.9001 38.7407 32.8291 38.6656 32.7665L38.4326 32.597L38.1255 32.4805C38.0327 32.4493 37.9368 32.428 37.8396 32.417C37.7304 32.4066 37.6204 32.4066 37.5113 32.417C36.7911 32.417 36.2086 32.9359 35.7532 33.942C35.6322 34.2178 35.4832 34.4804 35.3084 34.7257C35.1896 34.8987 35.0319 35.0415 34.848 35.1426C34.6641 35.2438 34.4591 35.3005 34.2494 35.3082H34.1541C33.996 35.3191 33.8377 35.2921 33.6922 35.2294C33.5467 35.1668 33.4182 35.0704 33.3174 34.9481C33.086 34.6433 32.9597 34.2717 32.9574 33.8891L32.8832 33.0101L32.3008 33.0736V33.2536C32.3113 33.3664 32.3113 33.4798 32.3008 33.5925V33.995C32.3211 34.3222 32.2398 34.6478 32.0678 34.9269C31.9898 35.0409 31.8832 35.1323 31.7586 35.1918C31.634 35.2513 31.4959 35.2769 31.3582 35.2658C31.1161 35.2575 30.8858 35.1594 30.7122 34.9905C30.5223 34.7768 30.4135 34.5031 30.4051 34.2174L30.3309 33.1583L29.7485 33.2219V33.4019V33.4549V33.9314C29.7586 34.0725 29.7586 34.214 29.7485 34.355C29.7149 34.5427 29.6388 34.7202 29.5261 34.874C29.4289 35.0155 29.2928 35.1258 29.1342 35.1917C28.9579 35.2702 28.7657 35.3065 28.5729 35.2976C28.4278 35.3078 28.282 35.2879 28.1449 35.2393C28.0077 35.1907 27.882 35.1143 27.7757 35.0149C27.6694 34.9155 27.5846 34.7953 27.5269 34.6617C27.4691 34.5281 27.4394 34.3841 27.4398 34.2386L27.3656 33.1795L26.7832 33.2431V33.4231C26.7832 33.6137 26.7832 33.7938 26.7832 33.9526C26.8037 34.0931 26.8037 34.2358 26.7832 34.3762C26.7562 34.522 26.6988 34.6605 26.6149 34.7827C26.531 34.905 26.4223 35.0082 26.296 35.0858C25.9937 35.258 25.6479 35.3389 25.3005 35.3188H21.8057C21.6548 35.3313 21.503 35.3113 21.3605 35.2601C21.218 35.209 21.0881 35.1278 20.9796 35.0222C20.7581 34.7904 20.6299 34.4849 20.6195 34.1644L20.556 33.1054L19.9629 33.1689V33.4655C19.9629 33.6349 19.9629 33.8149 19.9629 34.0056C19.9791 34.1675 19.9791 34.3307 19.9629 34.4927C19.857 35.0752 19.3275 35.3717 18.3744 35.3717H17.7495C17.5669 35.3698 17.3866 35.3302 17.22 35.2552C17.0607 35.1809 16.9224 35.0681 16.8176 34.9269C16.695 34.7682 16.6018 34.5889 16.5422 34.3974L16.2563 33.476L15.6526 33.6984C15.7671 33.9885 15.8626 34.2856 15.9386 34.588C16.0016 34.8481 16.0336 35.1147 16.0339 35.3823C16.0433 35.7293 15.9835 36.0747 15.858 36.3983C15.7325 36.722 15.5439 37.0174 15.3032 37.2674C14.8866 37.657 14.3868 37.9468 13.8417 38.1146L14.1488 38.6653C14.796 38.5213 15.3819 38.1783 15.8244 37.6845C16.2669 37.1907 16.5438 36.5709 16.6164 35.9118L16.6693 35.5729C16.7489 35.6922 16.8519 35.7941 16.9721 35.8724C17.0922 35.9506 17.227 36.0037 17.3683 36.0283C17.4952 36.0388 17.6227 36.0388 17.7495 36.0283H18.3956C18.7682 36.0583 19.1423 35.9934 19.483 35.8397C19.8238 35.686 20.12 35.4485 20.3442 35.1493L20.4819 35.3929C20.6159 35.6019 20.8035 35.7711 21.0252 35.8829C21.2468 35.9946 21.4944 36.0449 21.7421 36.0283H25.3111C25.6693 36.0685 26.0316 36.0062 26.3559 35.8487C26.6802 35.6913 26.9532 35.4451 27.1432 35.1387C27.2559 35.4221 27.4568 35.6616 27.7162 35.8218C27.9756 35.982 28.2797 36.0545 28.5835 36.0283C28.8931 36.0345 29.199 35.9607 29.4717 35.8142C29.7444 35.6676 29.9747 35.4532 30.1403 35.1917C30.2473 35.451 30.4321 35.6707 30.6692 35.8205C30.9063 35.9704 31.184 36.043 31.4641 36.0283C31.7697 36.0124 32.0634 35.9048 32.307 35.7197C32.5506 35.5346 32.733 35.2806 32.8303 34.9905C32.9105 35.2679 33.0814 35.5104 33.3156 35.6793C33.5498 35.8482 33.8338 35.9338 34.1223 35.9224H34.3341C34.6058 35.9074 34.8711 35.8345 35.1122 35.7084C35.3533 35.5824 35.5647 35.4062 35.7321 35.1917L35.8486 35.0434L35.9756 35.1811C36.206 35.4447 36.4889 35.6572 36.8063 35.8049C37.1236 35.9526 37.4684 36.0323 37.8184 36.0389C38.036 36.0528 38.2539 36.0172 38.4557 35.9346C38.6575 35.8521 38.8379 35.7248 38.9833 35.5624C39.2194 35.2099 39.3312 34.7888 39.301 34.3656C39.3255 33.8432 39.1557 33.3301 38.8245 32.9253L38.8668 32.9783Z" fill="currentColor" stroke="currentColor" strokeWidth="0.3"/>
    <path d="M42.87 35.9754H43.3572H43.516H43.6961H43.9396L43.8761 36.2189C43.6008 37.278 42.6794 37.9875 41.1226 38.337L41.345 38.9089C42.2462 38.7689 43.0782 38.3418 43.7172 37.691C44.2884 36.9938 44.5623 36.0998 44.4798 35.2023C44.489 34.6021 44.3848 34.0057 44.1726 33.4442C44.1015 33.2631 44.0128 33.0892 43.9079 32.9253C43.7363 32.6506 43.4741 32.4445 43.1665 32.3428C43.0111 32.3009 42.8509 32.2796 42.69 32.2793C42.3785 32.2794 42.0746 32.3748 41.819 32.5528C41.5634 32.7308 41.3684 32.9827 41.2603 33.2748C41.1694 33.4646 41.0984 33.6634 41.0485 33.8679C41.0058 34.0698 40.9845 34.2757 40.9849 34.4821C40.968 34.6924 40.9993 34.9037 41.0764 35.1001C41.1535 35.2964 41.2743 35.4726 41.4297 35.6153C41.8507 35.9051 42.3622 36.033 42.87 35.9754ZM41.7263 33.7725C41.7753 33.6215 41.8467 33.4788 41.9381 33.3489C42.0224 33.2417 42.1267 33.1518 42.2452 33.0842C42.3701 33.0216 42.5079 32.989 42.6476 32.9889C43.3889 32.9889 43.802 33.6561 43.8867 35.001V35.1387H43.7596C43.4722 35.2338 43.1726 35.2873 42.87 35.2976C42.5434 35.3114 42.2197 35.2305 41.9381 35.0646C41.8276 34.9863 41.7394 34.8808 41.6818 34.7583C41.6243 34.6358 41.5995 34.5005 41.6098 34.3656C41.6078 34.1527 41.6437 33.9412 41.7157 33.7408L41.7263 33.7725Z" fill="currentColor" stroke="currentColor" strokeWidth="0.3"/>
    <path d="M59.8954 30.2307L59.2364 30.8896L59.9029 31.5561L60.5619 30.8971L59.8954 30.2307Z" fill="currentColor" stroke="currentColor" strokeWidth="0.3"/>
    <path d="M59.0945 30.9025L58.4273 30.2354L57.7707 30.892L58.4273 31.5592L59.0945 30.9025Z" fill="currentColor" stroke="currentColor" strokeWidth="0.3"/>
    <path d="M59.8359 29.5782L59.1687 28.9004L58.5015 29.5676L59.1687 30.2348L59.8359 29.5782Z" fill="currentColor" stroke="currentColor" strokeWidth="0.3"/>
    <path d="M67.1899 28.7062L66.5085 29.3877L67.1974 30.0766L67.8789 29.3952L67.1899 28.7062Z" fill="currentColor" stroke="currentColor" strokeWidth="0.3"/>
    <path d="M65.7479 28.7072L65.0664 29.3887L65.7554 30.0776L66.4368 29.3962L65.7479 28.7072Z" fill="currentColor" stroke="currentColor" strokeWidth="0.3"/>
    <path d="M71.803 32.2685L71.21 32.4168C71.2629 32.6498 71.3053 32.8828 71.3371 33.1264C71.3532 33.3414 71.3532 33.5573 71.3371 33.7724C71.3705 34.0189 71.337 34.27 71.2402 34.4991C71.1433 34.7283 70.9865 34.9272 70.7864 35.075C70.4586 35.2382 70.0921 35.3078 69.7273 35.2762H69.2084C68.725 35.2846 68.243 35.2204 67.7787 35.0856L67.461 34.9903L67.6834 34.8102C67.9337 34.6283 68.1392 34.3915 68.2842 34.118C68.4292 33.8446 68.5098 33.5416 68.52 33.2323C68.5163 32.8756 68.4158 32.5267 68.2293 32.2226C68.0428 31.9186 67.7772 31.6709 67.461 31.506L67.2492 31.4001L67.0162 31.3472C66.9318 31.337 66.8464 31.337 66.762 31.3472C66.4886 31.3463 66.2218 31.4316 65.9995 31.5908C65.702 31.7458 65.4487 31.9739 65.2635 32.2536C65.0782 32.5333 64.9671 32.8555 64.9404 33.1899C64.9367 33.4947 65.0056 33.7961 65.1417 34.0689C65.2953 34.3634 65.508 34.6229 65.7665 34.8314L65.9783 35.0115L65.7241 35.1174C65.1379 35.2759 64.5302 35.3403 63.9238 35.308H63.6802C63.5227 35.314 63.3659 35.2848 63.2212 35.2225C63.0764 35.1602 62.9474 35.0664 62.8435 34.9479C62.6224 34.6538 62.4968 34.299 62.4835 33.9312L62.4093 33.0522L61.8163 33.1158V33.2958C61.8163 33.4123 61.8163 33.5182 61.8163 33.6347C61.8163 33.7512 61.8163 33.8889 61.8163 34.0371C61.8379 34.366 61.7524 34.6929 61.5727 34.9691C61.4965 35.0822 61.3916 35.1732 61.2689 35.2327C61.1461 35.2922 61.0098 35.3182 60.8737 35.308C60.7385 35.3185 60.6025 35.3004 60.4748 35.2548C60.347 35.2091 60.2304 35.1371 60.1324 35.0432C60.033 34.943 59.9546 34.8239 59.9018 34.693C59.8491 34.562 59.8231 34.4219 59.8253 34.2807L59.7406 33.2217L59.1687 33.2852V33.5182V33.6241C59.1736 33.645 59.1736 33.6668 59.1687 33.6877V33.9312C59.1795 34.0722 59.1795 34.2139 59.1687 34.3549C59.1383 34.5416 59.0658 34.7191 58.9569 34.8738C58.852 35.0149 58.7137 35.1278 58.5544 35.2021C58.3801 35.2748 58.1926 35.3109 58.0037 35.308C57.7103 35.321 57.4228 35.2226 57.1989 35.0326C57.0943 34.933 57.0112 34.813 56.9548 34.68C56.8983 34.5471 56.8697 34.404 56.8706 34.2595L56.7858 33.2005L56.2034 33.264V33.4441C56.2034 33.6347 56.2034 33.8042 56.2034 33.9736C56.2139 34.1146 56.2139 34.2562 56.2034 34.3972C56.1763 34.543 56.119 34.6815 56.0351 34.8037C55.9512 34.926 55.8425 35.0292 55.7162 35.1068C55.4128 35.2773 55.0685 35.3616 54.7207 35.3504H51.1305C50.9822 35.3604 50.8334 35.3409 50.6926 35.2929C50.5519 35.245 50.4221 35.1695 50.3108 35.071C50.1995 34.9725 50.1088 34.8528 50.0441 34.719C49.9794 34.5851 49.9419 34.4398 49.9338 34.2913L49.4996 31.1777L48.9277 31.3048V31.4001V31.5378H48.7901C46.9579 32.0991 46.0366 32.8934 46.0366 33.8995C46.0158 34.0257 46.0158 34.1545 46.0366 34.2807C46.0592 34.3885 46.0985 34.4922 46.1531 34.5878C46.3288 34.8401 46.5687 35.0408 46.848 35.1692C47.1272 35.2977 47.4357 35.3493 47.7416 35.3186C47.9919 35.3211 48.2402 35.2743 48.4724 35.1809C48.7133 35.0866 48.9355 34.9503 49.129 34.7785L49.3408 34.5878L49.4043 34.8632C49.4462 35.0952 49.5444 35.3134 49.6902 35.4986C49.8327 35.6696 50.0196 35.7979 50.2304 35.8693C50.4829 35.9542 50.7476 35.9972 51.014 35.9964H54.7101C55.0651 36.0336 55.4234 35.9699 55.7438 35.8125C56.0641 35.6551 56.3336 35.4105 56.5211 35.1068C56.6397 35.388 56.8435 35.625 57.1037 35.7846C57.3639 35.9441 57.6675 36.0182 57.972 35.9964C58.2808 35.9985 58.5852 35.9231 58.8572 35.7769C59.1292 35.6307 59.3601 35.4185 59.5287 35.1597C59.6383 35.4172 59.8236 35.6351 60.0601 35.7846C60.2966 35.9341 60.573 36.0079 60.8525 35.9964C61.1554 35.9953 61.4512 35.9041 61.702 35.7344C61.9529 35.5646 62.1475 35.324 62.2611 35.0432C62.3372 35.3217 62.5052 35.5663 62.7378 35.7374C62.9704 35.9085 63.254 35.996 63.5425 35.9858H63.8496C64.7934 36.0484 65.7324 35.8072 66.529 35.2974L66.7196 35.2021L66.8255 35.2762C67.5619 35.7708 68.4391 36.0124 69.3249 35.9646H69.8226C70.1154 35.9666 70.4073 35.931 70.691 35.8587C70.9174 35.8036 71.13 35.7027 71.3159 35.5622C71.5683 35.3379 71.7634 35.0565 71.885 34.7415C72.0066 34.4265 72.0511 34.0869 72.0148 33.7512C72.0148 33.2494 71.9435 32.7502 71.803 32.2685ZM49.1713 33.8571C49.0825 34.0706 48.9263 34.2491 48.7265 34.3655C48.449 34.5467 48.126 34.6458 47.7946 34.6514C47.647 34.6721 47.4973 34.6721 47.3498 34.6514C47.231 34.6203 47.1195 34.5664 47.0215 34.4925C46.9262 34.4272 46.8524 34.3351 46.8097 34.2278C46.7538 34.1125 46.7283 33.985 46.7355 33.8571C46.7468 33.676 46.8007 33.5001 46.8927 33.3437C46.9847 33.1873 47.1122 33.0548 47.265 32.9569C47.7541 32.6206 48.2891 32.3566 48.8536 32.1732L49.0442 32.1097V32.3109V32.4592L49.1607 33.2005C49.2032 33.4385 49.1812 33.6834 49.0972 33.9101L49.1713 33.8571ZM66.9738 34.5349C66.9024 34.5846 66.8172 34.6106 66.7302 34.609C66.6021 34.6015 66.4796 34.5532 66.3807 34.4714C66.2339 34.3544 66.0991 34.2232 65.9783 34.0795L65.7665 33.7936C65.723 33.7015 65.6875 33.6058 65.6606 33.5076C65.6452 33.4129 65.6452 33.3164 65.6606 33.2217C65.6664 33.0733 65.7033 32.9278 65.769 32.7946C65.8347 32.6614 65.9277 32.5435 66.0419 32.4486C66.1626 32.3279 66.2937 32.2181 66.4337 32.1203C66.5343 32.0535 66.6519 32.0168 66.7726 32.0144C67.0026 32.0255 67.2208 32.1196 67.3868 32.2791C67.4969 32.3697 67.5996 32.4688 67.694 32.5757C67.7318 32.6715 67.7602 32.7708 67.7787 32.8722C67.8202 32.9767 67.8417 33.0881 67.8422 33.2005C67.8244 33.5256 67.6844 33.832 67.4504 34.0583L67.1856 34.3443C67.1133 34.4126 67.0312 34.4697 66.942 34.5137L66.9738 34.5349Z" fill="currentColor" stroke="currentColor" strokeWidth="0.3"/>
    <path d="M70.4154 29.6249L69.7342 30.3066L70.4234 30.9953L71.1046 30.3137L70.4154 29.6249Z" fill="currentColor" stroke="currentColor" strokeWidth="0.3"/>
    <path d="M9.63733 11.3945L11.9884 9.04344L9.62674 6.55469L9.42552 6.75591L7.30743 8.87399L9.63733 11.3945Z" fill="currentColor"/>
    <path d="M17.8343 7.7627L17.3154 7.93214L14.8266 8.73701L14.223 8.93823L14.4983 9.48893C14.7679 9.99795 15.0014 10.5252 15.1973 11.0669C15.3804 11.5807 15.5221 12.1084 15.6209 12.6449C15.714 13.1585 15.7601 13.6796 15.7586 14.2017C15.8181 14.9491 15.7207 15.7008 15.4727 16.4084C15.2247 17.1161 14.8315 17.764 14.3183 18.3107C13.0556 19.297 11.4668 19.7699 9.87031 19.6346C9.43529 19.6361 9.00049 19.6149 8.56769 19.571C8.18005 19.5361 7.79466 19.4795 7.41333 19.4016C7.08843 19.3275 6.76976 19.2284 6.4602 19.105C6.17823 18.9915 5.90855 18.8496 5.65532 18.6814C5.42013 18.5222 5.20031 18.3414 4.99872 18.1413C4.80626 17.94 4.63911 17.7159 4.50097 17.4741C4.35332 17.2228 4.23263 16.9565 4.14089 16.6798C4.04911 16.3815 3.97834 16.0772 3.92909 15.769C3.88206 15.418 3.8573 15.0642 3.85495 14.71C3.89679 13.1021 4.25673 11.5183 4.91399 10.0502L5.1258 9.56307L4.59628 9.36185L2.27698 8.51461L1.74746 8.3134L1.53565 8.81115C0.668595 10.6738 0.203125 12.6981 0.169489 14.7524C0.0866629 15.9046 0.262392 17.0608 0.683826 18.1363C1.10526 19.2119 1.76175 20.1797 2.60528 20.9689C4.25033 22.381 6.64023 23.087 9.77499 23.087C11.048 23.1089 12.3176 22.9484 13.5452 22.6105C14.6051 22.3176 15.5979 21.8212 16.4681 21.149C17.3068 20.5003 17.9935 19.6762 18.4803 18.7344C18.7981 18.1125 19.0399 17.4547 19.2005 16.7751C19.3635 16.0809 19.4453 15.3701 19.444 14.6571C19.4096 12.4666 18.9341 10.3055 18.0461 8.30281L17.8343 7.7627Z" fill="currentColor"/>
    <path d="M54.117 6.65075L54.2759 6.80961L54.4242 6.65075L56.3304 4.74448L56.4787 4.6068L56.3304 4.44794L54.4242 2.54167L54.2653 2.38281L54.1064 2.54167L52.2108 4.43735L52.0519 4.59621L52.2108 4.75507L54.117 6.65075Z" fill="currentColor"/>
    <path d="M51.9672 10.2513L52.1261 10.4102L52.2849 10.2513L54.1806 8.36624L54.2441 8.29211L54.3077 8.22857V8.29211L54.3712 8.34506L56.2775 10.2513L56.4258 10.4102L56.574 10.2513L58.4803 8.35565L58.6392 8.19679L58.4803 8.04853L56.574 6.14225L56.4152 5.9834L56.2775 6.14225L54.3712 8.04853L54.2971 8.11207H54.2335L54.1594 8.04853L52.2531 6.14225L52.1049 5.9834L51.9566 6.14225L50.0503 8.04853L49.8915 8.1862L50.0503 8.34506L51.9672 10.2513Z" fill="currentColor"/>
    <path d="M66.0736 9.24476L66.2748 9.44598L66.4761 9.24476L68.4247 7.29613L68.6259 7.09491L68.4247 6.89369L66.4549 4.92387L66.2537 4.72266L66.0524 4.92387L64.1038 6.8831L63.9026 7.08432L64.1038 7.28554L66.0736 9.24476Z" fill="currentColor"/>
    <path d="M71.4218 11.1509L71.2629 10.6319L70.7758 10.7696L68.5941 11.3097L68.0752 11.4368L68.2023 11.9557C68.3082 12.3793 68.3929 12.7818 68.4565 13.1842C68.52 13.5867 68.5835 13.9573 68.6153 14.328C68.6574 14.6794 68.6786 15.0331 68.6788 15.387C68.6788 16.6049 68.3823 17.378 67.7998 17.7169C67.5532 17.8522 67.2841 17.9419 67.0056 17.9817C66.6183 18.0554 66.2242 18.0874 65.83 18.077H64.771C64.5172 18.0926 64.2633 18.0501 64.0284 17.9528C63.7935 17.8556 63.5839 17.7061 63.4154 17.5157C63.0349 16.9489 62.8321 16.2815 62.8329 15.5988L62.6211 13.0677L62.5682 12.517L62.0175 12.5806L59.8041 12.8347L59.2957 12.8983V13.4172L59.3699 14.2327C59.3699 14.4762 59.3699 14.7304 59.3699 14.9952C59.3699 15.2599 59.3699 15.5988 59.3699 15.9377C59.4349 16.5113 59.3241 17.0912 59.0522 17.6004C58.9447 17.7618 58.7951 17.8905 58.6196 17.9727C58.4441 18.0548 58.2494 18.0873 58.0567 18.0664C57.7591 18.0773 57.4627 18.0231 57.1883 17.9075C56.9665 17.8052 56.7869 17.6294 56.6799 17.4098C56.5429 17.1101 56.4673 16.786 56.4575 16.4567L56.2457 13.3431V12.7924H55.6844L53.4816 13.0677L52.9627 13.1207V13.6396L53.0262 14.4551C53.0262 14.5822 53.0262 14.6669 53.0262 14.6986C53.0262 14.7304 53.0262 14.8575 53.0262 14.9422C53.0317 15.0233 53.0317 15.1047 53.0262 15.1858C53.0315 15.2598 53.0315 15.3342 53.0262 15.4082V15.6518C53.0525 15.93 53.0525 16.2102 53.0262 16.4884C52.9725 16.94 52.7583 17.3572 52.4226 17.664C52.0501 17.929 51.5971 18.0563 51.1411 18.024C50.6664 18.0632 50.1932 17.9318 49.8067 17.6534C49.4981 17.3113 49.3314 16.8644 49.3408 16.4037L49.1289 13.2901V12.75H48.5677L46.3543 13.0148L45.8459 13.0677V13.5867L45.9306 14.4021C45.9306 14.8363 45.9836 15.2388 45.9836 15.5988C45.9871 15.8787 45.9694 16.1583 45.9306 16.4355C45.7188 17.4945 44.8716 17.9711 43.2724 17.9711H27.2174C25.8089 17.9711 25.0993 17.0285 25.0993 15.1329V3.4834L21.6998 4.8072V15.2917C21.6998 19.5279 23.4648 21.646 26.995 21.646H43.3042C44.0934 21.7222 44.8898 21.6294 45.6403 21.3737C46.3909 21.1181 47.0783 20.7054 47.6569 20.1633C48.0958 20.675 48.6506 21.0746 49.275 21.3288C49.8994 21.583 50.5755 21.6844 51.247 21.6248C51.9143 21.645 52.5784 21.5254 53.1966 21.2737C53.8149 21.022 54.3737 20.6438 54.8372 20.1633C55.2247 20.6684 55.7311 21.07 56.3112 21.3324C56.8913 21.5947 57.5273 21.7097 58.1626 21.6671C58.7783 21.7017 59.3936 21.5925 59.9598 21.348C60.526 21.1035 61.0274 20.7305 61.4244 20.2586C61.8354 20.7462 62.3583 21.1271 62.9484 21.3687C63.5386 21.6103 64.1784 21.7054 64.8133 21.646H65.8724C66.2113 21.646 66.5502 21.646 66.8679 21.646C67.1741 21.6251 67.4785 21.5827 67.7787 21.5189C68.0618 21.4574 68.3412 21.3796 68.6153 21.2859C68.874 21.2 69.1254 21.0938 69.3672 20.9682C69.6016 20.8508 69.8249 20.7126 70.0344 20.5552C71.4324 19.4961 72.1525 17.7911 72.1525 15.4188C72.1265 13.9673 71.8801 12.5283 71.4218 11.1509Z" fill="currentColor"/>
</svg>
