<svg width="140" height="40" viewBox="0 0 140 40" fill="none" xmlns="http://www.w3.org/2000/svg">
    <path d="M20.0578 4.74217C19.0922 6.62063 16.931 7.53223 14.9169 6.9337C14.2364 6.73112 13.5374 6.62063 12.8201 6.62063C11.367 6.62063 9.42656 7.46777 9.42656 9.16206C9.42656 10.9392 11.5694 11.6298 12.9397 12.0718L14.9537 12.6796C19.1842 13.9319 22.4582 16.0681 22.4582 21.0037C22.4582 24.0331 21.7316 27.1455 19.3129 29.1989C16.931 31.2155 13.749 32.0718 10.6773 32.0718C6.8607 32.0718 3.12688 30.7919 0.0276163 28.628C0.00922311 28.6096 2.64952e-05 28.582 0.00922311 28.5635L3.37518 22.2284C5.35246 23.9595 7.6884 25.3775 10.3922 25.3775C12.2499 25.3775 14.2272 24.4475 14.2272 22.3112C14.2272 20.0921 11.1187 19.3186 9.42656 18.8398C4.46039 17.4125 1.19559 16.1142 1.19559 10.221C1.19559 4.04236 5.59157 0 11.6797 0C14.733 0 18.4576 0.957643 21.1522 2.47698C21.1798 2.48619 21.189 2.52302 21.1706 2.55064L20.0578 4.74217Z" fill="#00E261"/>
    <path d="M31.2593 13.2047C31.2777 13.2047 31.2961 13.1955 31.3053 13.1771C32.9974 10.6909 35.0483 9.84375 37.9084 9.84375C43.4724 9.84375 45.698 13.3612 45.698 18.4441V26.888C45.698 29.3097 43.7391 31.2618 41.3296 31.2618H38.4142C38.3867 31.2618 38.3591 31.2342 38.3591 31.2066V21.1605C38.3591 19.1808 38.6809 15.7093 35.0483 15.7093C32.0594 15.7093 31.2133 17.9285 31.2133 20.5159V26.888C31.2133 29.3097 29.2544 31.2618 26.8449 31.2618H23.9296C23.902 31.2618 23.8744 31.2342 23.8744 31.2066V10.5988C23.8744 10.5712 23.902 10.5436 23.9296 10.5436H31.1673C31.1949 10.5436 31.2225 10.5712 31.2225 10.5988V13.1587C31.2041 13.1863 31.2317 13.2047 31.2593 13.2047Z" fill="#00E261"/>
    <path d="M66.8318 31.2614H63.9165C63.8889 31.2614 63.8613 31.2338 63.8613 31.2061V29.0054C63.8613 28.9778 63.8337 28.9501 63.8061 28.9501C63.7877 28.9501 63.7693 28.9594 63.7601 28.9778C62.4726 31.0312 59.9435 31.952 57.534 31.952C51.3999 31.952 47.0867 26.8231 47.0867 20.8838C47.0867 14.9446 51.3171 9.85254 57.4513 9.85254C59.7872 9.85254 62.2335 10.7089 63.7785 12.4492C63.8061 12.4861 63.8705 12.4676 63.8705 12.4124V10.5892C63.8705 10.5616 63.8981 10.5339 63.9257 10.5339H71.1634C71.191 10.5339 71.2186 10.5616 71.2186 10.5892V26.8875C71.2094 29.3001 69.2505 31.2614 66.8318 31.2614ZM54.6647 20.9207C54.6647 23.545 56.4028 25.5708 59.3825 25.5708C62.3622 25.5708 64.1004 23.5542 64.1004 20.9207C64.1004 18.3792 62.3622 16.2338 59.3825 16.2338C56.4028 16.2338 54.6647 18.3792 54.6647 20.9207Z" fill="#00E261"/>
    <path d="M80.8474 12.882C80.8658 12.882 80.8842 12.8728 80.8934 12.8544C82.2269 10.8102 84.7192 9.85254 87.1287 9.85254C93.2996 9.85254 97.576 15.0183 97.576 20.9575C97.576 26.9336 93.3364 31.9428 87.2115 31.9428C84.8387 31.9428 82.3832 31.0956 80.8106 29.2908C80.8014 29.2816 80.8014 29.2908 80.8014 29.2908V35.6168C80.8014 38.0385 78.8425 39.9907 76.433 39.9907H73.4625V10.5431H80.8014V12.836C80.7922 12.8636 80.8198 12.882 80.8474 12.882ZM80.5531 20.9207C80.5531 23.545 82.2913 25.5708 85.271 25.5708C88.2599 25.5708 89.9888 23.5542 89.9888 20.9207C89.9888 18.3792 88.2507 16.2338 85.271 16.2338C82.2913 16.2338 80.5531 18.3792 80.5531 20.9207Z" fill="#00E261"/>
    <path d="M106.34 12.882C106.359 12.882 106.377 12.8728 106.386 12.8544C107.72 10.8102 110.212 9.85254 112.622 9.85254C118.793 9.85254 123.069 15.0183 123.069 20.9575C123.069 26.9336 118.829 31.9428 112.704 31.9428C110.369 31.9428 107.959 31.1233 106.377 29.3829C106.35 29.3461 106.285 29.3645 106.285 29.4198V35.626C106.285 38.0478 104.326 39.9999 101.917 39.9999H99.0016C98.974 39.9999 98.9464 39.9722 98.9464 39.9446V10.5984C98.9464 10.5708 98.974 10.5431 99.0016 10.5431H106.239C106.267 10.5431 106.294 10.5708 106.294 10.5984V12.836C106.285 12.8636 106.313 12.882 106.34 12.882ZM106.046 20.9207C106.046 23.545 107.775 25.5708 110.764 25.5708C113.753 25.5708 115.482 23.5542 115.482 20.9207C115.482 18.3792 113.744 16.2338 110.764 16.2338C107.784 16.2338 106.046 18.3792 106.046 20.9207Z" fill="#00E261"/>
    <path d="M131.659 0.810547L126.683 19.945H130.822C132.827 19.945 134.574 18.5914 135.071 16.6485L139.2 0.810547H131.659Z" fill="#00E261"/>
    <path fill-rule="evenodd" clip-rule="evenodd" d="M129.167 22.6426C131.732 22.6426 133.811 24.7236 133.811 27.2927C133.811 29.8617 131.732 31.9428 129.167 31.9428C126.601 31.9428 124.522 29.8617 124.522 27.2927C124.522 24.7328 126.601 22.6426 129.167 22.6426Z" fill="#00E261"/>
    <path d="M126.886 1.19729H126.895L127.474 2.7995H127.732L128.311 1.19729H128.32V2.7995H128.753V0.810547H128.054L127.603 1.98918L127.152 0.810547H126.453V2.7995H126.886V1.19729Z" fill="#00E261"/>
    <path d="M125.129 2.7995H125.607V1.19729H126.214V0.810547H124.522V1.19729H125.129V2.7995Z" fill="#00E261"/>
</svg>
