<svg width="87" height="40" viewBox="0 0 87 40" fill="none" xmlns="http://www.w3.org/2000/svg">
    <g clipPath="url(#clip0_8727_14721)">
        <path d="M23.5468 20.1491C23.5468 24.5689 23.5468 28.9923 23.5468 33.4121C23.5582 35.0624 22.9744 36.6615 21.9025 37.9163C20.7009 39.3216 19.0918 39.9295 17.2964 39.9505C14.0149 39.9927 10.7299 39.9751 7.45892 39.9505C6.57205 39.9275 5.68902 39.8252 4.82037 39.6449C2.31883 39.1706 0.878336 37.6212 0.252952 35.218C0.0815112 34.5356 -0.00464282 33.8346 -0.00352938 33.131V20.258C-0.00352938 19.5553 -0.00352768 19.5553 0.656991 19.731C2.49098 20.2264 4.32146 20.7393 6.15897 21.2206C6.23372 21.2291 6.30594 21.2528 6.37121 21.2902C6.43648 21.3276 6.4934 21.3779 6.53848 21.4382C6.58357 21.4984 6.61586 21.5672 6.63337 21.6404C6.65088 21.7135 6.65324 21.7895 6.6403 21.8636C6.6403 24.6954 6.6403 27.5237 6.6403 30.3555C6.63925 30.829 6.69588 31.301 6.80894 31.7608C6.87541 32.0662 7.02212 32.3483 7.23396 32.578C7.44579 32.8078 7.71508 32.9768 8.01404 33.0678C8.4641 33.2345 8.9395 33.3224 9.4194 33.3278C11.0812 33.3278 12.7431 33.4051 14.4014 33.254C14.8512 33.223 15.2952 33.1345 15.7224 32.9905C16.0697 32.8862 16.3737 32.6718 16.5885 32.3796C16.8033 32.0875 16.9174 31.7334 16.9135 31.3708C16.9135 31.1319 16.9135 30.893 16.9135 30.6682V6.88599C16.9135 6.7314 16.9135 6.57681 16.9135 6.42222C16.9135 6.15521 17.0259 6.0498 17.2964 6.0498C19.2534 6.0498 21.2139 6.0498 23.1708 6.0498C23.5222 6.0498 23.5432 6.23953 23.5432 6.50654C23.5432 8.01379 23.5432 9.51752 23.5432 11.0248V20.1596L23.5468 20.1491Z" fill="#349ADC"/>
        <path d="M69.769 19.7035C69.769 21.4918 69.769 23.2766 69.769 25.0649C69.769 25.4689 69.892 25.6024 70.2995 25.5989C72.7765 25.5989 75.2569 25.5989 77.7374 25.5989C77.9201 25.5989 78.0887 25.5989 78.2855 25.5989C79.4484 25.4865 80.0597 24.8154 80.0597 23.6525V14.3771C80.0597 13.7623 80.0597 13.7588 80.6605 13.7588H86.1519C86.6754 13.7588 86.6965 13.7799 86.6965 14.3104C86.6965 17.8589 86.7949 21.411 86.6649 24.9525C86.556 28.0126 84.9082 30.1769 82.1221 31.4206C80.881 31.9688 79.5367 32.2444 78.1801 32.2287C75.1937 32.2111 72.2073 32.2287 69.2174 32.2287C68.6311 32.238 68.0503 32.1146 67.5185 31.8675C66.9867 31.6205 66.5177 31.2563 66.1467 30.8023C65.971 30.5985 65.9078 30.588 65.711 30.8023C64.8242 31.6911 63.6285 32.2034 62.3733 32.2322C60.5709 32.2779 58.765 32.2322 56.9627 32.2322C56.4813 32.2322 56.4673 32.1971 56.7202 31.7649C57.8516 29.8501 58.9899 27.9389 60.1072 26.017C60.1716 25.8774 60.279 25.7619 60.4135 25.6873C60.5481 25.6128 60.7029 25.583 60.8555 25.6024C62.7141 25.7254 63.1919 24.8998 63.1638 23.2766C63.1111 20.3218 63.1462 17.3635 63.1462 14.4088C63.1462 13.7728 63.1462 13.7693 63.7646 13.7693H69.1752C69.762 13.7693 69.7725 13.7693 69.776 14.3526L69.769 19.7035Z" fill="#349ADC"/>
        <path d="M44.5007 39.9788C43.545 39.9788 42.5858 39.9788 41.6302 39.9788C41.451 39.9788 41.2156 40.0666 41.1137 39.9015C41.0118 39.7364 41.2051 39.5677 41.2964 39.4202C42.669 37.113 44.058 34.8106 45.4633 32.5128C45.7444 32.0491 45.7444 32.0491 45.2139 31.9156C43.605 31.5187 42.1332 30.6946 40.9541 29.5303C39.7749 28.366 38.9322 26.9048 38.515 25.3011C38.0978 23.6974 38.1215 22.0107 38.5838 20.4194C39.046 18.8281 39.9296 17.3912 41.141 16.2606C42.3525 15.13 43.8469 14.3477 45.4663 13.9963C47.0857 13.6449 48.77 13.7375 50.3411 14.2644C51.9122 14.7912 53.3118 15.7327 54.392 16.9893C55.4722 18.246 56.1929 19.7711 56.4778 21.4035C56.8774 23.6175 56.4378 25.901 55.2446 27.8084C52.9023 31.7012 50.5601 35.5953 48.2178 39.4904C48.1408 39.6526 48.0152 39.7868 47.8584 39.8743C47.7016 39.9618 47.5215 39.9984 47.343 39.9788C46.3909 39.9577 45.4633 39.9788 44.5007 39.9788ZM50.6456 22.988C50.6493 22.5609 50.5685 22.1372 50.4078 21.7414C50.2471 21.3456 50.0097 20.9854 49.7093 20.6818C49.4088 20.3781 49.0513 20.1368 48.6573 19.9718C48.2632 19.8069 47.8404 19.7215 47.4132 19.7206C46.5666 19.7484 45.7639 20.1042 45.1748 20.713C44.5857 21.3217 44.2564 22.1356 44.2564 22.9828C44.2564 23.8299 44.5857 24.6438 45.1748 25.2525C45.7639 25.8613 46.5666 26.2172 47.4132 26.2449C47.8399 26.2454 48.2625 26.1613 48.6565 25.9975C49.0505 25.8337 49.4081 25.5934 49.7086 25.2906C50.0092 24.9877 50.2468 24.6283 50.4076 24.2331C50.5684 23.8379 50.6493 23.4147 50.6456 22.988Z" fill="#349ADC"/>
        <path d="M34.1994 19.1336C34.1994 23.3004 34.1994 27.4685 34.1994 31.6377C34.1994 32.2139 34.1994 32.2174 33.6162 32.2174C31.7681 32.2174 29.9236 32.2174 28.079 32.2174C27.6961 32.2174 27.5591 32.105 27.5626 31.715C27.5626 23.325 27.5626 14.9339 27.5626 6.54155C27.5626 6.15508 27.6926 6.03562 28.0755 6.03914C29.9236 6.03914 31.7681 6.03914 33.6126 6.03914C34.1994 6.03914 34.1994 6.03914 34.1994 6.61885C34.2017 10.7951 34.2017 14.9667 34.1994 19.1336Z" fill="#349ADC"/>
        <path d="M60.6763 34.7862H65.9991C66.4524 34.7862 66.4734 34.8249 66.2767 35.2359C65.8235 36.174 65.3667 37.1121 64.917 38.0466C64.6744 38.6239 64.2641 39.1151 63.7391 39.4564C63.2142 39.7978 62.5988 39.9738 61.9728 39.9615C58.7896 39.9966 55.6065 39.9615 52.4234 39.9615C52.0193 39.9615 51.9877 39.9017 52.188 39.5574C53.0488 38.0712 53.9236 36.5921 54.7809 35.1059C54.834 34.9914 54.9213 34.8962 55.0308 34.8333C55.1402 34.7703 55.2665 34.7429 55.3922 34.7546C57.1524 34.7897 58.9161 34.7862 60.6763 34.7862Z" fill="#349ADC"/>
        <path d="M86.6895 4.42027C86.6652 4.80611 86.5586 5.18227 86.3769 5.52348C85.5388 7.09733 84.3336 8.44592 82.8635 9.45497C82.6575 9.62705 82.3976 9.72132 82.1292 9.72132C81.8607 9.72132 81.6008 9.62705 81.3949 9.45497C80.1617 8.58716 78.9074 7.75449 77.6671 6.90073C77.0066 6.44399 76.9645 6.24021 77.4458 5.6078L81.2508 0.495811C81.697 -0.104979 81.7778 -0.119032 82.4243 0.235821C83.6856 0.9385 84.9364 1.64118 85.9377 2.6952C86.3999 3.15276 86.669 3.7702 86.6895 4.42027Z" fill="#349ADC"/>
        <path d="M77.4036 4.41652C77.4093 4.79776 77.3135 5.17366 77.126 5.50568C76.2845 7.10454 75.0637 8.47258 73.5705 9.48986C73.3769 9.64437 73.1366 9.72851 72.8889 9.72851C72.6412 9.72851 72.4009 9.64437 72.2073 9.48986C70.9108 8.59395 69.6003 7.73317 68.3039 6.8232C67.7945 6.47186 67.7628 6.20484 68.1423 5.69891C69.4563 3.92582 70.7738 2.15273 72.0948 0.379634C72.4462 -0.0665667 72.534 -0.0981897 73.0048 0.154775C74.3364 0.857454 75.6539 1.59175 76.7044 2.70901C76.9315 2.93076 77.1106 3.19667 77.2309 3.49035C77.3511 3.78403 77.4099 4.09924 77.4036 4.41652Z" fill="#349ADC"/>
    </g>
    <defs>
        <clipPath id="clip0_8727_14721">
            <rect width="86.7282" height="40" fill="white"/>
        </clipPath>
    </defs>
</svg>
